<mxfile host="app.diagrams.net" modified="2023-03-13T02:07:50.747Z" agent="5.0 (Windows NT 10.0; Win64; x64) AppleWebKit/537.36 (KHTML, like Gecko) Chrome/110.0.0.0 Safari/537.36" etag="gb4Nt4gZlk4llOfGqGCH" version="21.0.6" type="github">
  <diagram name="第 1 页" id="JRt5Sor9CVDq6ppiH0SU">
    <mxGraphModel dx="1434" dy="764" grid="1" gridSize="10" guides="1" tooltips="1" connect="1" arrows="1" fold="1" page="1" pageScale="1" pageWidth="827" pageHeight="1169" math="0" shadow="0">
      <root>
        <mxCell id="0" />
        <mxCell id="1" parent="0" />
        <mxCell id="KDGDrF34WBt05ubvqvvm-1" value="" style="shape=image;verticalLabelPosition=bottom;labelBackgroundColor=default;verticalAlign=top;aspect=fixed;imageAspect=0;image=data:image/png,iVBORw0KGgoAAAANSUhEUgAAAhoAAAEMCAYAAACC3h89AAAgAElEQVR4nO3de3Bc9X3//+fZszfJNxlzkUCGiJAA/tZxMHxbSUC+iRMS9zuQaVY/mVhKUjIplykloSltptEliSy1TcPQBIYMl/EkLZH8K66UhulMaEmcfIOt1Tc/YmjdENKCFWIZCbCxbNm67O455/fH2V3trnZ1P5JWfj1mDpJ2zzl7VmZ3X/p83p/Px3Acx0FERETEA77lvgARERFZvRQ0RERExDMKGiIiIuIZBQ0RERHxjIKGiIiIeEZBQ0RERDyjoCEiIiKeUdAQERERzyhoiIiIiGcUNERERMQzChoiIiLiGQUNERER8Yx/eHh4ua9BRESEsrKy5b4E8YA/Fk8s9zWIiIjIKuUPhNYs9zWIiIjIKqUaDREREfGMgoaIiIh4RkFDREREPKOgISIiIp5R0BARERHPKGiIiIiIZwzHcZzlvggRERFZndSiISIiIp5R0BARERHPKGiIiIiIZxQ0RERExDMKGiIiIuIZBQ0RERHxjIKGiIiIeEZBQ0RERDyjoCEiIiKeUdAQERERzyhoiIiIiGcUNERERMQzChoiIiLiGQUNERER8YyChoiIiHhGQUNEREQ8o6AhIiIinlHQEBEREc8oaIiIiIhnFDRERETEMwoaIiIi4hkFDREREfGMgoaIiIh4RkFDREREPKOgISIiIp5R0BARERHPKGiIiIiIZxQ0RERExDMKGiIiIuIZBQ0RERHxjH+5L0C89eUvf3m5L0FEZFb+6q/+arkvQTygoHEe0ItXRFY6/VG0eqnrRERERDyjoCEiIiKeUdAQERERzyhoiIiIiGcUNERERMQzChoya3v27MEwDDo7O5f7UkREpEgoaMisdHZ20traCsBTTz3FyZMn53T8nj172Llz55yPExGR4qagMUeHDx/mtttuo7+/f8p9w8PD3HHHHTzzzDOMj4/zN3/zN3n3m05/fz+33XYbhw8fXqxLXrBDhw7xqU99ira2Nk6cOAHAt7/97VkfPzY2xq5duwoed+jQIQzDyLvdc889jI2NLc4TERGRJaeg4ZGXX36Zf/qnf6K+vn5FhYa5+vWvf829997L3XffzQMPPMCmTZv41re+RXd397RdKKluFsMwKC0t5ZprruFf//VfaW1tnRIkRkdHATh48CCO4+A4DidOnOBjH/sYl112GSUlJUv1dEVEZJEpaCyiU6dOcfLkSSorK9m+fTs/+tGP+J3f+R3uuuuuWYeNI0eOALBx40YvL3VWDh06xDXXXENdXR2PPfZY+gP/6quv5h//8R/5xje+UTBstLS08Morr/DJT36SEydOpANEKkR88pOf5JVXXuGxxx6jtLR0yvHPPvssQ0ND6ZYQEREpTpqCfAbDw8Pcf//9RCIRPv7xj8/p2LKyMr75zW/y1FNPsWXLFgCeeeYZ2traZjy2vr5+2vtbW1vnfD1z0dnZme4uaWlpmXJ/KmzcfvvtHD16NO8+l19+ORs2bODb3/521v3PPvssv/rVrwo+9smTJ3nqqaeoq6vj6quvXpwnJCKL7qtf/Sr3338/ZWVl0+43PDzMP//zP3PHHXcs0ZXJSqKgMQvXXHMNTz75JFu3bp3zsWVlZdx3333pnz/+8Y8XDAj9/f18/vOfp6qqive85z1Zxy2VsbEx/vRP/5THH3+cgwcPcuONNxbc9+qrr+bHP/4xjY2N7Ny5k87OTjZt2pS+v6SkhE9/+tPce++97Nq1i6uvvppf//rXfOMb3+DP//zPC4aIZ599FoA//uM/XtwnJyKL5qtf/Spf+9rX+MEPfsBPfvKTgmFjeHiYD33oQ7z00kuUlZXxB3/wB0t8pbLc1HUyg7KyMu655x42bdrE3r1704WJr732Grfddhs33HBDequvr2dwcJC77ror6/bUNl33yfDwMF/72tf46Ec/ysMPPwzAI488siTPMeXQoUPpbozR0dFpQ0bKpk2bePbZZ/n0pz/NhRdeOKUrZfv27VRXV/PCCy8A8PTTT1NdXU0kEsl7vlQQ+fSnP50VWkRkZbn//vvZtm0bL730Eh/60IcYHh6esk9myNi2bRsf/OAHl+FKZdk5Mis/+MEPnFtvvdXZt2+fc+uttzpHjx6dss8vfvEL5/rrr3d+8IMfzOncR48edW699VanqanJGRsbS9/+8MMPT7ltrv7yL/9yVvt973vfc7Zt2+a88sorzsGDBx1gTltbW5tz4sQJ52Mf+5jzh3/4h85HPvKRWR23bds25/HHH3cA5+DBg+nHvvvuu53R0dF5P28R8d6pU6ecbdu2OYDz/ve/3zl16lTWfe9///vTr/PM+/KZ7XuVFB91ncxSqstjNkWdr7/++qzP+8gjj/D3f//3AAwODnLJJZeku0zuu+8+nnnmGW666SaeeOIJtm/fPr+Ln4XGxkYaGxsBt0vEcZys+1NdKgB/93d/V3AkSKrbYy4OHTqU/v7GG2/k4MGD3HTTTTM+logsr7KyMn7605/ywQ9+MN2y8ZOf/AQgqyXjpz/96Yx1HLJ6qetkEQ0MDADwi1/8Im8zYsr4+DjNzc3ccMMNvPnmmxw8eJAXXniB/fv382//9m80NzczPj4OuAHn4MGD9PT0cMMNN/DMM88syXNZTjfeeCPf+973ePzxx+np6VnuyxGRaaTCRmY3ikKGZFLQmIPh4eF0/USu8fFxfv7zn7Nz504Ajh49mvf4O+64g5tuuolIJMILL7xAe3s74XAYgKqqKp566ikGBgZ4+eWX08eFw2Ha29t54YUXeP3117nhhhuywshKlTmXxlwn44pEItx99908//zzmrBLZIXLDRsKGZJJQWOWhoeH+cpXvpIOErkGBwf593//dyKRCNdff31Wd0BKWVkZ3/3ud3nhhRcKdoOk9il0/3333TcloCymkydPsnPnzimhoLS0lMcff5zHH3+c0tLSvMEh35wad999N6Ojo1nzaDiOM+MQ35KSEm6++Wb6+vr47W9/u+jPU0QWV2bYUMiQTKrRmIXUXBqf//znC+5z5MgRNm3axJVXXgnAV77yFW699Vaqqqqm7JsaxnrnnXdmDXUdHx+nvb2dSCSSN2g88sgjXHHFFXOePyO33mI6F1xwAT/84Q+n3D42NsYXv/hFAB566KGCdROZj5X6PhUu8u2XeV/ufldccUXB40Vk5dmwYUO6RmPDhg163QqgFo0ZZU7YVaiVYXh4mJ6eHq6//nrKysrYsmUL27Zt41/+5V/y7p+a/XPr1q1Z66MMDw/zu7/7u9x1113ccccdWXUe4+PjXHvttbS1tU077DW35WA2co9ZrG26c2feV+hafvOb33DJJZewadMmz65RmzZti7tt2LAhHTIyt/m8F8nqoBaNGTz11FNcf/3107Yi/OxnP+PkyZPceuutgFtTEYlE8rZqpGo5tm3bRkVFRVadRXl5OR//+Mf5wAc+wP3338/Ro0fZvn17Oljcd999PPHEE9x1113pn1MKvShn84KdzQs6c5+5vglMt3/mfZnfj42N8fzzz3PjjTdywQUX6E1HZJXL9xpP3WYYxlJfjiwiBY0ZzDQ7Z39/P08++SR33nlnVqBItWrs3buX5ubmdD3Fyy+/zLPPPssTTzxBOBzOW9CZqtMAN5i8+eabXHLJJYA7AdYTTzzBww8/zPDwMBs2bJhyfO4LdroP+dkqFAhmc0y+/fPd98tf/pI/+ZM/4T/+4z8Ad+bBL3/5ywoZIqvAbEJD5ms9cz8FjuKmoLEAmbN55rZ4hMNhHnjgAe6//36efPLJdGA5dOgQO3fuTK99MpNUkemdd96Zvm379u1897vfnTFQZAaD6fYDtwXhgQce4Mknn5zxmqbb533vex9dXV28973vTe9baP8777wzK2hce+216RlEp7tWESle04UGx3HSt+fbL/N+KR4KGvM0NjbG3r17qayszAoBmcrKyvjKV76SLiK97777prSQlJWVEYlEaGtrKzgSY+fOnXz0ox/Num268JDb8jCbwBEKhXjkkUcWbdpz27ZxHIc/+qM/4sEHH5wyQuav//qvOX78+JTrs217UR5fRFamQkEit+Uz83aFjeKmoDEPg4ODfOYzn2Hnzp1Z3SL5VFVV8fDDD/P5z3++4IiR6RZam43cIJEvaOQLG163FqTOb9v2lACR7758+4nI6pIZEgzDSAeHQl2ymftIcTIctU0XnUKtF6mvmd+3tLTQ1tY2Y9DQ/wYi4pXccJH7vWEYtLa2pif5S92W+f1055GVTS0aRWy6FozMn1OtBPlaNhQwRGSp5AsOma0ZM7VoqGWjOCloFJmZhonOdss8l8KGiHitUMjIDBu2bWe1ZOQem0mho3goaBSpQnUY+QJFqvah0BBVBQ0R8VqhLhHDMPD53LkjZ3ovUqtGcVLQWEVyQ0YqXFiWNaugocAhIoutUEtG5vep9yPLsvD5fOngkXmcFC8FjSI2XUuGbdtYloXjOHzta1/LqtPI/Jr7vYiIFwoVgaa+GoaRfs8CCrZyKHgUHwWNIpRvPox8BaCpJkbTNPXiFJEVzbIsEokEpmmmb/P5fJq4axVQ0Cgiua0QuVXauWHDsixM0+T/vfTrS36tIiJzcfvxvyCRSKRDRGa3SuprSqHJvGRlUtBYBXJbNFLFn5r8SkSKhWEYxOPx9Pepr6lWDQWK4qWgUeQKtXIoaIhIsYnH41kjUVLvYwobxU1BYxWYaXiriEgxSCQS6VEnpmnqfWyV8M28i6xU+V6Aua0ai+lvPwOvfwGO1C3qaUVEADdoZA7FL1SHJsVFQWMVydeNsljurIPbN7rfr6+Ev53rCa6DIwopIjINy7LyzvsjxU1dJ0VqpvVNFvVFegs0VwKn4Ip/gB9/AW7/DPzFP8ztND8cgNsrYd91sPvF7Pv23QO1ofzHvfoyfPi5eV25iBSRzEL2fC0bmhm0OClorCL55tdYsOvgyBZgAtqTweLDP4MjH3BbJ7Z2T3PcB2B9nrtqPwCvf2Dy51dfhrdIPsZj8GTy9jvr3IDz1omFPw0RWflS4SJFLRqrg4JGkZmppWJRWzNugde3kG7JSHsRtjJD2HgRtr7o1nX8/rmp+9xZB81rJs+7791TT/HJZCtKbuuHiKxes3kPyzeJl6xcqtFYJQoVhs7XnXUFQkbKi7D1Z0AlvP6Zwuf5i0G3pmPfddm3f7ISzgB3TvP4VwG9R+Zz9SJSjBb7fUxWBgUNmWLfPW6XxasvFwgZKS/C1m/Bqxvd0Sh5C0Sfg94JqN06edPffsYNET/8h8luklyfrIQzA2rNEDnfKFisPgoaMukWNzDUAu3fmn0B5oe/Be0DcHuBUSW7XwM2JoPIdfD7G90Q8xcFzpcOIoXqP0REpGioRkOAycLL3p/B7gvdwNE8lxOcgiu+5Y5Ief0e+NHb8JHK7F1u/wLcnvx+/ZZk10zy2N6M/TaXul+vvwXQaBMRkaKmoCEAPNmd3Y1xRZ4P+H33JFs7Hivc5fHhb83v8ffdM/n97seSj7UFfoyGtoqIFDN1nciKtPsxeBW4ass8JgcTEZEVQy0a4p1p5tJImW4yrg+/7HavqAtFRKR4KWjIFD/+gluMWUhzgfqNMwP559TIGyaSIWRaz8GrW+Cqihn2ExGRFUtBQ6YoVGcxmxqNxfbWxPShR0REVjbVaMiKdnEIzpxb7qsQEZH5UtCQlesWtzXjP48u94WIiMh8qetEVpQdn4HmjZM/9/5Ms4OKiBQzBQ1Jm26p9kyFikFTcsPBVZmTc+V4K+fnA/8Au2e+BBERKRIKGpK2+zFvzjvvUSciIlL0VKMhIiIinlGLhnjnRdhaqL4i5z6vWlNERGR5qUVDREREPKOgISIiIp5R18l54PUvLPcViIhM70tfWu4rEK+oRUNEREQ84z8+eHJxzmSAAfh8PkzT3QJ+P36/id808fkMfD4DwzDShziOg2072LZNImERT262bWNZNrZt4wDuf8RxnPQGDo4Dtm3nbBZWwiKeiBOPx5f7kkVE5DznX7+udBFO437oAdjJD0LbdhifiGOPTWAYBqFggFDIj98000fF4xYTsTgTsTiG4YYUn8/A7zcJBvzpUOJ+MaY+7HkmM2hkbm4ws9Jhw7ISxOMBYrHYcl+yiIic5/zr1pYsyomcZNKwbRvLdrAsm1g8QSyWwLIt4vEEtm3j800GBtt2SFgWjuNgmibBYIBgwI/pM9KhA8hqBTmfFQoZmZtlWViWRTweJxZY+T1jQ/vqqGjooT3q0FS93FcjIiKLbdE+iQzD7RYxTbc1IhwKsqYkxLq1YdaUhjF8BhOxOGfPjae3WDyBaZqsXVvC2jUllJYECYcCBAJ+TNOXPqcsg4Eu6owOonnvHKJrl4GxJ/+9c3mMext6oK131iFjaF8ddfuGZjxvnWHQ0bewyxMRkYXz7E9ewwDT9BEKBggHA/h8BonEZFfJRCyOZVmYPoNwKEAo6Mf0rfy/wM8X0e800kMzB+b7Yd3XkQ6KuZsbFKJ0bG6kB6C1Ns9+dXQN5J50iAPf76GnoUIhQkSkSHj6yZ71wQE45DT9J/fxGWq9WEmG9tVR28rCujOqm9L/zr1tQH0ng8mfu3dD165amonQeSzn/4ljnUQA2h6goTL3pOU0PO2er7kmXxAREZGVRk0Ikq2vg4qGHiJdg8mQkewmyWptqKBxP/lbIqZ0pwzRfwQin9hBOanzVdC4P0Lnse6cMJFs5WjrxWmpKXiJNS29tNND4+ZCXTsiIrJSKGjIpL4OjJpmaOule3d58ka3FSG7CHWQznqgrXdqgWpuQBg4QPf+CHU3J8/Xt9cNGV3badycG2Bq3eXnswJMvjBRQ9OxTiJtVVSpVUNEZEVT0BBXKmTUdzLYUgNE6ShYDDp7Q89301Nfx45Uy0V1E47TTUMVQDu96ZDSSzsQ6RpMh5bBrkjhE1c20N3SQPmU7hUREVlJFDTEVb2D9vpOBp9uoByI7qmleSHFoABE2dvQA/sbqZi2hWIWZ9qTr6C0gIF+eoDD/TOMThEREc8paADu1KM2YGFZCWKxGGNjE0zEEiQsGyt577QTlDo22AmwJrASMSZiCUbHLWJxd16RJWNbkIhBbIz4+NgcDqyhKRkyGOjiwWQx6I7n8o0cmaZGIzME9B1wu0JSXSzR9nk/rZqW7JaP2eh5tX/ejyciIovjPFtUzQHbAcfGcRwsx8GyASwcLMBibCzO6LkEY6MJQmvChNaECYaDmIDJNMnMjoE1DtYEozGTcxN+RuN+1pT4WVtqEg6lZkRNfiCbvvSU7MZ0550rKwETI3D2DOdOT8zjBEN0fdEtyOyuBqodnJb5XMgQXQ81z7BPM7VGzj4NFRgNmTdsn/sj9x92v2k9QLSlhsJlpSIi4rXzK2gkEjA2AqMjjI6Nc2I0wdujCWKWk26tmCxsBOOE4U5/Putht+4aJDjgOAYO7vHpKdQNPxh+AuEQpResY82mdawJBykFSnGDzIIFQuC7AALrKGHu69hE9yRbK7bO+gg6jFoOdw1mFJCSLPpsp72tmcJxo51epykZBKaex501dK7PwJ1rg7Z22lsP0z8ANarjEBFZNudX0ACwbEhYYPtw/GtxSoOsCRlsXOuwca3D2DmLM2cSnB2xCK8vJbS+lNCaEEEgyDRhIDEBsTGIjTIS83E65mckbrJhrcGGtQbhoMPIcIyR4Rgxx8KPgw0kcLtlFpebboKlobkd1tdBbeviXEH0uWYiXYPseHWmVo1FNnCA7v3Q/sUmdmDw4PNDNGQGIBERWVLnZ42GA9g2jp3AsWLEY3HGxizOjDiMxwwM06RkTQDT5+DEJoiPnGNs5BxnR85xptB2boIzEzZnLD8xTEy/wZqQgw+LifE4IyNxxsYTxBM2tp1cfI50G4gnDF9g9jsnR520R5NDV5NyizCnbu6Q1J6Giqy5NGpanOwWjhzp7o1FEN0zWWA69Hw3PbSzoxpqbmmnp2Gv5toQEVlG51+LRpoNVhwnkSCeMDibMIiNGdlrxFpxGF/Yo4zFHcaSM6ImYg6JhIPhd1tGHA8SRmwixrmREc6eGWFsDqu3plogmqqhK+P2mpaZajQKdJ3MysJrNKJ7DGpbI3R+Fmoq3VEuka5H3e6Y6h20U8uBviZqtGCbiMiyOI+DhgE+E8Nn4jd9hEMmpSFz9uUYs+aOWbEtiwnDYsK2sQ3vFr13HPexEokEiTmMOqlpcegGIN+QUHc2z/4vLtYKq6k6iswZQOdao9E/ZYZRd0huO73pwFPD57oiVNR0sCNdCyIiIkvp/A0ahonhD2MYJZSUBNi0IcBF6wNgO1gJi0TCxjF87oaB33DwGw44DpYDCZtkfacPn2mA7eBYNo5lg+HDMUwwfPjNOAF/HMeOMXxinGF7nHEL/MYcakznIBQO4w8EWLNhPbHhdxbnpAP9sDVCc41B8wzTg+fVWouRrv1oB/rp3w+RT1TN+5J6GmrpySwmTdaXtEezA0X57kfp/H4FtXt2zP26RURkwc7foJElNVPGBGPnxjhzapQzw2PEzTAxXxjHDLDBjLHBjGM6FmdicHoCLL9JeH2A0LoATiyBNTKONTKBZYaxA6XYwRIuWAsXrHMoDS73c1yAyhoaWrpp+GwXdZsfpOuzuWuUzCAnnAztq3MXVLt5HkWaqbk5MiYXY6CLuprmjPVZMpXT8FAn3ZtrqbtqPt07IiKyEAoagPtrcMeVrFm/gdK1DpdUOjhMNjsYgJEs2ywjWV9huKvPJpemhQvdFo+s44wYPiOGZc2+XmLFqmyg28npyxjoZ7qyzpoWJ6fYNTlbaFtvwbDi1l0kf2h7IKuFYgiI1HfyaCpkZKzP4hQKEZUNdEf7MWoqMF6dR4uMiIjMm4IG4KYEC4gTjyWIjcWYGI9hGX4SPj+OYVLisyjxWfhwGEvAWAIcn0EgbOIvMSFhYY8n3M0XwDGDOGaQkqBFSdDB9KooY8mlVl/NvC2zLmIGfQfcOoopH/Y1NKWrYwsXoJZXN9H9dPKHjJaMGVsqqptwjlVRt7kWA4UNEZGloqCRw7FtrEScRGyCuM8h4fPh+HwEfBa2LwGORSIOEzGw/T7sADi2AbaNHU9gT8SwTQPb7wcHgv7J1o+lFp/XsBZ3tdbC82TNdP8MqpsWb7RNvhaWxdxfREQWTEEDID0JuB/TD6FSH2YgiG34sQ0TxzAJGn4C2PiwKbHAtNwWDX/QxDRNMGycNQGcYBjHMHF8AfCZBPw2ftPybrKMHFY8xsTYKBNnz3LmzMjSPKiIiEgB51/QMAzwGWA4YMchAfHxOOd8fkwrkDMSJJHcYCy5ZbEgNpbIc0fCXXMEiE8kGCWObSU4N5pg3LJJ4MeHgZ9U7cfiScTijJ4e4fTJE5y1FvHEIiIi83B+BQ3DAL8fQiF8DgRti5L4KPEJh9MTcPqU14/vByOAGQriD/gJGQYhSAeOxWBjEidIzFiDWXp+/fOKiMjKc359Epl+WLMB1mygBCgBLl3ua1pkJWvCBMMBNl60gdgcZgYVERHxwvm51omIiIgsCQUNERER8YyChoiIiHhGQUO81deBYRh09OW5b6CLusz7+jowjDq6BpbyAkVExEsKGlJEhujaZWDs6speY3a6MCMiIstKQUPShvbVYRjGvLcV80GfbCnJe525IUVERDyloCFp5bu7cRxn7lu0fbkvPa/2aOZ1DtJZv9xXJCJy/vE0aGR9GAEGOX9dJvexHTu9n6wO6daRmmYAmmsMt/6iL6O1YXMjPVOO7KFxc56Wkr4ODCO5mNv+Rioy/z/KfAy1WIiIrCieBQ3HAcuymYjFGY/FsW0Hv98kFAykN9M0sWyH8Yk4E7EElm17dTkyS9E9BobRQXSB50m3jiRbO9zWhW4aqhvoToXPY51EphwZofNYdotJUzXJxdiSrRL1nQzmaVFpjzo4qeXjRURkRVi0mUFTrRG2bWPZDpZlE4sniMUSWLaF3+eGDJ9vcrJt23ZIWBZnz8bx+02CwQDBgB/TZ+Dz+dL7GsaqWWNdRETkvOIfOTtlRbB5cNJLf9vJvzJtO7XZ+AwfgYCfUMiP3zTTR8XjFhOxOLYdx7ZtYrE4iUQCwzDwJZvFgeRCZwobhWokbNvGsixs205+nyAeT6zeKcj3N1JhNM64W3ONQXPujarTEBFZUv4zI6OLcyYjudi6z4dpuls4FMDvN/GbJj6fgc9nZLVOmKaPYNDPGjtEImERT26WZWFZ7oemA0u2xPpKlxkuUuEuFS4mNwsrYRFPxInH4/N8pGZqjSkf0Qs0RNeue+GhbhoqF3iq+k4GM7tI+jrSdRqZ2qPJbpf041cwczwREZHF5L+sYtOyPbhhGJimgWm6LR4ly3YlxaFQa0bm5oY0i3g8voAWjXZ6nSZqZrt7gQ/6TM01Fe4H/0AHxubsfbdn/eQWg6YDQW6oEBGRoqLhrbJw1U2TRZsZonsmR4SkWxeS+866GDRfyCgw6kRERFYeBQ3xRHSPwYNXDXozx0aBUSdpA/15hs2KiMhyWLRRJyKZalocugGWcbZQFYOKiCw/tWjI4hnoos6jRdHcCcBmMWHXnihD/YeZOh+HZgYVEVkOChqyeAb66aGH/kJBI3cNklnODGrsiWZNjz7YFSHSNTjZbZLZldJSQ/+rPcB2qhY6ukVERBZMQUMWTaoloeAHfGXGrKBzmBnUaZkc/xLdY1DR0AOv9jMEDFVW0b6/kYp0S0qUA61A247Zj5oRERHPKGhIlqqrIkAzB+ZcWxFlb0MP1Nexw5OWhCgdhkFtqxtEultqKAfKKxtocgbprO+h+/khhvY9SDMROj9bIGZsrdJQWRGRJaRiUMlSvrub3lcNavMVUs6ond68c15M08oxS9E9tTQXnN+jnIanHRr6OjBqeqCtNzkpWHKSrv2T19H5kNo5RESWkoKGTFHT4uC0LOwc0T0Gta3JH9If/N5e0xAQqe/k0XRXSzKALOyhRURkAYYjqQsAABoRSURBVBQ0xBOzCiuVDXQ7GTGguim9Zs58lFc30f30/I8XEZHFpxoNERER8YyChoiIiHhGQUNEREQ8o6AhIiIinlHQEBEREc8oaIiIiIhnFDRERETEMwoaUnySi7N15JsmPee+6B4Dw6MVZUVEZGYKGrIMhujaZWAYHUTncXT0O4300M6O6sL7HO4fAoao+qyDc6yO7s3uKrAiIrK0FDQkbWhfXfby7HPc8rYwLLa+DmpboT2ab82TXOWUVzK5amyL1jkREVlqChqSVr67O3t59tlu0fYlusIoHTXN0NZLUzVuN8muLoYyd6msYjvA9+8tEIjUjSIispS01okUjfQKrsmWieh3GunZDz1G49Sd9/cQ6Rqke7cWhRcRWU5q0ZAsbvHk/GonPNXXQW1rhM5jyS6TgS4ebIX2aG4LSy/toJAhIrJCqEVDisJQ/2Ggh8bNBun2i7ZeuqcUhFZRVQ/Nr/YDChoiIstNLRqyjJqpnbbAdLJlJbN+ZLArAhldKCIisnIpaEgeMwWAnK2meZ6P007vtIWmeUaWDHRxb0PPzKNOWmsLXm/dvqHpjhQRkUWkoCF5zBQAlmvUSbIANDXqBJickyO1VdC4370n0jWY93pVuyEisnRUoyELV92E4zR5/zh9HdS2ttPrZLZllNPwtENDxi1D++qoaIC6mxUoRESWm1o0pEgk59DI7dbJnUcDKK/aDvTQP5BzvObQEBFZcgoaUhwG+jkMQITOYxldIU83TB1bUr2DdlLTkJNc/6SW+VaSiIjI/CloyOIZ6KLOq1aD1DTiTjcNlTPt7A5x7fn+Abr2GBib3bqO2R0rIiKLSUFDFs9APz1Tuiy8EqWj4JTi5ez4RAT2N9LYmmwBaakhVTiqUSciIktHQUMWjTupVoQqz1oNUuHCwDAOsCNfC0dymfiKhp7kDdszrqef/v3Q82q/VxcoIiI5FDQkS9VVEaCZA3NeiTXK3oYeqK9jhwdBw11Z9kGqjuWfY8OdOj2zm8TBOdZJJFk82tEHQ/sepBlov0UTfYmILBUNb5Us5bu76X3VoLbGmEfxZDu9yeJMd4hpzwz7N1NrzPwo7rol3Ti7p94X3WNQ2wrUdzLo5BSGVjbQ7eyga1cFjannkzUHh4iIeE1BQ6aoaXFwWhZ2jvICwWCxzXytU+fZEBGRpaOuExEREfGMgoaIiIh4RkFDREREPKOgISIiIp5R0BARERHPKGiIiIiIZxQ0RERExDMKGiIiIuIZBQ2Zqq8DIzltt4iIyEIoaMgU0eeagXZ2zGGq7vRaI3lWU3Xv6yA6i/O4a5oYk9uuLnLXWp3L+RYsuUibQpeIyPwoaAiQ/QFf2wokFyPL+tA3OohmraA6uT141WBysbOpq6k+2AqRrs8lF0Fzl2rPPT613cujyfMkt6dz1i+Zcr7s++oKnDe97UnFkyG6di1RWBEROY8paAiQXJvEGaSzHkitfjplm1wxNdI1mHVf9+7yvOcder6bHtp5IH1/OQ1P99JOO72p46PtkPw5fZ6+joxQMCn6nUZ6gJ6GiqnhobKBbsfBcXppn3KNyduuqnL3HThA9/5mapeqZURE5DyloCFpQ/vupXF/hM7P1pBuecjzYT9rA13c29BDe9QNKEP76pJdITXsaGvmwX3JTpHqHbST8TNDdD3UDK0HskNAXwe1rRE6U0vFH+skQp5l3wf6OQxsr8offgA3lKSWkc/TPSMiIotDQUOShjjw/R6gh8bNBoZRQeN+oLU23XJQt2/y4zirRaFA90T0O4301HfyuWqAKHszlo2v+WwnNOxNBokqquqh5/sH3A/8vr1u4Dk22YLCQBd1Nc20R1NdM0N0fbGRnjzLvrutHjk1JvnCR2UD3dF22N9IxZ4oebt1NrstKM01U5+n6jZERGamoCFJ7nLqk10NU7tRuneXpz+w26OT+/a2AfWdDKaObamZbH14yK2xGNr3IM31nQymai4qd1BXf5j+Afexd3wiAvv76U+1ZrQ9kFXrkeoymfzAzw1CbhdIdI+RbPVooiazZmNz/lBCdRO9bRE6b6liaMrvIKPVJDr1NhERmZmChkwvt0VjoH9qa0FBqdYRg4oGkqEj1WpQQeP+zPt7cAtQcwOEO4qlpiW7lmPq93Bgj0Ftazu9qYLUdM1GRgDKo6alm4bqcqbpaBERkXlS0BAgz7DS1Ad+VosGydaGHVNHfOSqbspqGYl0PZpsoZhsNRjsikBmUWjeLWcUyzR2tDg4zufoT9eWJEPNgmswIlTN8hpERCSbgoYAqVEnebpOMqVqJz47Y8xIG9p3L41beydHk2R0Z0y2Ykw/JDWzNiS9f01zzvdJAwfo3p8xumShBvrpmXkvEREpQEFDCki2PGR0N0Sfa85omZhU05Jnvgv3CPY2bKc3s8si3Z0x01DaQkNnC3edQGo4bapYNdkqs7+RioJFnFE6NOpERMQzChoyxeQsn9lbbes0o02mfFgP0bWrluacFovJ1ol++nNGtcx8zpkkR86kw0syzGQWqjpOdkFo3wGa9zeyty//RGRua8lkLUnekSgLGQIsIrLKKWhIfjkfzoW3PF0skO7CyK3BmJyQ6wDN9REiZMyLkTOqI/KJHXMr0Ew+5pR5NaYRfa4Z6jv5XHUNTdM8t6xRJ7lbgSJTEREB/3JfgKxSlQ10Ow0F744+10zkE4M8+ol7qfhOlIb0h3Vyfoz6TgbzzjbaTK0xWZMx+X37jI+Z5yo40Art0XzdPkzWpHRtp/GhLj6Xt3tIRESmoxYNyS+nrqHwlqyDmJMoB1rdacnLdz9K55HadJdKenbShwp9qE9To5FcdXbKteU+l2RXx9C+B2kuOFQ3SkdNcj6P3U30bk1N6iUiInOhoCH5LbTrJCVnobOOvuQHfHqIrLv2yfaGCup21VHR0JO34BRgqP8w1FdRcDxJekhtzrXlPpcWd4r1A9/vyb84W7q+pD1dyFrT0kt7a23OCBgREZmJgoZ4I9W6sLmfBzILMSu7uDdrJErqQx169vdA1gJsmZLBYK51GwWvz+0Wqbs592xROowKGve305uxiBzU0OS4gWjh83KIiJw/FDQkv4V2naRbFzI/rN36C5KtCO7oltSHemolV5KjVNwZQdNyg0F1U86552YIiNTXsSNzmvM9BoZRS3Nbb4FzuwWjvVvd341aN0REZqagIfktVtdJpr69NG7t5VHudYfLHkk9RsaHejqgPED/5skhsUNAe06XSnoYbk1zgS6Qwsqrm+hOFXcmu3fS1zPDKJKaFnfZ+e0NFVMDkYiIZDEcx3GW+yJkdvJ90Nu2nbVZloVlWcTjcWKxGI8++ihf//rXl/vSRUSm9aUvfYnbb7+dcDhMaWkpoVCIYDBIIBAgEAjg8/nw+Xx5W1ZlZVOLhoiIiHhGQUNEREQ8o6AhIiIinlHQEBEREc8oaIiIiIhnFDRERETEMwoaIiIi4hkFDREREfGMgoZ4zp3Bs4MlWfs0OctnR99SPJiIiMxEQUNcU5ZYn/+WtQbIQBcPtpJ/ivCclV3zbuml2Yfo2rVEYUVERBaNgoa4piyxnm/rpR2AjEXQ8mzdGauvRr/TSA/Q01AxNTxUNtCdcd5I1+CUx4pclVwUfuAA3fubqV2qlhEREVkUChoya0P7HqQZaI/OctXUvg5qWyN0HkuGh2OdRID2W3KOHujnMLC9apoF4Csb6D7WSYRmarVMu4hI0VDQkNkZ6OLehh5o66Wpenb719U00x7tTq646i4R35PneLfVo50dmbfnCx+VDXRH290l7PdE3XPuyulq2ey2oDTXTO2GUd2GiMjSU9CQWYjSsdkNA70zLKGePuI7uR/4FTTuB1prkz+7XSDRPUay1aOJmsyajc35QwnVTfS2Rei8pYohyml4OqfrJtVqEp16m4iILD0FDZlRdE8tzQBz6LaoaXFwou2k6zmmfA8H9hjUtrbT6yRbPdI1G8mtQKipaemmobqcaTpaRERkhVDQkGkN7aujthXao6lCUEh1WWSNLpmHHS0OjvM5+nelCkSTXSELrsGIUFW5oBOIiMgiUdCQwvo6qGjoIdI1OKULY8dDvWxvqJhFKGim1jAwappzvk8aOED3/ozRJQs10E/P4pxJREQWgYKG5NfXgVHTTKRrMGu4qquc8soamhyH3q2NVExbaFm46wRg6PnujOGvyTqO/e458xdxRunQqBMRkaKhoCFTTRsysqVqMZprMifXmq0hDnzfHcni1mUM0lkP1HcymFGrkdWa0neA5v2N7O2L0pFvgq+aZqCHxs3TjESZ83WKiMh8KWhIlqF9dbMOGWnVTe4EW621c5tqPNltMmVejWlEn2uG+k4+V+22qGRPFpYMKuSMOsndZjlyRkREFs6/3BcgK8UQXbvcrov2qDO7uTKyuB/8O/YY1O6qYvDphuSokGZqjcmajMnv25OjTBrm8BhRDrRCe7Qh/4iTvr007o/Q2bWdxoe6+NzTBfYTkRXLMIzlvgRZZGrRWCXyvTjn8oKN7qmgcb9bQzH3kDGppsXByfqAn6ZGY8r6KvlrNFJdHe7MpDkTe00+AzpqmqHtARp2N7m1I+oiESkqC30fk5VJQaPIpD58Z7p/ri/OmhYHx5nl1OKzNNR/GOqrKDieZMr6KvlrNNyuDreeI+/ibAzRtauW5owJxWpa3K6chQ7BFZGlNZv3sPm8x8nyUdBYRXJfeMv7QkwGg0/sWJzui2S3SN3NuWeL0mGkWmMyg1INTc5sh+CKyEqwst7DZLEoaBSp1AswN/3njsJYNrnBoLppQS0mQ0Ckvo4dGRNxRfcYGEYtzW29Bc6dPQRXrRsiK1u+9698P0txUdBYRTJfgMsdNIaA9q5HkwuqudxgYCRHteTrAimsvLqJ7lTtR3JNlNojyS6WGUaRuN1CydYNo46ugXk8IRHxXO77lkLF6mA4juMs90XI7KT+qTLrGmzbxrbtrO8tyyKRSBCPx/nmN7/J17/+9WW+chGR6X3pS1/iU5/6FOFwmHA4TCgUIhAIEAgE8Pv9+Hw+fD6fWjiKkIa3rgKFuk30AhSRYqP3sdVHXSdFLl93iV6gIlKM8r2H6f2s+ClorALTFYPatr3MVyciMjPLsrK6RkDdIquFuk6KiGEY6TqNzBdg5m2O42AYRro/c3R0lD/7sz/D79c/tYisTLZtMzY2ht/vxzTNvPUY+Vo2FESKg4pBi0y+gtDMwtDU11QxqGVZxGIxJiYmiMfjJBIJLMvCsqx0a4f+F1j5TozC4y/AwGnvH6v+OrjUhGP/DdYVcOl6uDQB3+8H3zq4phy2AD8fhJ+PAJfBR0IQPg3f+TV88L1woQH9r8FbAbi4HK67AjaNwstvQd/b7uNUroNSP/zfN2BsHbzrAviDC+C5fvjlCW+e244rof5/zP0423Y4eWqEgN9H2Ya1i39hAIwDxzn8r0d4+chxzqwNgmHgw8IhwdhZGwyT0JogPsDAwsZk1Kli2/+8mhvefwEbzvXz0guv8ctXjnNq9CyJ4BrMQJBQobZrx4bEGOdiBjFKWV9yGVtu/B9c877LuYTFbfI+NTwCho9NG9dlhQafz4dpmvj9fvx+P8FgkFAoRDAYxO/3EwgEVAha5PRnbhErNLmNYRiYppkOHn6/H9u20y/qVMjIDC2ZX2XlCSXADIAv4P1j+cNw6cVwxSYYcSDsh41BuH0jGD4IB6EE+F8b4AYbCEDpOLw2Bj4/vHAc/KWQ2Ay3VsC1G2B9CPzrYdMm2P4e93F8MXjjFLx0EibG4M034ekTcDrm3fP0ByAUmvtxtu0QCk4Q8JuE5nOCWXGAIMF1myl/z+XU3Hwl6/0+gpzDsd7k8PPnoGQD7/69y1kL+DnN6NmTHD4UZ1MwSKhkA6HQtbzvxivZXHWc4y8eZOTy7ZRe+i6uKpSN4mPw5kv8f4MBXotdyv++7jIuvmgdJaEQfmAxPsZT70uhUDz5NTSlhcI0TUzTTI8yma5VQ4qPgsYqknoR+nzu3yGmaaZvdxwn/ZeDZVnpVhBQwCgGIRvMoHcfwBdvgsoNcHkItlwIAQveOgFHEzBmQNj9X4kLNkBFCCqBt0bh1TPu7XYMhkaAAIxYwAT4gnD0NKwLwTXrwRmDt0fhv5PHVJXBZZfCrQb8fMjd9y0bMLx7noEQlJTM/TjbdgiHYwT8JiXzOcGshQgaE8TPnmHgNYeQz8DPBI4zwjsj4zAxhv+/Y4QAkzFisXFOJ8ooD4YIl64hzBrWrIUSYiReczh95k3ejCVwCmUjKw5nznAqXkG47GIqK8vZuNabX34oHAOM9O8vX6tGZstGbtCQ4qWgUaQy6zEK3Z8KGgDBYDA9x0aqNUNBo3iELTdomEFvzr9pE7z3Uvifa+GCEAwNwiuvwS/DcM4PJck29Mv9ENzoBo3Bc3A42Q0SG4fRGBAAEwj5YT3wxmm4YC28Owj+URjKOGZNGVxTAe+9wA0l1htgW3BqAsYsb55nIATh8NyPcxyHUHiCYMAkPJ8TzNp6NqzzEWaYgf8axn1lWjjEOXfGBp/J2dgJTJKtDb4wrLuMcNk61oTDlCZvt0JBQgGLc2+9wRvjJ3lnuq6T+Cgj68tZf1EoOYeFN0EjHIqBYaR/f7lBI3NLhQ51l6wOChpFJrMgNPf2TKlWjdR9Pp8P27YxTVMhowiluk4Mj16xA2/DO8PwcxM+sRXWByEYgmuugssvgfetSV5HAEqCUAp8tAxqrnFv7/9PeOm38DxgAVeUw86tUGHCRWFYGwZfCZRdCL+XPGZdyN3MMHzsd6DmSpgYgadfhcMe1Wj4A/MLGrbtEAqNE/B7GTSCQAlbP3AJV90wQRySQeMsjjVI349GoLSMq2++knWAGwd8YIZZsyZMaTiYfkNPhEoJ+i/gqt/7Xa4tv4pr1hd4yNgoDP6cQ0PreY0gwVCIcNibNBsMjWPgS3edpKTen3IDR2bQyEeBo3goaBSxzFaN3NaN3OGuqaCROdw1M2QocKxsgQD4THfzwkTC3U4BY0BZAHw+GD4LpWUwdiFcaUL/KfjZ6+4xl18E79oIF1rwqwC8abp/TfuAkQl45U0Y8qU+EF3vvhjesxFGXodfjcPxjPscC6wJeCfh3fM0A+7vcq5s23HrB/xuHYEXrIkRxt/4FUcHz/LGcCzjngkc5zRvnRqDcyP4jowRJrtQc92l7+Hize/myjIImhAI+PD745x9c4CzZyaIT9d1cvod3oqXYm4MpGskFpthGAQCQcAgGAxm3Z76mhk0MsOHWjOKn4JGEcod5jpd2EhtqRoNhYviFAiC6feuRSOTPwh+2w0ax9+Gt00w1rjbK6eh7w13v7EghEtg/By8HIf/Sl6bAbw9Dj/5DWwKQRhIxOGdCfiQDy7dCMePwksT8KuQG0Ri4zA6ASO4f8V79Tz9fgjO4w92N2gECQbMrA/KxRSfsHGGf8Px197iP98Yz3x0HGKcPe12nZweH5rsOkm60NmEc/G1XOWHYACCAT8BM87I0G85Nv4mbxfsOnEgfpYz68spuyhAMBj07Pm5AcbICjK5ASJf4We+kKHAUVwUNFaBQvUaqe6TzK6S1M9SXEwTDNMd9eE1nwmm4QYNA3jrFBz8Fbz4bvhfFdBypbufNQa/PQl7j8KxsznXthb85fD/XA5XASfehq6jyXMnt+3vgtr3QKUJrx+BX/TDT4G4x89tPlPK2LaTVazoBXP9hQS23cYt741zYzxzor2zONZxDj57Bko3suVDV7GB7DfvQMk6QqV+1gbBZ4BphjB9G7mq5kauvfQ9bCnUdRIfhYFe/s/gBv4bE9P0e/f8TDceZRapZ8oXNnLvk+KkoFGkcms1Ck3mlXl/ioJG8TF97ge5Z0FjHVRsgJs3wbUXgDUOgXfBLWuTI0D8wIVw2TicHYZXLoKqErjyYrjZgHELYjacGocNIQiXgm8tbPRB0A9b3gWRNbBpLQQT8J8GnD0LpQPwug8uK4Pq69wi0zd+C785Bf/lwdM0fG6AmrtU0PBl1T8tlomT/Zw83s+RNyaYiOfO5juO4wwzeHIMzgxjvHiOMG7R7aQgoVCQSy6G4dMxThx/i3feGGUs3k/o1CgThcpKrBicepvBd05xNnGOAz8+zru2XEvluy6jIuwGzsVimu7sH6nf33RBI9/thX6WlU9Bo4jlCxvAtIEj336y8qX/Kb16jy2BCy6C2suh1IIBB0YvgusugvKMD6ljx+D5o3DgSrilHH5/PVRf7t53Ng4D5+DSUljvBzsBB4/DOyHYdilsvdSdO2PoFBxOwBtvAm+6x976PvhAFdwE/PodiA17FDSMjN/lXI9zv/Pkg84aeZtTv32Zfz9yhnMT0ywbEBvmzC+O57mjlDVrSnnve2Fw8BxDQ2NAKQy9AUNvMDjjFUywlgl+deQMVtkllF5aSXnJ/H5XhRjJlFwoqM0mUChkFCfNDLpKFPpnnM0/r/4XWPkGR+ArP4HX3vHoAfzuaJILg26RYdyCcxasDUAg4709NgFjE3Am5IaJDRl/VtuO26oR8CX/EnZgJO425ZcEksWLjnvut0Yh8w/3shJYG3L/8hkfhXMxt15jsUW2wL2/O/fjbNth6K1TBAMmF27asOjXZU+cY2LsHKfHLKx5vR59mD4foTDEYzbxxHzWODIAk/DadZSsKaHEXNxc+9aJYcDgkovKCl+BRpisSmrRWCUKtVLoBbo6GAYwz7/GZ8WC8TEYGMu++cxY/t0Zh2Hcbb4yn8vpcXebvNObxhuDBbRoeDg7pRleS2l4LaUbF/3UK4aR/J94Lr8/vX+tDgoaq0y+F+ZMLRZ6Ma98hkcfvOedhXSdaBpsT+n3unopaJwH9AIufqkWDaWNhVlQjYaCxoLMp0VDVoclGCwnIiIi5ysFDREREfGMgoaIiIh4RkFDREREPPP/AyhSI/ii7V2xAAAAAElFTkSuQmCC;" vertex="1" parent="1">
          <mxGeometry x="200" y="80" width="497.85" height="248" as="geometry" />
        </mxCell>
        <mxCell id="KDGDrF34WBt05ubvqvvm-2" value="" style="shape=image;verticalLabelPosition=bottom;labelBackgroundColor=default;verticalAlign=top;aspect=fixed;imageAspect=0;image=data:image/png,iVBORw0KGgoAAAANSUhEUgAAAuQAAAC1CAYAAAAX6eoeAAAgAElEQVR4nOzde1xU57U38J8XwgQNIxfBQMgUY6xyiSM0iqiYOFASFYzRGEWDvIkpklY5baKiVtvK0aAm5xz0NMCpJ6+SSGhiagRBfXFy6l3TA27LJdaakikOEQSGMUrGEOP7B3m2e8/sPReYARzW9/PJJzrXPRdkPWuvZ61B69atu6tSeeNR1UMgxFlOntCDvleEEEIIIbYNBYBHVQ8hbsYjfX0sxI2cPKGn7xUhhBBCiB0G9/UBEEIIIYQQMpBRQE4IIYQQQkgfooCcEEIIIYSQPkQBOSGEEEIIIX2IAnJCCCGEEEL6EAXkhBBCCCGE9CEKyAkhhBBCCOlDFJATQgghhBDShyggJ4QQQgghpA9RQE4IIYQQQkgfooCcEEIIIYSQPkQBOSGEEEIIIX2IAnJCCCGEEEL6EAXkhJA+V17GIXvzAZhMnX19KIQQQkivo4CckH7AaOxARvq7KC/jJK8vyNfyAWt5GSd7OzkmUyeyNx9AQb7WGYfr9OdpaGjFsYoafKqtddGR9R5bn2V3FeRrkZH+LozGDtFltJAhhJD739C+PgAyMN248Q02/+5PmDkzHLNmq13yHEZjB7LWFKOuTt/jx4pPiMDqNXPwqbYW23JKu/04gaOU2PFWClQq/27d32jsQGlJFerq9GhoaEX6Ck23j6U/WZYWh+bmG6isrMdMTTgUCg/J293Pn2lBvhZF+85YvU3KkljJz9Ro7AB3QQf1RBWUSi8AgE7XAq22FmlpcbLvFyGEkPsDBeSk19258z32f/QZ/vLZPzBzZrjLnkep9EJewcs2b8cCpdxdqVCrVTZvHxYWjJzti/jAyF4cp8PWLQcdug/QlXVubr6BgABvBAYqkVfwsii4sycob2oyorq6AWlpcXY9347th3Csokbyermg0RZ7AlIAss/LAt/7+TNliwDzAJq953Lq66+jrk6P9Ix773ttzVUAQHjEIw4dMyGEkP6HAnLSqzo772D/R+ex7/1TfX0oAO5lGVOWxNoVuDlTQb4Wzc03sHrNHIfvm75Cg2HDPDE9bhyArtex+o0iNF0zWr3ftpxSq9lgFjBu3DQPGzfNE11nK2i0h1xA6kx9+Zm6gsnUidKSKsQnRGDcuCAAXa9xz54TaLpmROrSPJuPsTYryWVnogghhPQcBeSk1zQ2GvDOf1bg7Nm/Y9LkMThz+nKfHo/J1InCvSfh5zscixZP6fXn/vGPH0bRvjOIjg7F1GljHX6MpS9N4/+sUvnjw49WyT7Xju2HoL/aBuUIL6zfMNdmJpjjdDh/7oooE377dica9QZER4eC43TIXFlo9TGK9p2xO/PMMs3mpR+sRCUo2MeuQL4vP1PzRVFdnR7bckpFZxSOVdTIngEAus4+mGNnN9ZvmMu//iOHL8LPdzj+sHs52ts7sPqNIqzfMNctFiCEEDIQUUBOeoXJ1In/3v1ncJwOWeuS4e//UJ8H5Hv3nMCxihrk7kp1uFTBZOrEztwDVoMroZQlsZgcM4b/u0LhgaeeDkPKkq+wZ88JBAX7AAC++eZbZG+Wf1ypkg9bJSR795xAo96AbTsWo77+OrLWFNsMkk3fdEKrrUVIiB+fWW1v78Ddu3cRHvEIVCp/HD+50fJ+PwT/AQHessek+7IFGzd+hLS0OP6xfXyGAegqwxAG5KxUIyk5yq6sel9+pmxRxBYRSclRoqx0+gpNt0p9jhy+KDrzwXE6vhxHqfRCe3uHlXtbEpYkUeacEEL6BwrISa8Z8/govLL8KQQF+YDjdH16LCyoASCZmbVFofCQLOuw9Zzmnnl2ArTaWtRUNwAAHnzwAYvHdTRLzLDAq7q6ATveSoFS6QW1WoX0DA1eXb7b6muOmTIGaWlx2JZTiqBgH6jVKtTWXMWgQYMwYoRjga65UQ8rERkZItrAOWKEF/x8h6OhoVV020a9AYGjlHbVSfeXz9ScVDkRq4c3GG5ZnGkQlvUIXxN7rK1bDrpNOQ4hhJAuFJCTXqFQeGBxL5cQyBEGNQCg/aHVXnkZh8rKepfXOAsJs6qnT1k/Y9CoN+D27U67js28pCRnawmfFVerVdjxVgpWv1EEjSZcNms7a7YaDQ2t2LrlILKzX0BlZb2oy0dBvhaTY8Y4HBh6enogIMAbWm0tmpqMUKn84enpgaBgH3AXdDAaO6BUesFk6kRlZT38fIfbXAT0p89Uiq/PMH6BoNO14E3BRlDzALy0pArAvdrx8eOD0Ga4BaDr5ygmZoxkOY5cCZF53X53Fh6EEEJciwJyMqAYjR3I2VqCyMgQLEuLw949J/jroqND0dDQitSX8uzOrtqqpe5u9w6h9vYOtLbdRNM1I+rrr1sNgMvLOGzLKUXgKCUK38+ASuXPZ8qFWXG2ECgv4zBjerbsZstFi6eAu6DDz17dDQDI3ZUKoCtYHDbMs1uZaACYHDMGRfvOwGC4BZXKHwqFB6KjQ1Fd3YD29q6AnNWsCxcBUvrrZ/rn/6nDtpxSrMpMtPmcUj7V1qJRb8CK1+L5Ti6BgUr86vVZkre3t6MMIYSQ/ocCcjJg2Cr9CBylRPoKDSbHjEHq0jy72/vJ9aEuL+P4bKctxR+c5WulzdXWXIWf73BERobg/LkrkkEXa/OXsiTWorabZUQL8rU4cvii6DXNmq3GrNlqcJwOiQk5Fq9FqfRCeoYGmSsLERYWjNDQkfxjLnhhMurrr6Nw70mbGWjWupEJDR2JsLBg0esJCvZB0zUjH6RLtfoz198+U2Gf9JQlsdj+Vgp0uhb88Y/nRN1QAkcp+T+bb/SMT4jA7duduHSpEVnrk20eKyGEkPsfTeokA4IjddhqtQolh14Hd0FnMRnRFQrytRg2zBNhYcEW17GyDfVEFZKSo/iSDnPpKzQ4fnKj1WDT2qZCtVqF4yc34sOPVlkEoT4+wxA4Som6Oj3q66/zlysUHkhdNh3V1Q0OT9g0L1ERPk+j3gAAOH/uimgRYK6/faasbGbd+mSEhQUjJMSPv87XZxgK38/A8ZMbUfh+Bnx/2MQKdAXgRyuycPzkRv4MhKenB371+qxuD5AihBByf6GAnLg9na4Fry7f7dCmSDZUSD1RheQ5b7tsEyobMS+VGQfutbybHDOGD0zlas3Z2HqpUerlZZzsOHuO01kdvy7s8lGQpxUFsyqVPzSacFRW1ts1vj0gwBsKhQdfotLadpPvEiLc2MkmUwYF+8DT0/Lz6o+fqUrlj23bF0NpVu+uUvkj/79e4YNrlcof/7EzFYV7T6JRb8DGTfP441erVaK/E0IIGRioZIW4NVZT3d3pkqzcgdVKO5NwMNDt2/LBsJ/vcISGjoRS6YWk5CiUllRh6rSxFjXMwmmcCoUH//irMhPh6zscpSVVmDE926LW+EHFA2jUG/DLzPcsaqOFLfaAro2DxR+cFb2Xwj/LBeXCHuYMK1Exb3XY3HwD174yorXtpmS7w/78mZoTlrBIOVZRIzmoqTsDlOTq3p2xj4EQQohrUUBO3BbH6bAtp7THm93UahU/dIeNKxeyNi1RqgyFHRt3QYec7YugUHhIBuRs4mRaWhwfTE2dNhalJVU4feqyRf9ouVHqnp4eiJkyBjFTxqAgX8vXbXOcDgV5WuRsX4Sc7YuQtaZY1KPcaOxAQZ5W1GIvZUksivadcbi7ilQ9OCtRYa0OWQYb6Aq6pV5Lf/5MpQhfEyPsAw44b4ombeokhJD7FwXkpN9xVqs6VhftanIbAK1Rq1UWgZoQmzgZGRmCmZpw/nKWJd+z5wQ/oAfoysSWllRBowm3ehzCjDKr1WaPy4Ly+vrrGDcuCDtzjwKAqMXesrQ43Lp1G6ZvbJenCDXqDRb14HLTRVndfGRkCAIDlaLr+vNnag+WMV+WFgegK7ivrKwHgF4b0EODgQghpP+hGnLSr5hMnfD1Hc6XULh6Q2VPsUyrswM3Nl1zVWaixaJk1mw1NJpw5Gwt4d+f+vrraG27iWeenWDX47OgV1ijzddYq1X885uXOigUXZsNY6aMkXxcVjYj3NDIFgu22heaP0Z0dGif1FK76jPlOB1eXb4bWeuToZ7Ylcl+8MEHsHrNHFRW1svW+BNCCHF/lCEnfUIu06lQdJVXqCeqLHpn3++EGWlryss4aLW1/HRNKcvS4tDcfIgvMRGWYDDPPDsBq98oQmJCjuRjsCywedDLcTqbz89ITaGMT4gQZfVPn7rMLxakbi9nW06pRX11fyvLsOczFXaDKXwvAwqFh6jWnrWlZD3hXf0aaTAQIYT0PxSQk35JofDA6jVzsGP7IYve2fcLtvlQaG1WktXFBRvqY2sRInx/duYelSzvkSsJsUUquJdj6zlYJj4tLY5/Pd05pv7C2mcqHCgUFhaMqdPGoryMw549J+xaVM6arcZMTTh2bD/E1/bTRkxCCBkYBq1bt+7u9LhgxM14xPatCbHTluzzoO8VIYQQQohtVENOCCGEEEJIH6KAnBBCCCGEkD5EATkhhBBCCCF9iAJyQgghhBBC+hAF5IQQQgghhPQhCsgJIYQQQgjpQxSQE3IfY8NkOE7X14dCeojjdFj4wk7odC2S1znzcy7I1yIj/d1+NQnX2usnhBB3RwE5IS5SkK9FeRkneZ0zgg+drgV79pxAypJYuyY7Go0dyN58wGYQVpCvRfbmA6Jpkveb8jKuW++vTteChS/s7JMx9ufPXYGf73CMGCEeBmQ0dqAgT4u1WUlOmeBpNHaAu6CDeqJqwAweKsjXYsb0bNF/wu+HtZ8Nk6kT2ZsPWHwnevIz7OwFFiHk/keTOglxAZ2uBVptLSIjQzBTE24xRdMW4dRHc2uzkjB12ljkbC1B0zUjivadQdG+M6LbSE37rK+/jmMVNQAgOdmzPzGZOrFj+yH+eAEgZUks0ldoUJCvFb1edrkcNrq+rk4vutz8fiZTJwr3nuTf08kxY1w6wl7IZOpEc/MNySD59KnLqKvTo65ObzElFOiaCsqmepq/N4zw+1Bffx11dXqkZ/Tu9Fu5YzOXujTP6vVrs5Iwa7ZacmqqnNxdqVa/I+3tHaiubkDxB2d7ZSqwj88wxCdEYOuWg3ZNcSWEuD8KyAlxMqOxAzlbSxAZGdLtwFetVuH4yY0AugKZ5uYb/GOxYLW17SYK388Q/TLX6Vqw+o0iaDThFr/k1WoVCt/PwOo3irB3z4leCTx6igVf5tlJFkyXl3FoaGgFANGYeinsPixADwnxE12/d88JHKuoQe6uVJw/d6VXx9c3NRlRXd2A9Rvmij7vS5casS2nVBR0M+yzFgbx6Ss0Fp8rx+mwdctB/u/nz11B4CglfHyGufx1CUkdG3BvwfTQQwp8qWuBr88wTIz6kc3v56zZasyarZa8rryMQ2lJld2fn0rlj/Ub5iJzZaFTFmJSC0o51hYgubtSe21RSAjpWxSQE+JEJlMnduYeBQCsykyEQuFhNdtt/svYPLPNMqfR0aGiYLy6usEis8YWAhpNuGwwo1L5Iy0tDttyShES4icb0Liz+vrrAICp08byl7HsLSsLGTcuCM3Nh7Az92ivnE2orbkKP9/hCA0difPnrgAAdF+2YOuWg3j1Z0/j9KnLomMRLrwcWVixcpWma0argWB8QkSvvG62WNjxVgoMhlvYuuUg1m2YC4PhFjLS37UaULP3oOmaUfbxk+e8LXud+c+aWq1CypJYpy7EbJ29IYQQhgJyQpzEPFhmv9CF2W5GGIhYO13d1GSE/mobUpdNBwBcutSI6uoGvPhijGxAVVen50sDpDKrs2ar0dZ2E76+w3v0eh1hMnVi3/unMX58EJ6c9Bg8PIb02nObH0dpSZUoq8yC8ZQlsfwCRaHwwOo1c7Bj+yH8MvM9l2bKTaZOVFbWW1xeU9MAjSYcS1+ahqTkKGStKcYvM9/Di4ti8JtNH3cr2Dt96rLkmRWWpU5KjuqVRZpwQfHhR6sAAAbDLf56tVqFnO2LkLWmGOqJKsnXqVL58/dl2M9go97Qrc/smWcnoLn5BkymTtTXWy6kpUpu2M+h1M+akLX3mF0n91oJIe6PAnLidu7eBf7+96/wQdFZcBd0aGu7iQceGIoJ6kexOCUWUVGhGDTIuc8pPEWduysVKpU/v6GzJwFObc1VBD/ii8BAJYCuQOXDj1aB43SiAEDqlz07bS9l6UvTun1M3dXYaEDh3pMICPDG8wsmITExslcXBYB4gSOsLWelMUIKhQc2bpqH8jIOyXPelryNM1y61IhjFTUICwsWXT57zkQ+Q61UeiFrfTJWv1HU7WDc9E1X4N90zQiD4ZYoIG9v70Br200EBfv0/AVZwc4WxSdEoPC9DKsZeKXSC3kFL/MbIG0FvMC993JtVlK3FlAqlT82bpoHAAgMVOL4yY38z3ZAgLfoPbdnUd3cfAMZ6e+K9i/I7QVg17GgX2ofCCHEfVFATtzOiROf4183f4LwiEewctVPoVR64Yt/NOOTA/+L32zcj+07UhAWHmz7gRygUHggOjoUSclRUKtVfAeU7m7qBLqyZqUlVair0/O1qCwocURDQxteXb6bP7VvLbBhJTKNegNu3+50WsmCQuGBn/8iAWMeH4U/7f8M+e8cw7u7/4yEn0bi+flPYvToAAwe7ORVkgS2wFEoPJC1phitbTcx97lobMsplQ2SwsKC8d77GXhzawkaGlqdnsFkJSpyhCVPbENv1ppizJieDcD+OuOamgb+e9SoN4juw7LTrqorF2bEc3elInNloWx9tbUzP8lz3kZYWDDiEyL40jAp1j5Pc64sKwkI8OYDfMqQE0KsoYCcuBWTqRP/+5d/YIL6UWz6zfPw9n4QABD9k1A8ERmCrLXFOHv2704PyAFxJvzI4YuIjAzBwoUxSH0pT7bOVSr4YAEz64bBAgaO06Egz/F2fCEhvvypfWtZc6HWtptob+9wapmGr+9wLF48BQsXTkZ1dQP2f3geR49cRNmhCxg9OgAvvzIDkyaPgaen6/5ZamhoRXV1A0ymTuQVvMxf/qvXZwGAbDYUgOj2zsK68Uh55/cVOPhJJeITInC0IotfHJlMnfyCSlhHvTYrCeERj8jWVe/MPYq1WUloaGhFZWW9aKHYqDdItlx0FmF5CcfpHMr+ymWi5y+YJLqd+eZne7FWl+w9o7pvQkhfoICcuBWFwgOvvzFb8rqHg0bg4YdH4Lvv7rj0GDhOB622lg8gzOtc7cFqna1hGUPzy4SZQfMyCFtu3+5Eo96ApmtG1NZcdcnp8iFDBkOtVkGtVqGt7SaOHq3Gn/Z/hl9v+Ahrs5IAgH8NxypqRK9HWMMr/LNWW4uYmDE2n3tZWhyam2+gcO/JftH6kS3cXnwxxiJj/NrPE/iFAsNa/bFFm/n3i/XEFmbNzQNa9vemJiNUKn++hv1+7ksubKloT2cT4YKAvYcsS+1q1rL36onUUYWQgYoCcuKW7t4Fvv76G1xtaMO1a+2oq9OjqvJLfPFFk0t/6el0LaIWc/aQatF26VIjGvUGxCdEyN6vJzXkcurrr/NlHKydYG+bNVuNmZpw7Nh+CNHRoaK2h6wPOfsza3vI/nzORvmHQuGBpOQoZK4s5MuL+orJ1ImRI73xzLMTUFtz1eptWcBpni23B9t3wISGjoSf73B+wSVsudhbbHV5MRc4Sil7XXkZh6J9Z+yqMQcs20BKketdb21TJ3CvO401UnsRemsxQAjpvyggJ26n6ZoRu3YexcmTfwMADB06GD8eF4Rp08fi22+/c9nzCgfLWAsg7HH+3BUkJUf1elB8/twVREaGYPbsiXj33T/DaLQsW5Fq4xgWFozfZc9HQf6nFhlK8wDkzp3v+ZKVs2f/ju+++x6jRwdgVWYiJk22neXuqdDQkQgLC0ZNdQMK8rQWQRdjHnw5uxWgQuGB5+c/CQCSAfnt2+KNwuZlFMKFiSOUSi+oJ6pQWlKFqdPG4sjhi3zLxd7SnZIVKew9WJuVhG05pVbbHJo/vzVsQylwr4wJEA/Usrapk025Ffa6Fz6mtecjhAxMFJATt3LjxjfYseMQLn3eiI2b5mHS5Mfw0EMPYtAgoOX61zh9+u8ueV7hL+1t2xfj3/6tHIB9vZIZFkwIgxW5Ee6NeoNTjluna0H9P5rx1NNhfI/qpOQoqH7kj+HDFTh96rLTOosIy1Oam2/ggQeGIvGZCd3a1Gk+1Kc7fH2HWwRB1mrIe5unZ1eXF7YpkBF2KvnZz2bCZHJ88+0zz06AVlvLf+dyd6XeV+Uq5p9TeRnn1Ay5ECvjSkqOsvt9ZveJjg51aKIoYLt9IiHEPVFATtzK1attqK25iuS50dDER4jaGxrab6G15WuXPG9TkxE3b5qwfsNcfvAMIN0r2ZyjUwWZntaQCztfPPV0GE6fugyga2AO6xpjvvkPkO6rzkgFkEBXAPX7/6zAsYoaBAR4Y8Vr8VbbHgqDIPPHaW6+0aOA3LzFH8fpUFpSJVlq8P57pzA9bly/aD3HAvGwsGCUHHodSqUXH5iy0h4p7HNev2EuX6IjHBCVsiS210t3elKy0tuLJta7PTziEbvvI/yOqdUqzJqtFk2Slfo+sbKk9AwNBeOEDEAUkBO34uExBJ6eXRMtv//+ewwZMhgAcPv2dzj4SSUMhlu4berEnTv3rnMGlcof27Yvlr1eGPT1tOSBbcITdoNwtIb8QtWXon7WrE1jWlocHwxMnTYWpSVV+FRb65QseVCQD97MedEpg4G60y+7aN8ZvgyFBaFGYwcK8rSiqZ2M0diB06cuo6Skqs/6QQtrmc3rx4ULKqnPhwV4UuUh7PMG7pXm9OYZgZ6UrLD+8OakFqjWnt8ewvalbBaAPaTaSM6arUZQsA9Sl+aJyrjY5+jnO5xfaBFCBh4KyIlbCQnxQ/RPQnGotAoPPDAUT04ajebmGygrvYC7d+/i8cdHwXjjG3R23sGQIYP5VoKuPkXcbriFRr0BqS/lORzcCQPJsLBg3DbdOx3eHXV1evxm08d8UMBq31nPdEap9EJ6hgZbtxxEeMQjPQpIFQoPvLL8KbtvzzaXmvfFZoN9pPplz5qt5oMcqZpsqXZ2xR+cRVCwDxa8MBkKhQdf+wvcq+styNdi9RtFkp9bQb5W1FHHGYTHWF7GWXw3zYdQmfcTb7pmtMikmx9z0b4z/OfPMu/WWgYKg/+eBu7mm0yddfuelqywrDbDXjMApC6b7tBCmu3FMA/i1WoVSg69jqw1xaIzWfb2kieEuC/npQgJ6QcUCg9kZj6Dec8/icPlHFa/XoSSTyqx4IVJ+I+dqXjiiRA0NLTi5k0TgK7phUHBPnh1+W6+ZZwrPPV0GPIKXoZGE44jhy86dN+UJbE4fnIjjp/ciLyCl1FTc9XhU+iAeER77q5UPnjdu+cEGvUGrMpMtAg61GoVNJpw5GwtgdHY4dDz9USj3iAZ0BgMtzBo0CCn9MsuL+Og1dbaDLaWpcUhMjIEq98oEn1HWPmMo9lTRzw//0lRgFmQr0ViQg4CArxx/ORGURDHWmWyTHpewcsW950xPRvcBR1KDr3Of/4sSGzUG5CYkMNPmBVigf5kO1pL3o84TofUpXnw9RmGC1VfQqdrgcFwC5GRIQ4vtthejOjoUMnvVfEHZ1FXp0fgKCXGjw8CAJSWVIkWg4SQgYcy5MTteCsfxC9W/hS/WPlTi+tW/cszor/HTBmDmCljUJCvRerSPJdnqqSyi9Y6qZjfnk3v1GjCZYMEYU/mlCWxFhlD9hpZprW6ugE73kqRzSx29e4+hFeX7+6V0g32GpOSo/CptpbPJG7bvhilJVWiftnW3jtrg27Yc6zfMFf0eljtekCAN3+ZQuGBVZmJ+O/dfxYFWN3Z7Ncd5sN/5Or35Uo5pGrPzbGzAey5zPc0NOoNCAsL7nYnFkc2N9si1+2muyUr7P1hZ1DKyzikLs1DypJYyfeTkcvcC/diMMLXLzXoacf2Q0hMyHGolIcQ4l4oICcE9wLf0pIqjBsX5NIAS6pt4NqsJLtKZtiG0UWLp4guN2+bJhX4mwdsLDP+h93LrT43u5+10g1nqq+/jqBgH34zKcvkGo0dqKioxqLFU0SdK3J3pQKARTcLthiRyuybv1/CRUzgKCWeeXaCxe3Nh/SwshpHz1TYi72e+IQIFL6X0e3vpLVNuOakNiE7Y3BQdwdkOaK7JSvjxgVhVWYiZs+ZCKCr9GnqtLHIWlOMGdOzHTqGp2eGAQCSkqPg6emB7M0HcKyixupnyH6+Nm6aJypHAqiUhZCBZNC6devuTo8LRtwM1/xSIQPTluzzoO8VcWflZRwqK+v7xcRPV2IbS9MzNBQcEkKIi1CGnBBCukG4idSd0dAaQghxPdrUSQghhBBCSB+igJwQQgghhJA+RAE5IYQQQgghfYgCckIIIYQQQvoQBeSEEEIIIYT0IQrICenHOE7XNV2R01lcp9O1YOELO/nrOE6HhS/sdOnE0f5iIL1WQggh7o8CckIGCKng3mTqRPbmA8jefIBGd/+AjZgX/icM/o3GDmRvPiA5cIi9nwX5WtHlPVlAWFuUEUIIcQ/Uh5y4nYJ8LbgLOrum9jkTG6BSV6fv1v3lRoL3NuHUSnO9NTnQ2jEIpS7Ns3r92qwkzJqttpjiaU3urlTJSadMe3sHqqsbUPzBWau3cxYfn2GIT4jA1i0Haaw6IYS4KQrICXGS7g5QYeOy+xPzxQHH6ZC5srDXnj99hUYy2GWLnoceUuBLXQt8fYZhYtSPbAbG1ob4lJdxKC2psnsBp1L5Y/2GuchcWYjJMWN6vEAxH5dujbUFCI1ZJ4SQ+xcF5IT0Q+YZ3cyVhQgcpcRrr8XjnXeOoemaUfJ+TdeMFkHbjrdTcPTIX/mATy6wPlZRg9xdqU56Bc7HcTo+S2ww3MLWLQexbsNcGAy3kJH+rtWAWqdrweo3imTfNwBInvO27HWBo5Si7LRarULKklgU5GmddiYmZUlsr8E+uUEAACAASURBVGTcCSGE9D8UkBPiRCzwS0uL69FYdZbRZZlpYfbzqafDRM8lZB44MpMmPYak5CiLxxJm51lG/Py5K90+bjkmUyf2vX8a48cH4clJj8HDY4jd92WvU6MJx4cfrQIAGAy3+OvVahVyti9C1ppiqCeqJINalcqfv6/wmHZsP4RGvaFbQfUzz05Ac/MNmEydqK+3PIMgVXLDFkthYcFWn5OdCUhKjrL4HrHr5F4rIYSQ+w8F5MRtXfvKiIL8T1Hx/6rh6TkUM54KQ2rqNASOUvb1oQ1IjY0GFO49iYAAbzy/YBISEyPh6ztc9vZsMRKfEIHC9zKs1tazciG2AdJWwAsAly414lhFDdZmJXUrw61S+WPjpnkAgMBAJY6f3MgH+QEB3qJgWZjdl6sBb26+gYz0d0V7EOrq9LK173V1ej7ol1uIEUIIuT9QQE7cUkNDKzZu/AhjHx+Fzf+6APqrBux7/zQucjpsfXMhHh3AgYtUyUp8QoTo78cqauyqabaXQuGBn/8iAWMeH4U/7f8M+e8cw7u7/4yEn0bi+flPYvToAAwePAiAOCOeuysVmSsLZY9Frqa6rk6P5DlvIywsGPEJEdiZe1T22LbllNq94dOVZSUBAd58gE8ZckIIGVgoICdu6euvTZj7XDRefuUpDBnS1d3ziQkhWLf2jygtvYAVGRr+cldwJMhjzINiIdM3nfi3t8sxf8GkHmdB5UpWzI/F2Zs6fX2HY/HiKVi4cDKqqxuw/8PzOHrkIsoOXcDo0QF4+ZUZmDR5jKi8hON0DmV/5TLR8xdMEt2uIF+L5uYbDne1Yb3fWS061X0TQghxBgrIiVvy938IMzXhoqD7sccCMWPGOFRVfQlD2y34j3zIZc/P2u3Zw54uK2vXfIDcXakwGG5Z7bRhvqmzv7RSFBoyZDDUahXUahXa2m7i6NFq/Gn/Z/j1ho8cet+6S9hS0Z6zAMIFAVsssCy1q1lb2KknUkcVQghxFxSQE7cUEOANf39xwD1kyGCMfiwAhw9fRPP1Gy4NyB2hUHjwpQpCwsBRmNU+fnIjAMc2dQrZU7LSn0h1jrHG2h6B8jIORfvO2FVjDtzLuFsj13/e2qZO4N5iyRqpBUpvLQYIIYT0HgrIyYAyePBgdHR8i2+//a6vD8WqgnwtQkL8+BpqZ7JWsmIydaK5+YbV+0uVr4SFBeN32fNRkP+pRdbZPKi8c+d7vmTl7Nm/47vvvsfo0QFYlZmISZPHWDxfd0pWpLDpmWuzkrAtp9Rqm0Pz57dG2H9eqmuN8LikXgebkBoS4if5mNaejxBCiHuggJwMKB0d38LHZxiGDfPs60OxitUl99W4dGdv6gQgKk9pbr6BBx4YisRnJlhs6nQ2884n5WWcUzPkQrdvd6JRb0BScpTdZULsPtHRoQ5NFAVst08khBByf6CAnLil1rabaG/vEAUqnZ138MUXTfDzfwg+I4b14dHJY1lcZ24UNC+pkMu4V1c3YP2GuWjUGyw2Kwqz4mq1ii+bMbdx0zzJ8huTqRO//88KHKuoQUCAN1a8Fm+z7SHTk5IVuTaErnL61GW0tt1EeMQjdt+nvb0DrW03ERTsA7VahVmz1Sgv47BnzwnZMwOsnCk9Q0PBOCGEuIEBEZC76pey1C9NR8dwE9doumaE9lgtlqVN5zd2/vWv/8TJE5cw7/kn4ePb/wJyYbmIydRpkWG1Z9qkVPCasiSWL3EwGjuwM/coVmUmwtPTAzu2H0JSchRfwqLTtaC17aaofMJZgoJ88GbOiw4PBupJyYpcfT5ri2jv89tDp2vBnj0nEBkZgsBA+3vdsyFHPj73vpOzZqsRFOyD1KV5opIf9h3w8x2OkkOv078xhBDiJgZEQC7HntPDcl0qTKZOVFbWi375Go0dKC2pgnqiin5R9rGhQwfjow/PobnJiBlPj8cXV5rw8f6/4LHHAvHcvJ/wQTrH6Zw6/rwnWOmCeqJKstzBfNqko5s62e19fYbh2ldGqH7kj9DQkchcWchnxGtrrgKAQxleeygUHnhl+VMO30+tVllM2HTG7XtassKy2ozws0hdNt2hrjbnz12RDOLVahVKDr2OrDXFon+nhHsACCGEuIcBHZAD1n8xs17FUpqajKiubkBaWhz/y7e+/jrq6vRIz6C+xH1t7NiH8S+/fBZ/LD6LTb/eD0/PoXhu3k+wcGEMvJUP8rczfdOJoGAfvLp8t1MmHY4Y4QU/3+GorKzHTE24Q4HZ6VOXXfb9YYtP81KUpS9NQ0RkCArytPinrgWlJVXQaMIl34fAUUpRFnegYuU748cH4ULVl9DpWmAw3EJkZAhSl0136DtkNHaAu6CTrTkv/uAs6ur0CBylhK/PMHz+eSNKS6owblxQv2plSQghpGcGfEDeXUcOX4Sf73BMnTYWQNcv1oK8rvpfe7pi0EAR1xG+r5t++7zV28ZMGYOYKWNQkK9F6tK8HmcflUovZK1Pxuo3ipCYkOPw/ddmJVk8f08DYVZKIdfjW61W4d9zX8KO7YfQ2nYTzzw7AYBlN5WUJbG9MprdntIce8md4epuyQp7T9jPb3kZh9SleUhZEitZGsPIZe5Pn7oMAPy/I4D49ccnROBoRRZ//Kz8LjEhx6FSHkIIIf2bWwfkUv2Bi/adEfX/tfWLWao/szCrxTLrbDNX4fsZGDHCS3bsNemfWBDvjOyjeWlJdwh7kPc0EHbkeNZvmMs/l7XNm67kjPfPlu6WrIwbF4RVmYmYPWcigK5a76nTxiJrTTFmTM926BienhkGAEhKjoKnpweyNx/AsYoaxCdEoPC9DMnvIKuJ37hpHh+cs244VMpCCCH3r0Hr1q27Oz0uGHEznFsz2p84e1MnO/3PMo4so5WWFodZs9X8QmAgB+Rbss/D3b9XhBBCCCHO4NYZcjlyk/Vyd6XCx2eYxelyYTaNnf4XPlbO1hJERoZgpia8114DIYQQQghxDwMyIGfYKV7zUdShoSPxh93L+QD8nd9X8NcdOXwRvmb1vOqJKjzz7ASLU8zbckolu7jQMA9CCCGEEMIMqID8QtWXWPjCTiQnR3Xr/hyng1Zbi/Ub5vIbOJVKL9kyGLlNdIQQQgghhDBuH5ALNz7FJ0TgP3am4vbtTpw+dVm2G0p9/XXRRs+wsGAAXf2C12+Yi9DQkb1y7IQQQgghxP25dUBuNHZg65aDePnlroEkAQHeUCg8cPt2JwDHS1ZYJtxo7OjlV0IIIYQQQtyVWwfkSqUXtm1fDJOp0+JyNkpc+PeC/K4ylG3bF/PXqVT+or8TQgghhBDiTG4dkEsx790rhfV/FurORky5TZ000IP0BWvtP82vYwNw3GkfBOspLvWzJ7wuMFCJHdsPoVFv6JXN12wisNQAI4Z9PtHRof3i83B2K1lCCBnoBlxALhysIWQ+iMUZv2TcKZgh/QMrrwoK9rEawEm5dKkRxypqkLsrVfY2zc03YDJ14uFRI3C0Igs7th9CaUlVv+kKxGYAODoEx2TqRGlJFSIjQxAYqJS8TdM1IwyGWwgMVGJVZiK/l6QnP8fm004B8b8LJlMnmptv8OV0RH5Sq/Df5fIyDgAkPxephVdPFhDsvgAc/pkjhBB7DbiA3Jww85SyJJa/vCBfS5kfYreejnt31iJQjtHYgYI8LVKWxNoVyLJx8dbGwd9PPtXWorq6ATveSrEZUCkUHlAoPGQnlcrNMZCSsiTW4jGE35HbtzvRqDcgOjpUdBu28DB3rKJGdLmrzrY58n2WOqPIsDOLAOx+z6xNKmUaGlqh1dYiPOKRXjnTOH36j/GbTR/TGQFCiMsM6ICc/dJZv2Eu1GoVX0OevkKDgnwtsjcfoIwIsUt3x72bbyh2leIPzgIAFi2eApOpE+/8vgLzF0zigxmFwgMBAd64UPUlUl/KkwzE7tczPmyYV1paHFQqf3CcDufPXREFVj4+wxA4Somi909Ldl+SKlnr7iKKLXaAro5OdXV6pGdYPo7w8aVKVtimdVew9n0uL+OwZ88J0TyGdRvm2gyMhft2hLoz2XhZWhyam2+gcO9Jp/wbLXUmQ0rRvjOyC5D4hAj6fUEI6bYBGZCzX26NegPfTcUcq6NNTMi5bwMRQoCuYKNo3xnk7kqFUukFjtPh4CeVOPhJpeTt7clQ3i9Mpk4U7j3JT9JlpSvHKmokA6uma0aHy2F6olFvAABRMJiyJBYhIX698vyOEJZ9FL6Xwf95WVqcXfXtwrJAKXV1esmzAoxwgaJQeCB12XSsfqMIn2prnfLvM+3tIYT0JbcOyIWnXdk/tiwTYs8vXXbKuiBfi4Uv7KR/rIlVjny3egsrVVmblQS1WsUHpFLZXXs2F3bHjRvfYM//PYGnnhqPiMgQDB48yGmPbcun2lp+c6ZC4QGO06G6ugGF72eIfpbNz5b1BpOpE5WV9fyCn2WKWTAulY2VKlnpDQX5Wmi1tfy/gcLOVWxfTnkZZ/XfyfQVGovvXE82D6tU/tBowgFIb9ZPXZoneT/2ntp6zvIyTnb/BDtLQL8TCCHO4tYBudRpV5XKX7IuFIDs6WfzXyTmbRPN2bqeuJ7J1ImSkiqUfFKJhoZWhIT4Ye5z0UieGw1PT7f+2ou0t3egte2mqONPWFgwVmUmWtw2JMQP3AUdbt/udGpAfvfuXXxep8fH+z/D6NEBWPjiZMTNGI9hwzyd9hxyGhpaUVenFw36WpuVZBFEjRjhBT/f4WjUG3otIG9qMkJ/tQ2py6YD6CpfAYCp08bi9KnLfVqyInxOthHYVnnOrNlqzNSE8/exFfCyxWFYWDCmThvbrWMUHhPbrN+TTZ0f7//M4syR8LtjThj0u3ofCCHEvQ2cyIQMGK2tN7H5t39CXZ0e8xdMwgT1o6iq/BL5ecfQ2GjAaz9PgIfHkL4+zB45VlFjtXUnq2cVLkpZFjg9Q9OrHVO8vb2w8TfzUFpS1ZVxfLMUv//PCiQlRyEpOQoPP+yDQQ4mzW3V+7KzFMLFNDsDMPOHrGpPWasnliOsRT9y+CImRv2IDxrPn7sC9UQVlEovu7LFbM6CK7CMeHb2CwCsv99y7wFbBK7KTMSxihqrGzqtBb1Cri4rmb9gEn71+iwAlCEnhPQuCsiJW7l7t+uX5eXLX2HLmwsxadJjAICYmMfx8MMj8If/+hSa+AhERDzismOwZ3OYOfVEx7Kyjm4gY7XUGk241QyweTa5J8/JDBoEBAX5IH2FBmn/Zwb+8pcv8Mfic3xAGxX1I6Qum44nJjyKIUMG2/WYjpYFcZyOL7mwdvxyswOknjNlSSwWLZ6CrDXFUE9UWc2OssVQULAPPD09+HaHSclRFoGftVpr85IV4bE4MzvLFjKsNMXex5fLRM9fMEl0u56UCAnfH6r7JoS4CwrIiVv5+utvcP7cFcROHYsnnniUv3zQICD6J6EoK/PFF1eaXBqQOxIs9laXlUuXGtGoN4hKVeRa67myW4Sn51BMm/ZjTJ36Y3z1lYHPmv9L5nsuq71npRGsywpgvXWhvccREuIHpdILSclRKC2pgtHYIXvmobbmKpquGbF+w1z+fWUtJdnGTkaq1tqdCPf22Lt4FS4I2PvDstSuZG2B2lv1+4SQgYECcuJWDIZbaL5+A5FPhFgElCqVP/773Vf76Mik9cZ+A7ax07xUZdZstag0ggVK0dGhbtFhhflUWwsAolIVqfe9IF8L7oIOoaEjHXr88IhHsGfPCRR/cFYykGZtF+3tAd8fOVqeI5zpIGQ0diBnawmarhnt2sgpHMpjjdTi0tamTsD24ktuQnNvLAYIIQMLBeSEuLniD86irk4vykZKnepnGxsbGlpF9y/I1yIkxA+zZqslA5/4hAj8LF2D327ab5FxNg94bt/+ji9Z+evFfwIAX7ISGRnitNfMsGC46ZpRVHMvVYIREuIHrbYW7e33Mt06XQve+X0F1m+YK5v9Vqn8kZYWh205pZgcM8YiwDty+CIA4JlnJ9h93HJnL6T0RltWR0tWpOh0LXhzy0GseC0eBXlaq+VBUs9vjXBxKdXtyJ5NnX6+wzFihPyCVe75CCHEGSggJ8SNsVplwHbgplR6QT1RhebmG3ztsLBjRnfdvQtRecrXX5vw0EMKpCyJ7famTnsZDLfQdM0om+kUCv+hjMlguMUPEMpcWYiYKWNgMnVC+UOFAutcExTsw993piYclZX1KMjTip6nvIzje8A7Wuds65h7q9zJGYSdT1jQ68wMuVCj3oCwsGCHznSwsiFju/1TWBmaU0EIcQYKyIlbUSq94O//EB9UCksvDIZb2LRxP5544lH8n5dnYOhQ+zYQ9gaptnbOwHpEs3plW1iWuOzQBezMPYqwsGCUHHqdDwqtZQatTWLM/t0B1NXpMXp0AH7+i4Rea3vIZgnYg50h+FRbyw8Pkgq2DIZbALqmezLCQTVZa4qRs30RTp+6jG05pXwP+J6wt22fq/SkZMW8DaHR2OGKQwTQ9V0rLaniu9XYq6GhFUHBPggIVCKv4GV+sSO3WZeVd7GBU4QQ0lMUkBO3olR6YcqUx/HH4rOorb2K6OhQ/rpLlxpRV3sVz837Sb8KxgHg9u1ONOoNCAjwdvlzsS4VUsEmyxLvzD0qur68jENlZX03u6wMwviwYGS8Ft/rg4HMsUDKz3e4RfaZnSEo2ndGtBBhwVl6hgZqtQqNeoNFeQPQVbqy460UrH6jiN8I6C7Z056UrKjVKot5EID1jjZSz28PVp6VnmH/ooWdRQoI8Oa/20qlF/499yXs2H4IGenvir4r1n5+CCGkuyggJ25l0KCuLO7//uUf+NfNn2D+gicx9scPo6ryS3y8/zNo4iMQG/s4gJ4Fmc7GyiBcNTJd2CpOasiL1KRDYUlGQ0MrGvWGbg0N8vZ+UHIQUW8RdvWIT4hA4XsZFq+BlacwrD0hcO+zadQbMG5cECor62UzsCzL3nTNCADYs+cEwiMesbtcheN0Fl1XgK4hQtXVDVi/Ya5dj2M+WbO72BkWV9y+pyUrUnsdivadcXjzrNx7K5xAKuy0Ep8QgaMVWX3+bwYhxL1QQE7cjp/fcGzbsRgf7/8MpSVV+Oq//gchIX74WfpMflKnydQJ3x8mM/4y8z2b9cX28PEZhsBRyq4BLw6WKLCNf+FObsfIgtG0tDjJ0g1hIMqywp6eHtix/RAyVxYiZUksnnl2ArTaWmg04b06UMgZWOeUP+xebnHs5osQFiCy96S6ugE73koRfTaXLjXyl0s9V9G+M4hPiMC/576E27c7kbWmGKlL8+zKMJeWVOH0qcv8d1EYrB45fJFvE8geS65DD8v4RkaGIDDQ/Vrzsc+turoBvj7DcOTwRSxaPAUjR3p3qx97bc1V+PkOl6w5Z5uCAWDy5Mdw/vwXOFZRg6TkqPu2Yw4hpH8atG7durvT44IRN8N1fZnJwLMl+zzuh++V8Je7MwaMmGdaHcG6QlgbDNPdxzTHjtPaYBVhpw97NkU6gzCb3VNy/dSFgbhcAGfep3xtVhKmThtrUVcsvJ3c8wlfk9TzCQN5qfsLs90jRnjxzyf32bJjSkqO6nZJhSu/g9Z6wMth75v5zyt7P1rbbnbr51fuvTI/oyQ8fuHPuLMHMhFCBi4KyIlL3C8BOdD3G+bI/YHjdHwXlfb2Dj7IdmSgEQv02AIHgOzmQbYgkgr6WFAotVAy30TZ3ziyYJD62eQ4HQCI3nNH2kQKrcxMhLaiBjnbF6G+/jofaNv7mQqDc1cO1CKEuD8KyIlL3E8BOSH9hTB7b0+NdXkZh9KSKotWi/1lbwQhhBD7UEBOXIICckIIIYQQ+/Sv3m+EEEIIIYQMMBSQE0IIIYQQ0ocoICeEEEIIIaQPUUBOCCGEEEJIH6KAnBBCCCGEkD5EkzoJcTLhuG9qPdf/UR96QgghfY0y5IQ4WVOTEdXVDYiODrU7GNfpWrDwhZ2YMT0bBfla0XUF+VpkpL8Lo7HD5uOUl3GYMT2b/y978wGYTJ0Wz1Nexjn2orqBPRcb5DIQCT9X4X/Cz7i8jJP9PDhOh4Uv7IRO18JfZjJ1InvzAYvviT3Yfc2/F4QQQvoWZcjJgMEmBEpNRXTWYwvHgW/LKbWYHrg2K4m/TigsLBh/2L3cYjS9TtcCrbYWaWlxUCq9RINjpKzNSsLxkxtlj/PI4Yvw8x2OqdPGWlxna1x64CgldryVgsBAJfbuOYFFi6dYHG9/JBxdb4u1128+XdOe0e/xCREofC/D6sKsoaEVWm0twiMe6ZXJmtOn/xi/2fQxnREghJB+hAJyQpxAqfRCXsHLdo0tLy/jJEeeS6mtuSoKoBUKD6zKTAQArMpMhFLpJRrpzh6P43Q4f+6KKOBiwX3TNSOS57wN4F6QrVL5I32FBukrNLLTH0tLqjBihBeamozQamvBXdDZ9Rr6mkrljw8/WiV5XXkZhz17TsDXZxh/2boNc20GxnkFL0te7shYeGZZWhyam2+gcO9Jp5Q4Cce5W1O074zsAoTGwBNCSO+igJwQJzEaO1CQp4VGEw6Vyt+u4Nwana4Fe/acwPoNc6FUeolGogcEeOP0qcuYNVuN0NCRAMD/3WTqRGlJFRr1BhiNHXxmvXDvSWg04XyQXpCvRXPzDQQGKkXP29DQiqBgH3h6SgdjKpU/dryVgtVvFGFn7tH7MnAT1o0XvpfB/3lZWhx2bD+E6OhQqwG1rbMJdXV6i7MgQilLYvnPQaHwQOqy6Vj9RhE+1dbaHchbI1xoEUII6f8oICfESerrr6OuTo+6Or0oWEtdmgdAXPJQV6fns9TmWDB15PBFREaGYNy4IBiNHSgtqUJQsA8A4JlnJ+Cd31dg6rSx8PT0QFCwDyor6zFTE45LlxpRXd2AHW+l8NnrvXtOAOjKxgJdWVStthY73koRBdPCEhnh5eZBukrlj/Ub5iJzZaEokJUqpZHK1ubuSoVarbLznbVUW3MVp079DXOfi8aoUSMcum9BvpZ/7SqVv6iWWqHwwMZN81BexmHhCztlg1p2NkGIZabXZiU5HFSrVP7QaMIBQLIsiX2HzLHvma3nlDrrIbxuz54TFMATQkgfooCcuKWma0YUFp7C8T/XAQAWp8Qi4aeRLn1OtVolqt+Wy5A3NLSKSgJYjfP6DXP5INU8YP5UW4ugYB/+PoGBSgQGKtHe3gGVyh/R0aEoLaniA3eWpQfEpSrmATML9NZmJSE84hGsfqMIGk04Zs1Wi7LAbJEgDNLVahVe/dnTiIgMAQBs3DQPGzfN46+Xel3ssp7q/O4OivadwYd/PIcpUx7HgoWTERkZgiFDpPepC4Pc3F2pNmunZ81WY6YmnL+PrYCXnZUICwuWrM+3h/CY2Hsp9R2ytyvMx/s/w8FPKkWXyS0CAXHQL8zgE0IIcT0KyInb+aeuBevXfYhvO7/Dqz+biYBAb5SVXsDnnzf2emeJpmtGUYb8t5vno7n5hl0dWIT3ZQExAGRvPsAH1uYB18IFO/k/F+07w9+PlWVER4fygabwz5cuNWLPnhNIS4vjA0+pLLC5pS9Nc+DdcJ7IyBDk7krF/g/P4+zZv+Pkyb9h9OgALHxxMuJmjMewYZ78bVlGPDv7BQDSGXtGrgyFbdBdlZmIYxU1Vjd0Wgt6hVxdVjJ/wST86vVZAChDTggh/R0F5MSt3LnzPUpLL+Dbzu+wbdsihI4OAABMmvQY3v3vP+PkiUuImTLG6c8r1WUFsAy6OE6H6uoGpC6bbvXxWLadZUOjo0P5x2DZU2tBljlbC5Fx44Lwq9dn8W32dryVAoPhFjJXFvaovMTXZxh8BBsmnWXIkMFQq1VQq1Voa7uJo0er8af9nyHnzVL829uHMXuOGgtfjMHDD/vwCwv2Htib/ZXLRM9fMEl0O6kzAfaSOgtBQTEhhAw8FJATt2Jou4Wqqi8xbepYPCoIbIYMGYynng5D2SHX9N9mXVaEWLkBw8oahOUktnyqrUVAgDeftZZq4WcrI7s2Kwkzf6hPFrZiPFZRw/85OjoUAHD+3BX4+Q7HiBFeMBhu2XWMcgyGW2jr4WPYw9d3OBYvnoKFCyejuroB+z88j9KSKvzt0lcu7wIj/Dzs6WwCiBcEws42e36o83cVW/sWCCGE9B0KyIlbab5+A436NsybF21RTxwQ4I2HH3ZsA2BPqNUqUbu9piYjbt408W0LGbm2fEZjByor60W3Z7d1dLokyw6z4Ny8ZIU9H3dBZxG4CQNNYe270diB4g/OYpnZBtD+zlq7PykpS2IlLzcaO5CztQRN14x2beQUTnC1pryMs+jQYmtTJ2B7o6xcq83eWAwQQgixjgJy4la+/fY7dHR8i8GD+24Ira1BNHJZSmFAZTJ1YmfuURyrqBFtxGSB3+3bnWjUG3CsosZpvaTr66+jte0mCt/P4Ns2WitZqa+/jqJ9Z/DjHz+MPxafk62rlgomWZC/8MUYtLXdtNhsujYrCUHBPhZZZ6mgUliy0tx8Aw88MBRJyVFY+GIMvL0ts+OOlqxI0ela8OaWg1jxWjwK8rSSQ6DkyAX4zKzZaj64l/oM7FmMsbMcUo9p7fkIIYT0DQrIiVt54IGh8PJ6AN9//31fH4rdtddSg1yamoyorm6QzWrW11/H3bt3MX58kMUgG7YgsGfjqND5c1cQGRli0Zfc2u3jEyIQM+VxPPV0mOg6864mcu+DvVljc3fufM+Xp5w9+3d89933GD06AC+/MsNiU6ezCTufsKDXmRlyoUa9AWFhwXyveXvvAwDGdul9DdZ0p2UjIYSQnqOAnLiVgJHeCAr2xeeff4XEZ+7Aw2MIf117ewda22724dHZz9p0SaArGE6eGw0AOHL4Ip8pZQOAIiND+LpxIWs15I60uWPlLekZGsmgn/VCX5WZiNKSKowbFyR5O9b3W9guUUjYRlKILWKGDh1sV9tDoZ6UrJi3ITQaO+x+HEexFpbqiSqHFXVVAgAAD6lJREFU6uBZz/iAQCXyCl7mNxyrJ6okP2O2gJP7zhBCCHE9CsiJW/HxHYbY2Mdx4E9/wUxNGL9Z8c6d76E9VitbRuIK9m7yc5TR2IHm5htYtHgKPD09sGP7IZSXcZg1W41PtbX8UCCpAFiuhvybb74VtVOUex2sE0htzVUAkMzcCieWzl8wCS35Wuzdc8Kpfa09hg5BypLYbg0G6knJivm+AMaZJStM8QdnUVenR3qG/e+bydSJ5uYbCAjw5j9/pdIL/577EnZsP4SM9HdFZ1xYlxfKjBNCSN+igJy4lSFDBuO5eT/BXy/+E/+6+RPMX/AkHhsTiOP/8zmOH/8cQ4eKM6gcp0NBntYl3Th6UrLCmNej5+5KRaPegIAAb/54V2UmImtNMf78P3U4f/4LrM1KsujiwmrOk5KjJJ/nwQcfsMhUy9WQsyx8UnKUxXvGat8BYNHiKfz/s9YU84sGZwiPeAThEY84dB+WjXfF7XtastLQ0Cr6OwuUU5bEOtRKkZU6rd8wV3S5cAKpcA9DfEIEjlZk3VebcgkhxB313c43QlzEz284sv/1Bcyeo0bxB2fx6/UfoqX1a/z2d/MxduzDotuavulEULAPXl2+GzpdSx8dsSWO02HG9GzkbC3BH3Yvx/GTG3H85Eb4+AzD8eOf88EuC4Dr6vQ4f/4L2UmR9fXXAUhntB3FylHMA2KjsQO/zHwPjXqDaIGjVHohZ/silJZUIXvzgV4fztSfmUydyN58AFptLXx9huHI4YswGjswcqR3t6Zl1tZchZ/vcMnPWadr4bupTJ78GICusqVLlxp7/kIIIYT0CGXIiVvyVj6I5a8+jeWvPi26fHKMeChQzJQxiJkyBgX5WqQuzevREBxzPSlZYYOBhFhmesaM8VAqvfgsalhYMEoOvQ6l0gscp0PynLdFQ2ZY/3NhLTLL/HYnODZ904mYmDGizZ/CjK5UEMn6tBfka5GYkNOrJRLC4Ts9Jff96E7JCsuYsxKjESO8kLWmGFptrdUBQXKZe1Zzbn7mQvj6zY9feHamOwsAQgghzkEBOSEAH4hY24DoKGeUrAhdutSIgABvAMCM6dmS5QYskBdODv3V67MQEODNZ9UBcSlMWFiwRW90a9giRvg4kZEhdpU+pK/Q8CUsvTWunQ3fcaXulKwoFB5ISo5CUnIU/x7kFbyM8jJOtu+4NSt/+AynThsr+k7l7kqVff3ChR87KwM43jKTEEJIzwxat27d3elxwYib4Vg9JiHWbMk+D/peEUIIIYTYRjXkhBBCCCGE9CEKyAkhhBBCCOlDFJATQgghhBDShyggJ4QQQgghpA9RQE4IIYQQQkgfooCcEEIIIYSQPkQBOSHkvsNxOix8YWe/mq5KCCGEdBcF5IT0cwX5WmSkvwujsaNXnmugj7cvyNdixvRs0X/C4N9o7ED25gOSn4fJ1InszQdQkK8VXd6TBQQb2MNxuu69IEIIIf0eTeokxAnYFMZjFTU9fqywsGDkbF8EpdILOl0LtNpapKXFicahA+Jpm3LYOHSO06FRb+i1cfU9Ze+4e1sTLdkEzfIyzu7R9tYmWwJAe3sHqqsbUPzB2V4ZNe/jMwzxCRHYuuVgr0w2JYQQ0vsoICfECRQKD2zcNA8bN82zejsWGNozah0Ajhy+iKZrRmzLKeUDShZkq1T++PCjVTAaO5C1phhJyVH8Y7LLQkL8AADnz13hA9z7ISiXG3fPXtdDDynwpa4Fvj7DMDHqRzYD41mz1bKvu7yMQ2lJFb8IskWl8sf6DXORubIQk2PGQK1W2feiZDiymLO2AMndldrjYyGEENI3KCAnpJcYjR0oLalCfEIEZmrCbd6e43TQamtR+H4GVCp/PiM+OWaM6Hbt7R1obbuJoGAf2cdiAeu2nFIEBfvcl4Ebx+n4LLHBcAtbtxzEug1zYTDcQkb6u1YDanvOJiTPeVv2usBRSlF2Wq1WIWVJLArytHYH8rawhRYhhJCBhwJyQnpJ8Qdn0dp2E1nrk6FQeFi9rU7Xgq1bDmL9hrlQqfxhMnWicO9JaDThFsH0kcMX4ec7HKGhI/nLpIL0ZWlxaG6+IQpqM1cWSj6/ebY2PiECq9fMsXncckymTux7/zTGjw/Ck5Meg4fHELvvy4JpjSYcH360CgBgMNzir1erVcjZvghZa4qhnqiSDGrZ2QTzY9qx/RAa9YZuBdXPPDsBzc03YDJ1or5eZ/FeSpXcsAy3sCxJitRZD/Pr5F4rIYSQ+w8F5MQtmUydKCmpQsknlWhoaIWv73AkJU/EggWT4a18sNePp7yMQ9G+M1iblWRXDTArVZEKmIv2neEDuuIPzkKrrcWOt1LQ3t6BV5fv5rPAKUtiRcG7QuGB1GXTceTwRYwY4QWVyh/HT24UPXZBvhbNzTdEwTe7rKcaGw0o3HsSAQHeeH7BJCQmRsLXd7js7TmuK8iNT4hA4XsZVhcDSqUX8gpe5jdA2gp4AeDSpUYcq6jB2qykbmW4VSp/vkQpMFCJ4yc38kF+QIC3KFgWZvflPv/m5hvISH8XdXV6/rK6Or1s7XtdnZ4P+s0z+IQQQu4vFJATt9PaehNvbj2Ii9w/MX/BJERF/wiX//YVPt7/F1zk/olNv30efn7ygaCz6XQt2LPnBAD7S0bSV2gwOWYMXxJRX3/d4s87c4+iUW/AH3Yv5wNK8yywOZXKv0+yqgqFB37+iwSMeXwU/rT/M+S/cwzv7v4zEn4aiefnP4nRowMwePAgAOKMeO6uVGSuLJStr5arqa6r0yN5ztsICwtGfEIEduYelT02YX2+La4sKwkI8OYDfMqQE0LIwEIBOXErd+92ZZdra65iy5sLMWnSYwCASZMew9SpY7F2bTGKPziLFRkaDBni+q6fRmMHcraWIDIyBC++GMMHhhyn63H98arMRHh6evAZ2WVpcdix/RAA9Ki8JCDAu9v3tcbXdzgWL56ChQsno7q6Afs/PI+jRy6i7NAFjB4dgJdfmYFJk8eIyks4TudQ9lcuEz1/wSTR7aTOBNhDp2vBwhd2is5CUFBMCCGkpyggJ27FaOzA6dOXETt1LJ544lHRdY+q/DFt6lhUVX0JQ9st+I98yKXHYjJ18gH4qsxEnD51mb/u4VEjkJQcheQ5b1vtjsEyvQz7c1hYMACgqcmI6uoGpKXFOeV4m5tvICDAu8ePZc2QIYOhVqugVqvQ1nYTR49W40/7P8OvN3xkd/eZnhC2VLSns4lwQWDe2cbVrGXv1RPvv425hBBCpFFATtyK0diBlpavMSpQidqaqxbX3779HVpbvoah3bUBua0Ng4GjlJg1W43wiEew+o0iREaGSGZrWS20VMkKANTWXLVoiwiIA01hwF9ext13XVaarhlt9hsXChyllL2O1fLbU2MO3Mu4W8OCc2HtN2B9Uydwb6OsNVILlN5aDBBCCOk9FJATt2Iw3ELTNSOarhmh1dbK3u7WrdsuOwZHuneoVP4ofC8DO7YfQupLeQ5tzDOZOlFZWc+XTbDnBaRLVtjtKyvr8cWVJqt11VLB5LGKGgSOUuKVV56yCFLDwoLxu+z5KMj/1CLrbB5U3rnzPV+ycvbs3/Hdd99j9OgArMpMxKTJ4paOgGMbFq0F0Gx65tqsJGzLKbXa5tD8+a1hG0oByH4G1jZ1sqmorGe8+WNaez5CCCHugQJy4laUSi8EBHhj7nPRWPrStF5/fmH20t76cDZUqLyMQ+rSPLvLNr76qh3V1Q1Yv2GuXcfGylvWb5gLtVplUVct7Gpirba6uyPcheUpzc038MADQ5H4zASLTZ3OZt75pLyMc2qGXOj27U406g1ISo6yuzad3Sc6OtShiaKA7faJhBBC7g8UkBO38tBwBbyVXqivvw6TqVMUFN258z3e+X0F/vFFM1avnYOgIPlBOt1hb0ArR1jCwvqHW6shDw0dabOrilBtzVVERoZg3Lggi+tMpk6UllRh7nPRuHXrNi5dapQta1GrVRbtEhm5aaUmUyd+/58VOFZRg4AAb6x4Ld5m20OmJyUrcm0IXeX0qctobbuJ8IhH7L6PsGe8Wq3CrNlqlJdx2LPnhOyZAVYHn56hoWCcEELcAAXkxK34+A5DbOzj2P/ReVzkdJg0eQwG/ZB4ravT4+iRv2J63DiMHOncjYtskE9PNyWadxixVkN+oepL/GbTx5KPIywbSVkSi0WLp6C0pEo2c/upthbV1Q3Y8VYKAODNH6ZgOrOvdVCQD97MedHhwUA9KVlhZx/MmS90bD2/PVh7y8jIEAQG2ncf4N6QIx+fYfxls2arERTsY3HGhLWE9PMdjpJDr1MwTgghboICcuJWhgwZjOfm/QR/vfhP/HrDRxZ9yEeMGIaFL8bwAaEz2g8C0pMge6pRb0BQsA88PaUz7ROjfiTKVFurIWdlJlOnjbV4HI7TYVtOqWhoUfLcaORsLXFaOYRC4YFXlj/l8P3UapVD76u9t+9pyQrLajMsUAaA1GXTHTo7cv7cFckgXq1WoeTQ68haUywqY7HWlYcQQsj9yfWNmAnpZX5+w7Ftx2K8mj4Tp07+DatfL0LxB2cRO3Us3v63JaIR86ZvOhEU7INXl++GTtfSh0ctxjZgRkeH9rgnOCtHUU9UWQSg5WUcMlcWWmT2Z81W820Zu1sz7q44TofUpXnw9RmGC1VfQqdrgcFwC5GRIQ5PyzQaO8Bd0Ml+zsUfnEVdnR6Bo5QYP76r1Ki0pIrfCEoIIcQ9UIacuCWFwgMLF07GwoWTrd4uZsoYxEwZg4J8LVKX5vWb7OOlS42orm5A6rLpALqypT3trDE55l4HE2FGt/D9DMkgUljT7uc7vNc2D7JjY8N3ekKunr+7JStsnwDrbMM24qYsiZUsjWHkMvesN73wzIXw9ccnROBoRRZ//OwsSGJCjkOlPIQQQvo3CsgJAfgNf6UlVRg3LsglkyodYfqmE6+9Fi8KtoQDbdZmJdkdHJvXUbPHsWfxwUpxyss4JM95u1cmU7qi/Mdcd0tWxo0LwqrMRMyeMxFA16Jl6rSxyFpTjBnTsx06hqdnhgEAkpKj4OnpgezNB3CsogbxCREofC9D8jvIPsuNm+bxwTnbL9BfFpOEEEIcN2jdunV3p8cFI26G/V0BCLFlS/Z50PeKEEIIIcQ2qiEnhBBCCCGkD1FATgghhBBCSB+igJwQQgghhJA+RAE5IYQQQsj/b7eOaQCEgiAKHgktSODrPHugBR1ggW4T/oyCLbZ4ECTIAQAgSJADAECQIAcAgCBBDgAAQYIcAACCBDkAAAQJcgAACBLkAAAQJMgBACBIkAMAQNDS3U96BAAAzGqtqhpjr2Ns6S38yHXefgUA8MELqcjue20A7ZYAAAAASUVORK5CYII=;" vertex="1" parent="1">
          <mxGeometry x="110" y="350" width="740" height="181" as="geometry" />
        </mxCell>
        <mxCell id="KDGDrF34WBt05ubvqvvm-4" value="&lt;font style=&quot;font-size: 36px;&quot;&gt;明确数据状态 &amp;amp; 操作关系&lt;/font&gt;" style="text;html=1;strokeColor=none;fillColor=none;align=center;verticalAlign=middle;whiteSpace=wrap;rounded=0;" vertex="1" parent="1">
          <mxGeometry x="30" y="30" width="460" height="30" as="geometry" />
        </mxCell>
        <mxCell id="KDGDrF34WBt05ubvqvvm-6" value="" style="shape=curlyBracket;whiteSpace=wrap;html=1;rounded=1;labelPosition=left;verticalLabelPosition=middle;align=right;verticalAlign=middle;" vertex="1" parent="1">
          <mxGeometry x="120" y="580" width="20" height="120" as="geometry" />
        </mxCell>
        <mxCell id="KDGDrF34WBt05ubvqvvm-7" value="&lt;font style=&quot;font-size: 24px;&quot;&gt;删除操作&lt;/font&gt;" style="text;html=1;align=center;verticalAlign=middle;resizable=0;points=[];autosize=1;strokeColor=none;fillColor=none;" vertex="1" parent="1">
          <mxGeometry x="10" y="620" width="120" height="40" as="geometry" />
        </mxCell>
        <mxCell id="KDGDrF34WBt05ubvqvvm-8" value="&lt;font style=&quot;font-size: 20px;&quot;&gt;待确认&lt;/font&gt;" style="text;html=1;align=center;verticalAlign=middle;resizable=0;points=[];autosize=1;strokeColor=none;fillColor=none;" vertex="1" parent="1">
          <mxGeometry x="145" y="585" width="80" height="40" as="geometry" />
        </mxCell>
        <mxCell id="KDGDrF34WBt05ubvqvvm-10" value="" style="shape=curlyBracket;whiteSpace=wrap;html=1;rounded=1;labelPosition=left;verticalLabelPosition=middle;align=right;verticalAlign=middle;" vertex="1" parent="1">
          <mxGeometry x="431.42" y="580" width="20" height="120" as="geometry" />
        </mxCell>
        <mxCell id="KDGDrF34WBt05ubvqvvm-11" value="&lt;font style=&quot;font-size: 24px;&quot;&gt;编辑操作&lt;/font&gt;" style="text;html=1;align=center;verticalAlign=middle;resizable=0;points=[];autosize=1;strokeColor=none;fillColor=none;" vertex="1" parent="1">
          <mxGeometry x="320" y="620" width="120" height="40" as="geometry" />
        </mxCell>
        <mxCell id="KDGDrF34WBt05ubvqvvm-12" value="&lt;font style=&quot;font-size: 20px;&quot;&gt;待确认&lt;/font&gt;" style="text;html=1;align=center;verticalAlign=middle;resizable=0;points=[];autosize=1;strokeColor=none;fillColor=none;" vertex="1" parent="1">
          <mxGeometry x="456.42" y="585" width="80" height="40" as="geometry" />
        </mxCell>
        <mxCell id="KDGDrF34WBt05ubvqvvm-13" value="" style="shape=curlyBracket;whiteSpace=wrap;html=1;rounded=1;labelPosition=left;verticalLabelPosition=middle;align=right;verticalAlign=middle;" vertex="1" parent="1">
          <mxGeometry x="750.0000000000001" y="580" width="20" height="120" as="geometry" />
        </mxCell>
        <mxCell id="KDGDrF34WBt05ubvqvvm-14" value="&lt;font style=&quot;font-size: 24px;&quot;&gt;上线反馈操作&lt;/font&gt;" style="text;html=1;align=center;verticalAlign=middle;resizable=0;points=[];autosize=1;strokeColor=none;fillColor=none;" vertex="1" parent="1">
          <mxGeometry x="580" y="620" width="170" height="40" as="geometry" />
        </mxCell>
        <mxCell id="KDGDrF34WBt05ubvqvvm-15" value="&lt;font style=&quot;font-size: 20px;&quot;&gt;已上线&lt;/font&gt;" style="text;html=1;align=center;verticalAlign=middle;resizable=0;points=[];autosize=1;strokeColor=none;fillColor=none;" vertex="1" parent="1">
          <mxGeometry x="770.0000000000001" y="585" width="80" height="40" as="geometry" />
        </mxCell>
        <mxCell id="KDGDrF34WBt05ubvqvvm-16" value="&lt;font style=&quot;font-size: 18px;&quot;&gt;只能填写上线反馈内容&lt;/font&gt;" style="text;html=1;strokeColor=none;fillColor=none;align=center;verticalAlign=middle;whiteSpace=wrap;rounded=0;" vertex="1" parent="1">
          <mxGeometry x="610" y="670" width="110" height="30" as="geometry" />
        </mxCell>
        <mxCell id="KDGDrF34WBt05ubvqvvm-17" value="&lt;font style=&quot;font-size: 18px;&quot;&gt;可编辑任意内容&lt;/font&gt;" style="text;html=1;strokeColor=none;fillColor=none;align=center;verticalAlign=middle;whiteSpace=wrap;rounded=0;" vertex="1" parent="1">
          <mxGeometry x="335" y="670" width="90" height="30" as="geometry" />
        </mxCell>
        <mxCell id="KDGDrF34WBt05ubvqvvm-19" value="" style="shape=image;verticalLabelPosition=bottom;labelBackgroundColor=default;verticalAlign=top;aspect=fixed;imageAspect=0;image=data:image/png,iVBORw0KGgoAAAANSUhEUgAABfIAAAEOCAYAAADCGOYwAAAgAElEQVR4nOzde3RU9bn4//fee5IM94QAMRCBRKWikdhwOcVQfnKkGCzQ9U1l0RsGRNLaSsTL0kgxXAoVbxVJ6wWkErEVF6dQAypGqD0cEMslGki1iCYEIjFASAgkmWRm7/37Y9zjTGYmmYSEBHheZ3FWnf2ZvT9zSTLzfJ7P8yhnqs6aTz+1AiGEEEIIIYQQQgghhBBCXFyPPfYYpml6/tswTExMDMP9z6Ub2ABuu+22TpukEJeKHTt2EB8fT0JCQmdPRYgrkvwMCtG55GdQdAR5X4mOIO8r0RHkfSUuV/LeFqJzFRcXU1JSEtJYCeQLEaIdO3aQkJAgPy9CdBL5GRSic8nPoOgI8r4SHUHeV6IjyPtKXK6sQL68t4XoHKZphhzIVzt4LkIIIYQQQgghhBBCCCGEuAASyBdCCCGEEEIIIYQQQgghujAJ5AshhBBCCCGEEEIIIYQQXZgE8oUQQgghhBBCCCGEEEKILkwC+UIIIYQQQgghhBBCCCFEFyaBfCGEEEIIIYQQQgghhBCiC5NAvhBCCCGEEEIIIYQQQgjRhUkgXwghhBBCCCGEEEIIIYTowiSQL4QQQgghhBBCCCGEEEJ0YTaA7/YbgGmamAroBgwYEE3dubNoigmGgqHroKo4dRNdAcWEgpMVnT13IYQQQgghhBBCCCGEEOKyZwMIA5yGiWbTCLPBuaozRITZUE3ANFEBwzAIV1VMA0xN6dRJCyGEEEIIIYQQQgghhBBXChuAppm4dNxBe0XBHh6GaRiohomCAqqKoqq4dBN7z27Y+/Tq5GkLIYQQQgghhBBCCCGEEFcGdyBfUQizmaCYmDZwmjqKCZjuAeo3NXdsAA1Ozled78w5CyGEEEIIIYQQQgghhBBXDBuAzaZiACgKThMMHTAMUJRvyuuA4dIBMHQdw2l02oSFEEIIIYQQl4eH12+E9Rs509kTEZeVh6HF91Xf40cu0myEEEIIIdrHN6V1NBTTQFNVTEOhsdGJigKK4S6tY7iz9UFB01RQpEa+EEIIIYQQQgghhBBCCHEx2AAcLh0UDRUNRXeBomKaYCoKhqKgmu6AvqIooGpIPr4QQgghhBCivUh2tGhPCxYs4LbbbuO2227zO3bm6us6YUZCCCGEEBdOBTB1E5du0miaODEwFQVN0UC1oevg1E0ME1BUDExMVTLyhRBCCCGEEEIIIYQQQoiLwQagoLgD9aaJqarYFBsRtggaXC4MTcHQDTRVw1QVXKaOqbs6edpCCCGEEEIIIYQQQgghxJXBBmAqYGKV0gEFkwbdhUvX3fXxUdENE9PUJSNfCCGEEEIIIYQQQgghhLiIbACGYqKboGkqigku08TpasCmaJiAYZqEKaCioNrCpEa+EEIIIYQQQgghhBBCCHGR2ABQVVTAwMTQFFxO3V09X1UxFBNTseHCRDNNTAUaDQnlCyGEEEIIIYQQQgghhBAXgw3ApajoKqCpNOg6pvnNUdMARUFXwPzmRpdLBymtI4QQQgghhBBCCCGEEEJcFDYAp6pAeBgOlwtT03DphjtD33TXxzcVE900MAFNVUGTQL4QQgghhBBCCCGEEEIIcTHYABRNw6E7ATBNBadpYjPdTXBVBXRDRzVNTFXFpZuYzZ5SCCGEEEIIIYQQQgghhBDtxQbgcLlwaaCgoCigRoShO3VMw52Jj6ICJi7DwEQBVe3kaQshhBBCCCGEEEIIIYQQVwYVwKba0L75v25aGIrpztLXFRWnAToKhqlgoGCaYOjS7FYIIYQQQgghhBBCCCGEuBhUAFVTsaFgugzqGxpQDQ1TV9B10E0TTHew34aKqoGiSHEdIYQQQgghhBBCCCGEEOJisAE0NDpRFQUUBb6pgG+aoKoqGAaaomGaJjqgqDZMUzLyhRBCCCGEEEIIIYQQQoiLwQZgKgomJoqiAiq6oQPfhPQVBb6plW9igmFgKkrnzVgIIYQQQgghhBBCCCGEuILYACtij2ZTadQNdzY+CpphYJhgKCYooGBDM6TZrRBCCCGEEEIIIYQQQghxsagACgqqakPXTRTVRNMUTNNEURQUIDyiG7qpoJsKLkxcuquTpy2EEEIIIYQQQgghhBBCXBlsADZVwzDAME0anSYKKoahoNrA5XLhaGjAQHEXztcUVCmRL4QQQgghhBBCCCGEEEJcFDYA1aZgGuBygaGApphoqjtL36aBjkGYoqIAiqGjIaV1hBBCCCHElaOkpITMzEyWLFlCcnJyyOPLy8vbfM309HTmzZvX5vsLIYQQQgghLh82gAbT3exWtakYjaCgopgmiqpgKCamyTcNbg1UBTRVmt0KIYQQQgjRkuzsbKZNmwaAw+Fg2bJlxMTEeAL0BQUFLFq0iFWrVhEfHw9AdXU18+fP77Q5CyGEEEIIIboeG4DTVNA0DXQnNpvNHbg3TFyGDqqKpqgYug6KgqKAYeqdPW8hhBBCCCHajRU8LyoqanZcRkZG0GOJiYmsXLmSyMjI9p6eEEIIIYQQ4grnLq2DgWKY2LQwNJuK06njxCBMNYno3oOwbn04V1WNYjhRDCcgzW6FEEIIIcTlIzIyknXr1gU8lpOTQ25uLgC33HIL1113nZS8EUIIIYQQQlxUKoC9ux1NBVUxwdQxTQNNUejerRuaotBoqIRHDUDRwlCwoSCldYQQQgghxOWtpKSEqVOnArBx40ZiY2OZNWsWKSkpTJ06lZKSkk6eoRBCCCGEEOJKYQMIV1V0TUNVVRTdxKXoGCY0NDRiotG7X0/i4q/n3//6gL59VBodnT1tIYQQQgghOoZVy76wsNBTu947aJ+cnMz69euZP38+cXFxLFy4ELvdHtJ5y8rKGDNmTEdOXwghhBBCCHEZUgE0w8CGiqqoYBqEaSqaAj17R6JqKg0nv+aLTz4hPKIH3XsPwNAlI18IIYQQQlxerAz8cePGkZaWxpYtWzwNaJuySvGkpaUxbtw4Fi5ciMMh2S5CCCGEEEKIjmED6B4WTqNi4NRddAuz4WhwoqgKjvPV2JQwTHs3wocOxTCh4lQ5mC1nHAkhhBBCCHEpKCkpITMzk+joaNavXx+wWW18fDxbtmzxuz05OZn9+/dTUlLC9OnTAVi1alXA61RVVVFZWUlcXFz7PgAhhBBCCCHEZc8GYFNUwrpHUO9wYDgbibBpaLqBoiiY9l5E3/Q94seO5YuCg1TWOXFVn+zseQshhBBCCNEumgbp8/LyWLp0aUj3jY2N9ZTf8T5HoPr5VVVVAERFRV3gjIUQQgghhBBXGhWgHpM6pxPDMDBMAwWTcE0l3BZGn5hBXPdft3DdjYOxGQrddDt2aXYrxCWjurqaWbNmkZeX53fM4XCwcOFCcnJymr3tYsjLy2PWrFlUV1cHPJ6TkyNlCzpYc+8V+LbkREFBwUWemRBCXFzTpk1j//79Qf/t2rWL1NRUAJKSkoiNjW3xnA6Hg02bNgUcX15e7gnyCyGEEEIIIUQg7hr53Xtj2uwYtnCUiN6oYd2JiLATpqg0njtD8Z497N/8f+in61FqTxNhNHb2vIW4ZHkHQ3NycloVFLUCra0JaHfVbfwlJSWsWLEi6OPIy8vzBJSrq6s5cOAAY8aMabaZYFcONBcUFDB16tSAGZrtpS2LMM29B6urq1m4cKFnceXQoUNER0eTkJDQ4jll0UUIcbmqrq7mV7/6Fdu2bSM9PZ1ly5aF1Og2Pz+fbdu2kZaW5jM+OTmZ9PR0MjIyGDVqFKNGjeKZZ57pyIcghBBCCCGEuAS5S+uoYRg2A93oRve+AzGdtdjOnkZFp7G2mrqiD6m19UYH7L3Acc7o5GkL0XXk5eVRWlrKvHnzWnW/+vp6hg8fTkZGBqtXryY5OblD5hdq8DUUJSUlfPDBB9x9992e2xwOB8uWLWPbtm0t3j81NZWFCxdit9vp1q0b5eXlrFmzxu+5y8vLY82aNWRlZQFtX4yorq5m/vz5FBUVhTQ+PT291a/jhbBqMpeXlzc7rjXzuvXWW8nKyiIlJaXF95TD4WD48OEsWrSIVatW+ZR6sJ6766+/3nNbaWkpcXFxIQWsvLW1RIUQQnQ13r+3s7OzmTZtWkj3s34PZmdnB/zdPG/ePJ/f89bvYCGEEEIIIYSw2AAc9XWgKihaBFq3bqh2jfrqU+iuRmzo2HQXhvM8htaNhtqemGpEZ89biC4lNzcXoFVB4G7dupGSksLq1avZtGkTN9xwQ6sDpODOfg4WtHU4HOzdu5eioiImTpwIuAOl999/P88//7xPANl6DN6s26xgxaFDh3jhhRcoLi72BOQtLQWbc3JyqKio8Pz3VVddxfz581m5cqVPOZ3q6mp27NjhE8y90MWIloItnR0wCbaQYy2SWEIN/ANkZGQ0ezwxMZGVK1cyceJEPvvsMw4dOsT48eM9x3fu3MnIkSM9r6m1K6JpJmmorOsFaiBpsRZwxKXF+tlu+jtBiEtJaxalLUuXLg24SGktWnuPg+C/64UQQgghhBAiFDYALSwMl6HicplUnShHMV3YDJMwTSEiLJza+kZ0E+x9BxB93bWU79/Z2fMWosuwAsRLly5lyJAhjB8/PqQs8KaB1rKyMr9AZ0FBgSdbOlCGcnV1NbW1tWRkZAQMVpeXl3P8+HE2btzod/+JEyd6AhcxMTGegG2g2wI91kDHWys+Pp7nn3/e57bIyEif2wItRnjzzvK/3DVtpNhevIP1lqbvpeLiYoqKiigqKgoYuJIA1eWpoKAg4KJQKAszlj//+c9MmDDB8zsoJycn4MJhqC72zhlxZbDb7Sxbtsxn8bSp5v4+Nqc1mftCCCGEEEIIEYwNwGUo6KpKt169cTicqE4dTQlDU3Q0xUTRDVTAWV3OmX870Ayzk6ctRNcybdo0SktLOX36tKcueLBgk5VVvWTJkmYDn1ZTvOjoaJ+SJ94iIyPJysqiR48enuCqd7Dg0KFDjBo1ql3LlFjnr6+vp7q6uk0B9OZK3ngH61NTU/nZz37mtxjRNJjSNDBoBR5XrFjR6rm1t6Zzmz59OuB+f0yZMgVoOXs+PT3d77bWlg0C/0WPYCVvmgbrV69eze7du/3e094LTQBTp0712S2wbds2UlNTSUxMDHmOomtJTk5m//79Prfl5eWxadOmFu/rneFcW1vree80LSEihBBCCCGEEEKIltkAutt7YHa/ikH/NZZal42aY6XUHd6DqxHO19eihYdhupzYXA0Y5ytQdb2z5y1ElxMoq/lClJeXU1hYyNy5c1vMerWuvXTpUuLi4khOTvaUqOmIkjHeiwXWwkVubm6LWbapqamAewFi3bp1ntutgHKgLN+cnBz+/e9/U1VV5RPILysrY8yYMcC3gcGmiyTV1dW8/vrrQcsfNDVy5MgQn4HQWXMLtLvCanwbammdQELNTm5a2gjcr6P1WnovDDTNHi0pKSE/P5+kpCQcDodnIaCsrMyz0BQZGenZLdC01EpeXl7QHRVNxcbGtjhGdH3WzyIQcEeQEEIIIYQQQgghWscGEKaEE5l4E5P+3+18cewYRww7tupKSsoOomoNRKg6hgvCwmy4XI2YEsgXIiRNs7FjY2NZsmQJ0dHRntusgNfcuXM9wVOHw8HatWuJjo72qVvenLlz51JRUeFpngtw7bXXsnXrVp85WNndTYPuzdXID6WMRmtr5Hvfnpubyy233MKHH37IxIkTPYFkK4AM7qCxFexubfPbQIHppgH/K7mpoPV89O3bl9jYWJYuXcqmTZs8r/nWrVspLy8nOjraJ5Dfmua3wRZpmgb8pUb+pa+5hTkhLmXWInJMTEyr7hfqYnIgHbHALIQQQgghhLg0uUvr1J/lXG0NX5+poq7mPI0onHE4MA0dVVFQDRObCS6HA1M3v7mXEKIlgUpIWBn7VmD60KFDANx0002eMZ9++inbtm0jOzs75CCY3W73NNezgvnz5s3D4XBQUVHhV9O3NaUtmjYB9A7QWXWFW9L0elbwODo6mu3bt7Nz505qamrIzMxk0aJFlJaWMmTIEJKSkkhJSaG0tNRz36qqKoCgJYdaq+kOgY6Wl5cHfPuat6W0jiWUnRAWa0eEN2shJTs729PfYe7cuZSWljJz5kyWLFnCgQMHePjhh3n33XepqqoiMjLS533VXv0JvHcIiK4hWAmnQOWSqqurycrKoqioSOrYi8tG0wX5xMREZs6c2apztKVG/pW+wCyEEEIIIYTw5w7kN7poKPo3e8P74ezWjXPHy6g9U4pmujAUqDdMDEWhWzc7rroGbOFaZ89biC7F+sKdmZlJQkJCyPezGrkmJSV5SopYtfFTU1OZNGlSq+Zht9t5+OGHPf+7vXg3AWxaH7u1jStTU1OZMmUK9913X8CSMgkJCaxfv5758+eTkpLCtGnTyMvLY+/evZ5scO+SLoF8/vnnPP/889x///1A8GzIQAH0jgxAlpeXM336dJ8dB9A5pXW8z71r1y7sdrtPWah58+YxZMgQNm3axEsvvYTD4WDbtm2eEkdNyxsFsnLlSnr06MGQIUOaLa1jLRBZYmNjgzZ4Fp3DOxAZrEb+iRMn6N27t5TSEZeVC+npcCENyi/2ArMQQgghhBCi67MB1DTUYDpNjn/4Hmp4N1y1ZzAbz6HZDBp0F6ZuopngatRRNBV0o7PnLUSXUlxcTFFREWVlZZ5A/pAhQygoKPAJFicmJrJixQri4uIoLS31ZN6vXr3aE3jPz8/3u60lVlA2LS2N5ORkli1bRkFBAaNGjfIZl5ub6wmSHjp0KKSt/i1lEgYKchQUFLBq1apmy2pYDTS9A8ovvfSS5zF7BzDi4uLYtGmTJ5BfWlrKyJEjfc5tZfiXl5dTVFTEyy+/7Knf3zRQHmrD4fZiLXY0DVC3FORpbrdDa4M8TV+jpue23qvez1XTDPm4uDjPTpKqqipM0/TZSeL9WOHb5z0vL8+v0a411ru0juh6ApWxCrZz4oYbbvA0PhZCCCGEEEIIIUT7sgE4dSeY5zHON6KqNlTDhU0x0F0NqBhomooC6E4nqmIgYXwhfJWVlZGYmBiwnr1Vhqa4uJhVq1Zht9uJiYmhtrbWk3l/ww03AO4A85o1a0hPTw85wOxd9iYmJsZzv+TkZPbv3+853rS0zqFDh5rNfL6Qbf1lZWUhjw20mNGUtThSXFxMQkICBw4cIC0tDfBdCHjyySd59NFHSUtLw263U15eTmVlZZseQ3vwXmBJSUlh0aJFPrc3zURvyerVq4mKivIsWLRV09rl3rtArPdiU3a7nTFjxrB3714mTZrEoUOHUBTFsyvCeyEAoKKiwnMu77JI4vIQqOROS+9na1Gwre9/IOCCkBBCCCGEEEIIcSWwuf+fSqOzAVUzaXQ5sKGjaoAKmmEQjgtd0VBUMAHTNDt31kJ0IVZ5HCtDvKSkpMVGrEOGDPFkwzcNYCckJIRcf9c7IBasPEtHsppaBhOslMqvf/1rNm/e7BOMblrmxjvYHBkZyciRI9m0aROJiYlUVlZ6MsG9M8utUjXe+vbt22619FvLe24FBQV+tzfNtg+26OKtpXI8LfEuixKoLFLT4Kr3joybbrqJNWvWsGvXLjZt2uSzK8JaOALYvXu333Xbs5a+uHiC9aPw3hHivbPi008/ZdGiRc2WRgr2/hdCCCGEEEIIIURw3zS7bQBVxTAaUFBBhbCIMBobG3AqJt1sGvSMQm9swKyrQVGUzp63EF1GeXk5hYWFzJ07F/ANfFn/uykryN80Azo+Pp7nn38+6LW8g2dWeRigzTWprZrtzbEy3wMJVGLDO1O3ubI8d999N3l5eaxZs8Yv6GcFBr0DvykpKWRkZLBt2zbS09NDerxVVVUoikJVVVXALPamiwdtaUh4IdqjxE+wZqTemmbgW+bNm8fMmTOZP38+I0eO9Fk8sObmvSAVGxtLUlISWVlZxMbGMmXKlBbnZzXFHTNmTNB+Ct6LB8HmKjpPoN8TwTLjExISiI6O5tChQ1InXwghWsn6m970bzL4L/ZbY9PS0qRRvBBCCNFFrD2q88BBF3/7Xhg/GKB29nTEZUgFMNDRNNBUhXBNwaZBvaMOmwaKYnLeBDPCTlj37ugo6BLIF8Lj0KFDAJ4M8d27d/s0YrWafHoHja3SM1YJmIKCAqZOnRowozyQvLw8pk+fTlJSUquD+Nu3b/dcJzY2lo0bN7J//36/f9u3bycxMTHk81p27txJXFwcr732Gjt27PBpoOrNKiM0adIkn/mXlJSQn5/PmDFjfIKEN9xwA6mpqSEHkMH9WsTFxXnOs3r16nZ9rBcqWLZzbm4uo0aN8vmXk5PT7Lmys7MDPrbs7Oxm77d+/XoqKyv9ntOtW7cSHR3t07zZbrd7Fnaavm7BWAtd3otXu3btatNcxcVn7bTw/peenh50fGRkJGlpaWzatCnoz74QQoiOV11dzaxZs/w+P+Tl5bXqM6e4sljvm4ULF3p6TbVWTk4Os2bNks8BQgjRziZ/6ETb3ODzr3deA++fdBdA/7LWJPkfjXxZ619F5UwjJP+jkckfOn1uX3tU9zlHa6w9qqNtbmDtUb1tD0i0iQ1AU0AxXaiKgqqpYBj0ighHwcBUVeoaXDhPVqAqJiYKhu5s6bxCXBGssjpJSUnExsZSXV3tqd9uZRQ3zTAuKCjwlKPZvXs3ycnJlJWV+QT/g7HqkFsB+NZmvObl5bF3717GjRvnWYC4EFa5GCub3Hpsq1ev5oYbbuDaa69l/fr1AcvEREVFkZWVxf33309+fj6rVq0iNjaWtWvXkpSUxKRJk3zGWwHh8vJytm7dGrT0jMX7tejWrVubH2NOTo5nfu2ZYWzVpS8vL/fLXk5PT2/x8bXXHO68804qKiqYPn2657oFBQXk5uayevVqv8x4q2xOfn4+U6ZMafE5OXTokGdBIFDJHXFpsXZYNFcqafz48WzatCnoz74QoWhoaODtt99m48aNHDlyhPDwcMaMGUNGRgbDhw/32R3a2NjIe++9x6uvvsqxY8cYPHgws2fP5vbbbyc8PNznvMXFxaxdu5Y9e/ZQU1PDwIEDSUtLY8aMGX5/K1ozNhQ1NTUsWLCASZMmBcygbo/rmabJZ599xgsvvMD+/fvp3r07U6ZMYdasWfTt29dnbH19PW+++SZvvPEGlZWVDB8+nJkzZ3LbbbehaVqrH9+VKNhOs1A016foYrI+WwZysT6PXMkOHz7MvHnzOHPmjN+xQLsUQ9mJGcp5OoqVkDNp0iTZXSmEuCxN/tBJfkXLQe/U3c3HTTOv0XhuhI0HDrpY9WVogfDV37Xx7i1hQY8X15p8cd7kvkJXs+Pay+DuCkl9FB446GJwd0V2IFwkNoAwTSHcphFu12gwDOxaOKph4tRVHC4nLhRUVwNOwNRNFHlthAB8y+rY7Xby8/N96rcnJyd7SuHAt1+W0tPTGTJkiCdrtbS01CdzvCnvWvRtrY2em5vr+SDfHrXKn3nmGU9tfnB/cF+0aJFPo16rbEtOTo7fF8HIyEhSUlLYv38/BQUFntId1hdb7zlaZV4mTZrkKbEzZMiQZreSFxcX+7wWbWEFLa2FmvZkNflNT09n6dKlxMXFBW00G4qlS5cG7VcQbLeB3W4nNjaWZcuWsXDhQpYtW8aoUaMAAjZcthY1XnvtNf7617+yZMmSZr8YNu0fIa4MkZGRZGZmkpGRQUpKykXv3SEufXV1dTz55JO89957TJ48md/85jecP3+eDRs2cM8997Bw4ULuuOMOAHRd59VXXyU3N5ef/OQnJCcns2/fPpYvX86JEye45557PEHpvXv3kpWVRZ8+fbjvvvuIjY1l3759rF69moKCAhYvXuwJdrdmbCh0XeeNN97go48+8luobs/r7du3j6ysLEaMGMETTzxBZWUlubm5/Oc//+H3v/89/fr1A+D06dMsWLCAgwcPMmPGDEaPHu25TklJic/zJoKbN29emwLdVmnBrqLpooIVLBYd79SpU9TU1PCjH/2IAQMG+Bzr1auX32KkJdRFFu/eSBfD1q1bKS8vJyUl5aJdUwghLqZgAfIva02+/79OetigwmHSw6Zwc6TSYkD9uRE2nhthC3jsgYMu3iwz+L//L4xrerRcGeUHA1SeG2Ej42MXa4/qzBl6YZ/lzjTCxF2NFJ5tuU9qcwsXq79ru+C5iG+5m92GaYTZwjANMHVoNBVM3cSFga4rqIqJYRiYACYY0uxWCMBd037Lli3At6Vi5s6dGzC7yjuIP2/ePE+Q8/777+fMmTOexQCLd/DeKkfSlgC8tdgQKBunLTXyS0tLPVlA27dvJzIy0jPX1NRUT68AcAf0Fi1aRGZmZtCsdisz3XtOa9eu9dTftoL4SUlJnucoPT2dNWvWcNNNN/mcr6qqivLycs6cOcPrr7/uKf9ibR8PlnEW7LE6HA7Kyso8JZDaS9P3grU4YX3piYmJafU5Q63vH2zRyFpYsOTm5voEYa2sQ2u3xZw5c8jMzPTLurYWP8Bd+76wsJBVq1Z5jm/bts2voa63zihxJEJn/UyMGTMm4PHq6mrWr1/P3Llzyc7OJiMjo1MacYtL27/+9S/ee+89HnvsMaZNm+bJvh83bhyLFy9mw4YNjB49mv79+3PgwAH+8pe/8Oijj3rGpqSkkJCQwLPPPsvYsWMZMWIE58+f5/XXXyc+Pp4VK1bQv39/AMaOHUtycjIPP/wwO3bsYPr06a0aG4rGxkY2bNjAq6++GvB4e12vsrKSV155he9973ssXLiQ7t27A/Dd736X+fPnk5eXx+zZswF3sO3gwYMsWLCAqVOnep63oUOH8tRTT3HNNdcEbVgv2p/1Wcfq5VNUVERubi4PP/wwRUVFPn83m5Y3a7qQbyWLWLdZ52rK2oknAdfOdfz4ca6++mrmzJnDwIEDO3s6F8Ta0Qktf+ZuSnZ/CCEuZd518Y/VmTxw0MVro2wcqzMZ+E5js2TxMl0AACAASURBVIH4908a/PgjJ7XNJOUPy28MeqyHhk89/jlDNf7nhMHjn+rc2l8NaQGgJZNi1IuS4S9CYwNwuHR0NJyGhqqFYTbogILLcGFT3M1vTUVBURRcikl4uNTIFyKQlJSUgJl2VrDa+0Oq3W73BEPBXWPfe4u2VfP8QsXGxpKSksKMGTP8sqKb29YdKBvLKldjBY29FxuCfQCPj49n1apVZGZmeoIQ6enpnmz9oqIiEhMTPYsC4A4aL1u2jMmTJ3P//ff7Nda0rpOZmcmqVas4dOiQz6KHVYJg5syZPnMJFlAMlnnWHln93q9peno6UVFRLFmyxOf5suqQW8/n7t27A37pzs7O9puLdwPkQAJtmV+9erXnufR+Db0XA6ygQlZWFu+++65n94X1/Hm/roDP6wnw/PPP8+677/otbAVrkmrN5WJmjYnWKy4upqioyPO6e1u5ciW7d+/27Kix3ksZGRkXvZG0uLQdPXqU2NhYRowY4VNCp2fPnowfP56lS5dy/Phx+vbt6+mFMnbsWM9YRVEYO3YscXFx7NixgxtvvJGqqiqqq6s9CwDeEhMTuf766yksLGTq1KmtGtvSIu9XX33Fc889x65du7jlllvYuXOn35j2ut7hw4c5ePAgzzzzjCeIDzB06FDGjx/PP//5T6ZOnUpERAT/93//x9ixY5kwYYLP8zZhwgTee+89/vnPfzJu3Lh2XcS+HFkNaIGgf9tCYSWGBGt2u2zZMp9reQv2+3X8+PEBz2XtBrA+/1llEsXF53Q6KS4uZsCAAfTq1auzp3NBrJ25rS3jI7s/hBCXMisIn9JPpWZaBIBPvfg5QzVu7a/y/f91khQkO/8HA769r8XKhP/aQcjZ+N4evFbj0SIXVY2w9pROxseubw+eNdE2N/jdx8qoj4lQmr2mtfNgRpzqt5PAOhbssYr2YQMwVQ2notCIjuFsRENFxcQ0wWmaqIaBAZjoGBgoDRLIF6Kp+Ph4srKyAh6z2+0Bv3x5Z/RD27doN8dutwec17Rp05oNrAUKEHvf5nA4OH36dEgf2K3HaQVqk5KSmDhxIqmpqbz00kt+X3znzZvnCSQH+4I6b948hgwZ4inv0nTRwzvDrOnzHMpjBXdT4gstqxPoNQ0WeG/pNbE091iashYJmrICAk0D9BbrOcvJyaGsrMxnocV7zPr165k/fz5Dhgzxe1xNs/xaem+H+vjFxdM0SxR8yy5ZOzC2bdtGdna23++aadOmERcXR0ZGBk6nk48//rjZHRmhupj1fsXFN3v2bE/meHPq6ur44osvGDp0qF8QrHfv3iQkJPDFF19QV1fH1VdfzWuvvRbS9VsztjkOh4MXX3yRgoICFi1aRP/+/QMG8tvrev/5z3+Ijo72y+rVNI3vfOc7bNmyhYqKCnr06MHJkye5+eab/Z63nj17MmzYMP71r39RU1MjgXwhOpDD4eDEiRMMHDjwkv5Zq66uZsmSJZSXlzN37tw2/W0eMmRIB8xMCCE6xtqj7uB4Uh+Fo6kR9A1cBQ2Aa3oonLgj3NMYtqVAOcDmEzqFZ00yr9HalFH/gwEqP/hv96RGRWnMGap5Fgdi7L5Bdu/dBMFq3Fc43DsLKhq+rc6y6ks9aG3//IpvFwua7hgQF+6bQL5Jo7MRl8vA0E0UWxi6YYAOmmISZgMlvBtOZz2qohBhkxdAiCud3W7n7rvv5u677w75Pt6B2pZ2G7QUfG96vo5wOQeWrcWlQAtM3loKvre0I0Bc2lr6OSwvL+f48ePNNt/2Xkz68Y9/3OJ7TohgGhsb+eSTT4iNjSUqKor6+nqqqqoYNmyYXxAsIiKC/v37c/jwYc6dO9dstuuxY8coLi5m9OjRREREBB3X2rEAw4YN495772XQoEFtynwO9Xq6rlNZWUl0dHTAINpVV11FXV0dFRUVJCQktHjdc+fOUVtb2+r5iq4nNzfXb5df0wSFYKUWR44c2aFzu9KdO3eOkydPMmjQINauXcvmzZs5e/YsN998M3fffTejR4/22ZXkLdDrGkxbyha2VArR2mEJ7r5Z1o7M5no2WaTknhDiUuWdgb/6u+5a9P3f9s9uh+A14ysaTIblNxIToZAao5J7LHhNneaC5U11ZPmbGLtCwX+7zy0Z+Z3PBlDX4ETXTRTTIEy1YeiNaKYCqCiG+/Zw1SRcDaPBWYvLkEC+EEIIcaWLj48POZAgxIU6cOAA27dvJzU1lUGDBvHVV19x7tw5VFX1C3YpioKqqjgcDhoaAn/BAndW/4YNG7DZbIwfPz5o0Ky1Y8G9YHrXXXe17kG28XpOp5OzZ8+iqiqq6v853WZzf9Gqra2lT58+REVFUVFRgcPh8FkEqa+v59ixY22e85WqpaBnIC3t9svLywO44ISCpqUPAzXalWa3nePkyZMcP36c48ePM3nyZB5//HFOnz7N3//+dzIzM316WDTV0c1umyuF6K2kpITCwkJWr15NVFQUmZmZLFmyJGCg3trlJ4QQlyrvMjhrj+qtyjYPlvn+55G+wfDJHzqpcJhsHxfebKZ/U++fNOid1+CptS917S9f7ox8l4lqmtgwUVUFXCaaoqAoJiomPbqF42g4j2GAqigYUllHCCGEEEJcJEeOHOHpp5/mqquu4q677iI8vBXfbIJobGwkNzeX/Px87rvvvmazVlsztj105PX69OnDd7/7XbZs2cLBgwd9mlcXFhayb98++vTp027XuxKEGvS0BAqme8vNzfX0E5o1a5Yn2xmab3bbXO8j0fVUVVURFRXFvffe6xOwHzduHAsWLODFF19k+PDhXHfddZ080+C8d+6VlJR08myEEOLSNvlDJ/kVBkDQTH9v3gsJ1iKDlRXf0ZrfLSBB445kAzAMHZuqYtM0DFMHDHRTJ0zVUFWVc44GNM/rYGKY8qIIIYQQQoiOV1RURHZ2NgArVqwgLi7ugs/Z0NDAyy+/zGuvvcbcuXOZOXNm0Iz31oxtDx19PU3TmDlzJp999hnz58/nJz/5CcnJyRQUFPD222+TlJTE0aNH2+16wl+g0n3ezem9s629exO1ptmtJZTSOqJzTJgwgQkTJvjd3q9fP+666y7mz59PUVFRlw7kX6iqqioqKys7expCCNEmtXrwEjqB9NCCH3vgoIv8CiOkGvrwbYZ/c6ygvndt+5aa3QIk9VHYPq75pJnMa7SgpXVEx3Jn5JsmhmGg2Gz0UE0MFXTDwFRUdEXH/GZMuKLgUlVcptHJ0xZCCCGEEJcz0zTZu3cv2dnZ9OnTh+XLl/vUd+/Rowe9evXCMAxM0/QJdlufbXv16kWPHj18zltbW8uzzz7LO++8Q0ZGBrNmzULTAn+zam6sd9Nwby0FVpvT0tzy8vL86k+npqby2GOP0adPH44dO4Zh+H9Od7ncX/T69u0LuAOFK1asYN26dfz9739nw4YN3Hrrrfz5z39m79695ObmBn1ORPsrKChg06ZNbN261a9p+IVqqbROWVlZu15PtI+BAwcSExNzSb4+1oKUEEJc7tpSWieQyR+6g9+Z12is+lJnWH5jyNdvjtVoF/A0uwV8yvY01+z2zDfTuL6nEvCczV1PdBx3Rr5poJoqmBBumuiAYoJLNTBMUBUNExM00MJVFFM+2AshhBBCiI5hmibvv/8+K1asID4+nt/97ncMHDjQZ0y3bt2Iiori1KlTNDQ0+JQ1aWho4NSpU0RFRdGtWzfP7WfOnGH58uXs3r2bhx56iLS0tKAB69aMbQ8Xcj1N04iOjqaqqoqzZ896AvaWr7/+mu7du/s0wu3bty8PPvggDz74oOc2Xdf54osvGDRoEFFRUe3zwESLkpOTSU5Oprq6ulOuL81uO099fT0RERF+vS2cTidOp9PT38JiZbB3dLPbCxGsma3UyBdCCF9WcD3G7m4O+8BBV7tm5Hurcpp87YAZcWrItfet+4B7x0CojXeBkB+HaD33JwMTVM394b1W0VAUgzBNQVFVNEXF0A1UVcVQwGzUMTV5IYQQXYeVoRjsi4MQQohLh2mavPPOOyxfvpzk5GQef/xxYmJi/MZ1796da6+9ln379lFTU+MTyK+pqaG4uJjRo0fTvXt3AE6fPs3ixYspKChgwYIFTJkyJWBj2FDH2u12li1bFrDcSWuFOrdAJVks119/PadOneKrr77yqZGu6zqHDx9m6NChxMTE0NjYyMqVKzl58iRLly71PD/gXkw4dOgQ//Vf/0XPnj0v+HGJ5hUUFLBq1SpWrlzps8hyoXJycjxB3qKiooAB3+nTp5OdnU1paSmJiYk+c5Bmtx3P6XTy1FNP8dFHHwXsa1BaWsqZM2e46aabfG6vqqqivLw85M+8bW12e7G1R8k0IYS42C6ktE7TIH5H++OXOuddJndc1fLuAUtxrcl5l0lib4U5Q92ldB446GLtUT3oTgSrzv/vbtAkiN9BbACqZkNVFEwMnGiAiaqGYbfbqa13oCsKmqaimAa6oaDaIjp52kKIS5F3fdeFCxcCsGzZMtLS0tocgC8pKWHNmjWkp6eHfI6CggIWLVrUbEM460tsWlpam0skiEvLyZMnee2113j//feprKwkOjqa1NRU0tPT/bJb6+vrefPNN3njjTeorKxk+PDh3HvvvXzve9/zC74VFxezdu1a9uzZQ01NDQMHDiQtLY0ZM2b4ZArrus6uXbvIzc3l008/BeCGG27gnnvuCXjeUJSVlfHggw+SlZUV8Ocj1Lk1p7Gxkffee49XX32VY8eOMXjwYGbPns3tt9/u15D0zJkzrFu3jq1bt1JXV8fNN9/M3XffzejRo1tdA7ympoYFCxYwadIkn59R62fXuzlkU6E0hGxoaODtt99m48aNHDlyhPDwcMaMGUNGRgbDhw9HUZR2u9bhw4eZN28eZ86c8TvWNMAG8NVXX7Fu3Tp27Nhxwc9jV3T48GH++Mc/kpiYyOLFi+nXr1/AcZqmkZKSwubNm9mzZw/Tpk1DURRM0+SDDz6grKyMrKwsNE1D13Vyc3PZv38/CxYs8Gks2VRrxraH9rred77zHUaMGME777xDcnKyJ0B/5MgR/vGPfzB9+nT69euHoij069ePbdu28eWXX3oChbqu8+6773Lq1Cluu+22y+K91NWVlZVRWVlJVVWVXyA/WOmm5prdwre/M6xyOjk5OaSkpJCcnExeXh6lpaWeY9Y14uLiQm7UK9pHWFgYo0ePZvPmzeTn53PPPfd4duCcOnWKN998k+TkZIYPH+5zv927dxMbGys7ZoQQogu4kNI6fcOh4L/9U+MrGsx2K61jef+kwdqjOtf2VBgZGfp3ymN17tr6g7t/+5nwuRE2EnsrpO52+tTJf/+kwY8/ctLTpvD5pHAJ4ncgdyDfVFBUhfBwO4ph4HSaNGBgmg53WR3FQFFVTN3EVO2E9RnS2fMWQnRReXl5xMXFBQwafvrpp2zbto3Vq1djt9txONz7tIIF1b0bvzWVnZ3N+PHjWbJkCeXl5UGbubUUQGs69zVr1rBq1Sr5gnSFKS4u5uGHH6a2tpYZM2aQmJhIUVERb775Jnv27OGZZ55h8ODBANTV1fHkk0/y0UcfMWPGDIYNG0Z+fj4PPvigXxBu7969ZGVl0adPH+677z5iY2PZt28fq1evpqCggMWLF9O3b190XeeVV15hzZo1jBs3jieeeAKAt956iwcffJCMjAzS09NbVdajrq6ONWvWUFxcHPB4qHNrjq7rvPrqq+Tm5noaZu7bt4/ly5dz4sQJn8CE9RxXV1fzi1/8gmHDhrFjxw4efPBBHnnkkVYFL3Vd54033uCjjz5i0qRJPsfCw8OZNGkSY8eO9btfZWUl77zzDj179iQiInhSgvUav/fee0yePJnf/OY3nD9/ng0bNnDPPfewcOFC7rjjjna5FriDNjU1NfzoRz9iwIABPsd69erlsyBiPY92u51HHnmE8PBw3njjDebPn8/TTz9NSkpKs9fq6pxOJ2+99RanTp1i+PDh/O1vfws4LjU1lSFDhjBy5Eh+/vOf88QTT3gy8Pft28ebb77J7NmzufHGGwH34sDbb79NVFQUJSUlrF692u+cAwcOJDU1lSNHjoQ8NizswjOoWjO35q4XHR3NPffcQ1ZWFo888gg//vGPPSU4rr76as9CB7gz+z/66COys7OZOXMmAwYMYMeOHbz//vs88sgjfOc737ngxyVaVlpaSnR0dMDPHE13fLS22a01vrCwkP79+5OcnEx0dDRr1qzhwIEDrFy5kqqqKgoLC5k7d64E8jvBuHHj+OEPf8irr77K119/zW233cbJkydZv349dXV1/O53vyM6OtozvqSkhPz8fCZNmhTyZ9vOIDXyhRBXgjlDNeYMDf27WajjL7S0jpVFD+77WwF2gCcTbSGX1QH4nxNGwOD/nKEat/ZX+f7/Oln15beNc1d/19aq50S0jbtGvktHNxWcCtgUBQ0F0zTQTA2ny4USZkM3FVBUTEXFHhU4M0oIcWVzOBzs3bs3YJkbh8PBpk2bfDLn7XY7CxcuZNmyZWzdutWnGRu4a8bu378fcGeUVVRUsHDhQs8iwLJly6isrGTjxo0+X2isGpyt+aJjzT0pKYnY2FjPIoO4/DmdTjZu3IjT6eSFF17gmmuuAWDMmDHccsstPPDAA/ztb38jMzMTTdPYvn07H3zwAU8++aQngDt27FhiYmJYt24dycnJxMXFcf78eV5//XXi4+NZsWIF/fv394xNTk7m4YcfZseOHUyfPp3Dhw97Ao+/+tWvPMHv8ePHs3LlSjZu3Mj3v/99rrvuupAeU21tLX/60594++23Ax5vzdyac+DAAf7yl7/w6KOPeoKEKSkpJCQk8OyzzzJ27FhGjBhBY2MjGzZsoLq6mhUrVjBmzBjP9a666ipWrlxJfHy8XwmBQKxzvfrqqwGPd+/enZ/97Gd+t+u6zsqVKwkPD+eBBx7wq7fu7V//+hfvvfcejz32mE/wc9y4cSxevJgNGzYwevRo+vfvf8HXAjh+/DhXX301c+bMaXbs+fPneeGFF+jXrx+///3vPZnqN910E1lZWbz++uvcdNNN9O7du9nrdWW1tbV89tlnAOzcuZOdO3cGHDd69GiGDBmCpmnMnj2b6Oho/vrXv/KXv/yFwYMH89vf/pbbb7/d87P0xRdfUFNTA8D69esDnjM1NZUf/OAHrRrbHoH89rze6NGj+cMf/sBLL73EY489Rvfu3ZkyZQqzZs3yWZjr168fy5cv55VXXuGPf/yjZ2fHH/7wh8tmZ8fFYLfbiYmJIT8/n/Ly8lYFV72Dsu1ZVsc6d2ZmJtHR0axfv95z/pSUFNavX8/8+fMpLi5m9+7dREdHM378+IDnGTJEkrc6Uvfu3fntb3/LLbfcwuuvv86WLVvo3bs3t912G7NmzWLQoEGesQ6Hg7Vr1wIwZcqUzppySFpT6rKqqgpAEmiEEKIdrD2qk/GxiwERCp9Um7x/0uBYncm1PRWeTLSFtHPA8mWtSWG1GbSm/n2FLioaTHpo0MOmcLLB5E/FOv9voNaqxQLRejZw1yI1DBNFCcMwXWiYhCkKutOFoqoYhoKuKDhRsIWZ1FWVdfa8hRBdkBWYB/8s+/z8fM/28GDNubxv9y4n4XA4qKioYMyYMT5B/MLCQr+M++rqapYsWcKkSZP8Fga8WY3drC8bDoeDsrIy0tLSfHYLiMtffX095eXlJCUl+XxpBhg6dCgjR46ksLCQc+fOER4ezq5duxg9ejRJSUmecZqmMXHiRN566y327NnD9OnTqaqqorq62hPw9ZaYmMj1119PYWEhU6dOpazM/Xd17NixPln3mqYxYcIE3njjDT777LMWA/mmafLZZ5/x3HPP8eWXXzJ27Fj27NnjN641cwuWpanrOrt37yYuLo6xY8d6An+KojB27Fji4uLYsWMHN954I19//TV79+7l9ttv92meqGkaU6dOZfv27ezcuZPExMRmA4hfffUVzz33HLt27eKWW24JGuQNZM+ePWzcuJE5c+a02MDx6NGjxMbGMmLECJ/59OzZk/Hjx7N06VKOHz/u99y15VpOp5Pi4mIGDBhAr169mh37+eef89FHH/HUU0/5lJvp378/EydO5M033+T06dOXdCA/MjKSdevWteo+4eHh3Hnnndx5551BxzRXW/5CxraG9+J0R11PURRuvvlmXnrppRbH9u/fn8cee4zHHnusXa59pZo7dy4VFRUtLnwGkpqayty5c/1uv5AAuhXwTUpK8iQ/eLN+xvLy8sjNzSU7O5vIyEi/UmGJiYlBA/yi/YSHh3P77bdz++23NztuzZo1bNu2jfT09FYnqTQtneTdQyGYoqIiv7JOgXgH7ePj49myZUtIcwP3Z/ZVq1Z5kmiEEKKrs7Lba0Pv+RpUUh+F7ePC/YLebS2tYwXxJ8Wonsa5qbudTIpRA5bwsQTbKfDHbxrb3nfNt8e8H39SH4VTP4zwzN+q+d//7YZWlRwSrWcDcJk6PXv2pKHBgWm66BUWgaaAgYpmgq67MNDQTR2n0UCYXtHZ8xZCdFF2u505c+aQmZnJkiVLPFu316xZE7DUTSj16svLyzl+/Dhz5swB3CV6CgsL+fnPfx70i7N3czdrUaCqqorFixczefJkYmNjSUlJ8TSZ27lzJ0VFRRQVFfnUmm363+CuT9vcIoG4tPTu3ZuVK1eGNLa6upqSkhLGjRvnV0M+JiaGgQMH8vnnn+N0Orn66qt57bXXQjrvpEmT/ErEtMXZs2d56qmnqKys5JlnnqGsrCxgIL81cwumrq6OL774gqFDh/oFoHv37k1CQgJffPEFdXV1nD59mrKyMoYPH+5XHigqKorrrruO4uJi6uvrfRpvenM4HLz44oue3xn9+/cPOZBfU1PDhg0buOaaa5g2bVqLJYpmz57N7NmzQzr3hV7L4XBw4sQJBg4c2GJpi08++YTBgwdz7bXX+h376U9/yk9/+tM2zVkI0Xbt0fTYu5TghQbQrfmEIj093bOI1JZFNHFxOBwOUlJSqK2tDbjw4z2uaV8F67O399+XefPmXdTPsc31k0lNTQ244CSEEF3RDwao1Ezr2J6hbS2t8/8Ganx4xuTpRHfN+udG2LjvGo3v/68TbXNDsNMElNhbwQRmxKlEhSkk/6ORwrMmSX0UjqZGBMy49675bwX1U8+6a+xLyZ32ZQPQTZOa83VomomJSgPg1HVM08BmC0M3wTAMDMCmaOi60bmzFkJ0afHx8SxZsoTPP/+c+vp61q5dS3l5eZuzbQ4dOsTVV1/tuX9ycjJbtmyhoKDAJ3M/UIPavLw8Nm3aBLizkK0mf+AOnv7nP//hpZde4vz58z51ZqXZrQA4ffo0n376KTfccAN2u52KigrOnj3L4MGD/TLHIyIiGDhwICdOnMDhcDRbAuPYsWOeet7N1U83TZNPPvkEm81GXFxci/NVVZVbb72VadOm0bdvX0+mf2uEOrf6+nqqqqoYNmyY3xfwiIgI+vfvz+HDhzl37lxI162srKSxsTFoIB9g2LBh3HvvvQwaNIiCgoLQHhDwz3/+01MPPCYmxueYFUALZYGusbGRTz75pNlGg81dyyp34Z0pe+7cOU6ePMmgQYNYu3Ytmzdv5uzZs34NbJ1OJ+Xl5QwdOhRd13nppZc8Y0eNGsWvf/1rTxNeIcSlJdhuDW9NA/QXGniXzzaXDrvdTnJycovlatpjUakjyCKREEKE5rkRNp4bEdrYppn0fcNhbbLNZ8w1PRRO3HHhdW6ay+gPJFgjX9E+VHBn3rsME91U0FGpdeo4tTBcmsr5xkYaXC6cuoFhusvr1LucnT1vIUQXl5yczE9+8hP+53/+J6StucFUV1ezadMmtm3bxrhx4xg1ahSzZs2iurq61eeyyoBYmdRRUVH84he/YOjQoRQWFoZUn1tcOXRd56233uLEiRPceuut2O12amtrOXPmTMAsa0VRUFWV2tpadD34fsu6ujo2bNiAzWZj/PjxzQZei4uL2bx5M6NGjQqYhd1U7969/Wpht0Zr5lZbW8u5c+dQVdVvnPVcOBwOGhoaiIyMJCYmhuPHj2Oaps/Yc+fOcfTo0RbnZrfbueuuu/zKH7WkpqaGd999l+Tk5AtuBHvgwAG2b9/O2LFjA86jLdc6efIkx48fJy8vj4qKCh5//HGysrJwOBxkZmayZcsWTNNE13Xq6+spLS3lwQcfpKioiKysLBYvXsz58+e577772L59+wU9PiGEEEIIIYQQXZcNQFE1lDAVl6GDbmBqKo0GGLo7C183DAzDwNQUFFyYLZxUCCHg20Zu2dnZxMXFkZGREbQUTtPbrZqbxcXFFBUVebJlCwoKWLVqVavn0tDQQEVFBTExMT4lUcaNG8eyZcta1RhXXP4Mw2Dr1q2sX7+eadOmtVud4MbGRnJzc8nPz+e+++4jMTEx6NiKigqefPJJamtr+eUvf9nhdc9bM7fWuuqqq7jxxhvZsWMHkydPJiEhAXDvONizZw+ff/55u17PW1FRER9//DEPPfQQ0dHRfsdDyYQFOHLkCE8//TRXXXUVd911F+Hh/lkmLV0rUP3gqqoqoqKiuPfee5k6dapPY90FCxbw4osvMnz4cK6++moADh8+zA9/+EMeffRRz+6FUaNGsWDBAtavX8/NN98ctHa/EEIIIYQQQohLl7vZrb0HTr0B1dQxFQXTBL3RhamCjomhACYoJiiGDqo0LBBCNC8vL4+9e/eyceNG7HY7BQUFra6R73A4PGVxgikqKmLixIl+t3nXtU9MTKSiooLCwkKWLFnid46ePXsyZcqUtjxMcRnSdZ1Nmzbx7LPPcvvttzN//vyAQdvWamho4OWXX+a1115j7ty5zJw5M2jG+4kTJ3j88ccpKSlhxYoVHb5bpDVza4vu3bvzq1/9iocffph7772XGTNmMGzYMHbs2MGhusVzcQAAIABJREFUQ4cYMWIEhtH+ZfucTicffPAB/fv3Z9SoUW0+T1FREdnZ2QCsWLEiYJmjtl5rwoQJTJgwwe/2fv36cdddd3nqCluB/O7du/PjH//YpwRRv379uPPOO1mwYAGHDx+WQL4QQgghhBBCXIZsAJVlhzt7HkKIy0xpaSllZWU4HI42N7D69NNPKSsrIzU1NeiYUGvkDx482JMJ611b2263k5WV1ab5ictPY2Mj69at489//jN33HEHDz30kE/AtEePHvTt2zdg6RzTNDEMg+joaL/Af21tLc8++yzvvPMOGRkZzJo1K2gT1CNHjvDb3/6Ws2fP8sQTTzB69GjPsWAN46wdLG3R3NwCNc4DyM7O5nvf+x69evVy79gzTZ/Av/Vc9OrVix49egCQkJBATk4Of/rTn3jllVew2+1MmTKFl19+mddff52DBw+itnOiwKlTp/jkk09ISkpqU48O0zTZu3cv2dnZ9OnTh+XLl3t2E7T3tQIZOHAgMTExPr0O+vTp49dcGPD0/jhz5ky7XFsIIYQQQgghRNdia3mIEEK0TnV1NQcOHGDkyJFERka2+Ty7d+8mLS2N0tLSdpydP6vZZSBNs/vhwoKmouuqq6vjhRdeYMOGDdx111388pe/9Gv22qtXL/r06ROwiWxDQwMnTpzguuuu82l0e+bMGZYvX87u3bt56KGHSEtLCxrE//jjj8nOziYsLIxnn322w8rNtGVuTXXr1o2oqChOnTpFQ0ODz4JdQ0MDp06dIioqyqeU1aBBg/j973/vc566ujqOHTtGQkKCz9j2UFZWRklJCTNnzmz1gqJpmrz//vusWLGC+Ph4fve73zFw4MAOuVZ9fT0RERF+CxlOpxOn04nNZvM0EBZCCCGEEEIIcWWSQL4Qot1Zde0zMzN9bi8vLw+5Rn52djbz5s0DICcnJ+B9AgVT2yJQjexA2f3i8lVXV8ezzz7L22+/7clKD1ROJzIykvj4eI4ePUpdXZ1Ptn5FRQUnTpzghz/8oSeQf/r0aRYvXkxBQQELFixgypQpQbPO9+7dy+OPP+7J/L7uuusCXn/dunX/P3v3HhZltfeP/z0MhwlQQETkoAKaRaHoKCZidlARTdlPpk+191Yklb3dJV+1rlJCMtPSyvRRy0JJidriRWqeFbXMLWmiKMRP88BBRZCTIDo4MMzM74/ZM84wB2ZwkEHfr+vqSude973WDAMO77Xuz7LKczZnbCKRCEuWLMGSJUv0zpfL5ejTpw+ys7NRV1enE17X1dWhsLAQYWFhcHZ2Rl1dHZKSkuDn54d58+bpTBZcv34d586dw6xZs3QmQKwhPz8fzs7ORlfRG6NUKrF3714sXboUYrEYCxcuhLe3t9X7kslk+PTTT3HixAmD5cWuXLmCmzdvol+/fhAIBAgJCUFaWhquX7+u17akpAT29vYGy/48aurq6pCQkIDIyEidn9/G7mjRZqgEXHMNDQ3Ys2cPMjIycOnSJTg6OmLIkCGIi4tDcHAwBAKB1fq6cOECZs+ebfBOC+070gDV3h4nT57Epk2bcPbsWTg7O2PkyJF44403rHaXCBERERERtR8G+URkdVlZWQgJCdELtCytkW8Oc2vkExmjVCqxa9cu7NixAzNnzsT06dONrkp3dnbG8OHD8fnnnyM3Nxfh4eEAVKH27t274erqqvNYamoqTp06hYSEBJ2NTJsrLy/H//3f/8HFxQXLli2zOHi2lCVjM0YoFCIiIgLbt2/H8ePHER0dDYFAAKVSiV9++QUlJSWYP38+hEIhHnvsMXh5eSE7OxtlZWWasLmhoQEZGRno0qULnnnmGas+x8bGRly5cgX+/v7o1q2bRedeuHABa9euRUhICBYtWqQpW2PtvhwcHBAWFobt27cjMzMTM2bM0Lz3KisrsWXLFojFYgQHBwNQ/Sx74okn8N133+HJJ5/UjKuqqgq7d+/G4MGD0adPH4ue68NGLpdj8+bNOHHiBCIjI3WOOTo6IjIyUvM9qq26uhp79+6Fq6ur3p042urr67F8+XIcOHAAY8eOxZtvvok7d+4gPT0dM2bMQGJiIsaNG2eVvgDV+6Curg5/+ctf9N5bnTp10kw4KpVK7N69Gx9//DEiIyPx+eef49q1a9i0aRMuXryIzz77zOLvAyIiIiIisi0M8onIqqxVVqclUqkUJ0+eRExMjGblvqka+W1lzZo1SE1NBcCSOx1VWVkZfvrpJzg7O6O2thYbNmzQa9OpUyf8z//8D5ydnTFq1CicPn0a77//Pv7+97+jb9++yMzMRGZmJhISEuDn5wdAFQbv2bMHHh4eKCoqQnJyst51fX19ERUVhQMHDuDChQvo378/Dh48aHCczzzzDAYMGGCV52zJ2Eytkh80aBD+9re/4ZNPPtGswM/OzsaWLVsQGxuLp59+GoAqsH799ddx+vRpJCYm4rXXXoOTkxN27NiBvLw8LFu2rMUV75ZqaGhAVVUVfHx84OrqarSdurSW+meJTCbDjh07UFlZieDgYGzdutXgeVFRUejVq5dFfRUVFSE+Ph6hoaFITEyESCTC8OHD8dJLL2Hjxo24ceMGRo4ciYqKCqSlpaG+vh4fffQRPD09AQDe3t74f//v/2H+/Pl455138NprrwEA0tPTcfXqVSxbtgydO3du7UvW4TU2NiI9PR0bN240eNzZ2Rl//etf9R6Xy+VYtWoVHB0dMXfuXJMllH7//XccOHAACxYs0ExeAcDw4cOxaNEipKenIywsDF5eXvfdFwBcu3YNPXr0wPTp0022vXDhAtatW4fY2FidCaGAgAC899572L17N2JjY626iTURERERET1YDPKJyKqMldW5X6mpqZrAPCQkBFKpFCUlJRgyZIhV+7HEzp07cfr0aRw6dAhHjx69rzsLqP3cuHEDly5dAgBkZGQYbBMSEoJx48bB2dkZzs7OePfdd+Hn54ctW7aguroawcHB+OKLLzB06FBNUHb58mXU1dUBANLS0gxeNyoqCs8++ywuXrwIAMjLy0NeXp7Btj4+PlYL8s0d2+jRo00G+UKhELGxsfD09MS///1v/PDDD+jZsyfef/99jBkzRufOhqCgIHzxxRf46quvNHfMDB8+HF9//TX69u1rleelTS6XQyKRwMPDw6JNdCUSCc6fPw8AOHr0KI4ePWqwXVhYmCbIb21fgCpcfv/99zFs2DB8//332LVrFzp37oyRI0di2rRpmokhtSFDhuDrr7/Ghg0bdF7HhISENnkdO4rr169j5cqVOHbsGIYNG2b062bI8ePHkZGRgenTp2PQoEEm2xYXF8PHxwf9+/fXCcVdXV0xYsQILF68GNeuXTO6n4ElfclkMhQWFqJbt24GNzhWUyqVOHz4MLy8vPT2uQgNDUVYWBiKiooglUqtvg8FERERERE9OAzyiciqjJXVuV/aK+8BVYheXV2Nfv36WbUfS6hLaYhEIs04ampqGOR3MIb2SGiJi4sL4uLijG6SDADR0dFm769grA79/TI2BkvG1hJHR0dMmjQJkyZNarFtQEAAPv30U6v029LXzdz9BJpfpzX7EJh7TmBgIHbt2qX3uKOjI8aMGYMxY8aY1V/fvn2t9jo+DKRSKdatW6cp1ebl5WV2kF9XV4f09HT07t0b0dHRLW72HBsbi9jY2FaN09K+pFIpSktL4evra3ID5Tt37uDcuXPo168funTponPM2dkZK1asaNV4iYiIiIjItjDIJyKrkUqlcHFxMVpWx5LNbrXr6WsH+ICqhM62bdsQGRlpNDTXLnkTExNjtMyPuqyGMc3r7aslJyejV69eOH36NKRSKf744w8AgIeHh9FrERFR2+jbty9mzZoFPz8/5OTkmH3ekSNHcOLECSQlJemVd2pedsmUxsZGnD17Fj4+Pkb/HbC0r9u3b6OiogJ+fn5ISUnB9u3bcevWLQwYMABvvPEGwsLCIBAINO1GjRqFgoICbNiwAceOHYNIJML48eMxbdo0vYCfiIiIiIg6Hgb5RGQ1IpEIb7zxhtHjhja7bY3CwkIAwJQpU3Qeb74qtqXgBWjdamztc69cuaLZbDc5OZmr8YmIHjCRSISpU6dafF5dXR327dsHsViMiIiI+xqDusxaVFSUXjmk1vZVUVGBa9eu4dq1axg7diwWLlyIqqoq/PTTT4iPj9dsVN3Q0ACpVIqff/4Z69atw9ixY7FixQqcP38eW7ZsQW5uLpYsWYIePXrc13MkIiIiIqL2xSCfiB4IsVhssKREa69laemLthrL7NmzzZowICIi25Kfn48zZ87g7bff1mworM3cid5Lly7hs88+Q/fu3TF16lQ4Ojpapa+amhp4eHhg1qxZmDBhgs7GugkJCVi3bh2Cg4Nhb6/6OJ+dna0J9wUCAcLDwxESEoL58+fjxx9/RHx8fIvlfIiIiIiIyHZZtiMbEREREVEHJ5PJ8Msvv8DLywuDBw9u9XXy8/Px3nvvAQCWLVsGf39/q/X1wgsvYN++fYiOjtbZWLdr166YOnUqKisrkZ+fr3l84MCBeP7553XaDhgwAM8//zyys7NRXV3dmqdIREREREQ2gkE+ERERET1SKisrcfbsWYSGhsLHx8fi85VKJX7//Xe8/fbbsLe3x/Lly41u8n6/fRni6+sLb29vlJSUaB7z9PTUuxvA0dERHh4euH37NiQSiVX6JiIiIiKi9sEgn4iIiIgeKSUlJSgqKsKQIUMgEoksOlepVOLgwYNYsGAB/P39sWrVKjz++ONt0tfdu3ehUCj0HpfJZJDJZLC3t4ebmxs3WiciIiIiegQwyCciIiKiR0p+fj6cnZ2NrqI3RqlUYu/evVi0aBGeeuopfPzxx/D19bV6XzKZDEuXLsX//u//4sqVK3rHr1y5gps3b6Jfv37o1KkTnnjiCRQWFqKurk6nnVQqRXl5Oby8vODu7m52/0REREREZHsY5BMRERHRI6OxsRFXrlyBv78/unXrZtG5Fy5cwNq1axESEoJFixbB29u7TfpycHBAWFgYysrKkJmZCblcrjlWWVmJLVu2QCwWIzg4GA4ODnjuuedQWFiI7du367TNy8vDb7/9hhEjRjDIJyIiIiLq4OzbewBERERERA9KQ0MDqqqq4OPjA1dXV6PtcnJyEBcXh5iYGMyePRsymQw7duxAZWUlgoODsXXrVoPnRUVFoVevXvfVFwAMHz4cL730EjZu3IgbN25g5MiRqKioQFpaGurr6/HRRx/B09MTABAeHo7Y2FidthcvXsSWLVvQp08fjB8/XmcTXCIiIiIi6ngY5BMRERHRI0Mul0MikcDDwwN2dubfnCqRSHD+/HkAwNGjR3H06FGD7cLCwjRBfmv7AgBnZ2e8//77GDZsGL7//nvs2rULnTt3xsiRIzFt2jT4+flp2gqFQsyYMQOBgYFIS0vDrl274OnpiZdffhmvv/463NzcLOqbiIiIiIhsD4N8IiIiInpoiMVinDp1yuhxd3d3bNq0yeLrmHueNfpSc3R0xJgxYzBmzJgWryEUChEZGYnIyEiLxkhERERERB0Da+SbKaVYjs47G3CwQtHeQyEiIiIiIiIiIiKiR8hDFeTPzWsyGLYXSJTw3duIlGI5bjYC4p8bMfY3mUXXdnMQwNVegJhTTSiQKC0692CFAp13NmBuXpPB460dExERERERERERERE9/B5oaZ2xv8mQWW6dFe3JA+2RX6fE6gK53rGorHuBeKibAMkDHTR/L5Qo8byXHf7vshzC7Q1IHmiP6QHCFvub5GcHNwd7vHJChrUFcqzsb/5Lt/eG6jmP666aN7nZCIw61ggAODTc0ezrEBEREREREREREdGj54EG+fuGORg9ViBR4tlfZeguUoXbXczMt7UD9bl5TUgplmPrUAeM7nbvZgP1Cvr8OiWmBwgw2MMeiU/YY9SxRvxYqsDLvkKMOtaI3FvmrbRfXSA3OIGgFt9bqBlXgUSJLSUKRHS104zpdK0Cl+8oMT1AiC6OqmCfiIiIiIiIiIiIiMiQR3az2y6OQM6L92YLtP+snlR41d/O5Mp7dbtQd4HRSYojlQqUNygxyffeqv/mK/SJiIiIiIiIiIiIiIzpsEH+wQoFXjkhg8TAwnjt0jrajK2kdxFCZxW/h4MA3UXAn3dMr9AvlChxp0mJJ10NB/I3G4EvC+UIdRPg5f8G+TcbgV+rFJDIDYzzlhLC7Q06D2mv7iciIiIiIiIiIiKiR0+HTYhHd7NDXbST5u/qYH96gH7wra5J7y0yvnJeWxdH4LmudthSokCBRIneLgKD7VpaWb+9VI7cW0qEut07/3StAmVSYH/EvYkDS8dHRERERERERERERI8Om6vtUiYFAvY3QPxzo0W1402F6l0cAW+Rbhh/sEIBn72NOFhhePPdcd3tcKdJibVGauGrV9b3cRVgkLt+n+rV+M19cVkOHxEMnkNERERERERERERE1JzNpckCANuHOuCGFPDa04CUYuObymr7847SaKiuVi5VaiYH9t5QoKJBiav1hsvnjO5mh4iudvi1SmFwQkG92v7NIKHBjXnVx7WlFMuRWa4weg4RERERERERERERUXM2V1qnuwgY6G6H0nGOmJvXhLgzTfixVGGw5MzY32TILNddUe+1p0GvXfJAezzpKkBurRI1MiVqZMCWEgUive0wPUCo115tXh8hXjkhw0d/NumU6zFU+15bgUSJhefkiO8txJ93lCiXqgL9573sEOltZ/AcIiIiIiIiIiIiIiJDbG5FvraV/e2xP8IBWVUK+O5tRIFEd4X7vmEOuBjpCG8nASK97VD5khNC3VR/lr/spPlveoAQIZ0FuNOkRKFEiSOVCpQ3KDHJ1/TTH91NFfSnFMt1SvB89GcTLt9RYnmIvcGV9UcqFQh1F+jV6u/toqqBz9X4RERERERERERERGQum1uR39zobnYojnLCqGON6JvZiOSB9jqr6N/KbUJ3EfDDYNObxPZ0VtXI/+OWEt9fM76avrmFT9rj1yoFYk414T/POeBIpQKrC+RIHmiv2ay2uekBQoMr/Q3dQaDjlhLC7bp3FLgIga1DHYz2RUREREREREREREQPN5sP8gHVZrU5L6pK7czNa0JPZwFGd7PDwQoFsqoUkMibldTRCsTVQXiQiwCu9gKsK5KjUKJE8kDDq+kN9b08xB6vnJChb6aqWH7zyQRzGSoPBKhK9Yw61ghvkcBoGyIiIiIiIiIiIiJ6NHWIIF9tZX97nXI1o7vZoS7aSfN3U4H4zUZV/f3cW8oWa+M3p974Vr2a/stCOV725Ya1RERERERERERERNT2Hpl6LV0cAW+RAC5C1Sa25jpYoUDnnQ3IrVXiYqQjkgfaI/eWEl57GpBSLG/DERMRERERERERERERdbAV+ebKLFfolda5Wq/UrKi/Wq80dToAVYD/ygkZJHLdUjq9XVT178f+JkPcGVWpH9awJyIiIiIiIiIiIqK20mGDfHUZndxb+qF8pLedTmmdgxUKzM1rQqS3KmzXLo0zN68JW0oU+M9zDujtItBsSNvSJrPq64/9TYaoLBkAIL63UKf0DxERERERERERERHR/eqwqbN6A1xt6nBfW4FEiZhTTejjKsAPgx1wulaBqaeacLpWgdHd7PDnHSW8nICXT8jw/9Wp6ufLX3aCudSBvnoF/+oCOQN9IiIiIiIiIiIiIrKahzptVofrrvYCZDzjgC6Oqo1rX/O3w3v5TQh6xgHlUiV8H9PfHNdSzTfeJSIiIiIiIiIiIiKyBpsJ8nu7CFA6zrHlhhbYe0OBPq4CHBruiC5al17Z3x5jf5Ohb2YjvJ0EyHim7V4GcyYIDN1dQEREREREREREREQE2FCQbw3NA3FT5W3udwU+EREREREREREREdGDYHgnVyIiIiIiIiIiIiIisgkM8omIiIiIiIiIiIiIbBiDfCIiIiIiIiIiIiIiG8Ygn4iIiIiIiIiIiIjIhjHIJyIiIiIiIiIiIiKyYQzyiYiIiIiIiIiIiIhsGIN8IiIiIiIiIiIiIiIbxiCfiIiIiIiIiIiIiMiGMcgnIiIiIiIiIiIiIrJhDPKJiIiIiIiIiIiIiGwYg3wiIiIiIiIiIiIiIhvGIJ+IiIiIiIiIiIiIyIYxyCciIiIiIiIiIiIismGCmzW3lJ99uqy9x0FERERERI+Yd9IyAACfT5ncziOhRwXfc0RERGSLFixYAKVSqfm7QqGEEkooFKr/muQK2APAiy++2G6DJOoofv75ZwQGBiIwMLC9h0L0SOL3IFH74vcgtYn/hqr8fYSsyeTPK77nqJX47yA9rPjeJmpfRUVFKCoqMqutPQCMGjWqTQdE9DD4+eefERQUhJEjR7b3UIgeSfweJGpf/B6ktnDzv//n7yNkTaZ+XvE9R63FfwfpYaUO8vlzkah9HDp0yOwgnzXyiYiIiIiIiIiIiIhsGIN8IiIiIiIiIiIiIiIbxiCfiIiIiIiIiIiIiMiGMcgnIiIiIiIiIiIiIrJhDPKJiIiIiIiIiIiIiGwYg3wiIiIiIiIiIiIiIhvGIJ+IiIiIiIiIiIiIyIYxyCciIiIiIiIiIiIismEM8omIiIiIiIiIiIiIbBiDfCIiIiIiIiIiIiIiG8Ygn4iIiIiIiIiIiIjIhjHIJyIiIiIiIiIiIiKyYQzyiYiIiIiIiIiIiIhsGIN8IiIiIiIiIiIiIiIbxiCfiIiIiIiIiIiIiMiGMcgnIiIiIiIiIiIiIrJhDPKJiIiIiIiIiIiIiGwYg3wiIiIiIiIiIiIiIhvGIJ+IiIiIiIiIiIiIyIYxyCciIiIiIiIiIiIismEM8omIiIiIiIiIiIiIbBiDfCIiIiIiIiIiIiIiG8Ygn4iIiIiIiIiIiIjIhjHIJyIiIiIiIiIiIiKyYQzyiYiIiIiIiIiIiIhsGIN8IiIiIiIiIiIiIiIbxiCfiIiIiIiIiIiIiMiGMcgnIiIiIiIiIiIiIrJhDPKJiIiIiIiIiIiIiGwYg3wiIiIiIiIiIiIiIhvGIJ+IiIiIiIiIiIiIyIYxyCciIiIiIiIiIiIismEM8omIiIiIiIiIiIiIbBiDfCIiIiIiIiIiIiIiG8Ygn4iIiIiIiIiIiIjIhjHIJyIiIiIiIiIiIiKyYfbtPQAiIiIiIltXVFSE+Ph4fPjhhxCLxWa3Lysra3WfMTExmD17dqvPJyIiIiKihweDfCIiIiKiNpKUlITo6GgAgFQqxZIlS+Dt7a0J6HNycvDBBx9g9erVCAwMBADU1tZizpw57TZmIiIiIiKyPQzyiYiIiOiRpw7P8/PzTbaLi4szeiwkJASrVq2Cu7u7tYdHRERERESPOAb5RERERPTIc3d3x6ZNmwweW7NmDVJTUwEAw4YNw+OPP86SN0RERERE9EBxs1siIiIiIgOKioowYcIEAEBGRgZ8fHwwbdo0REREYMKECSgqKmrnERIRERER0aOCK/KJiIiIiLSoa9nn5uZqatdrh/ZisRhpaWmYM2cO/P39kZiYCJFIZNZ1S0pKMGTIkLYcPhERERERPYS4Ip+IiIiICPdW4A8fPhwTJ07Erl27NBvQNqcuxTNx4kQMHz4ciYmJkEqlD3jERERERET0qOCKfCIiIiJ6pBUVFSE+Ph6enp5IS0szuFltYGAgdu3apfe4WCzGqVOnUFRUhMmTJwMAVq9ebbCfmpoaVFdXw9/f37pPgIiIiIiIHnoM8omIiIjokdY8pN+5cycWL15s1rk+Pj6a8jva1zBUP7+mpgYA4OHhcZ8jJiIiIiKiRw2DfCIiIiIiLdHR0YiOjjZ6XF1Df//+/QgNDYWPj0+L15RKpdi2bZvB9mVlZaipqTFaxoeIiIiIiIhBPhERERGRmWprazFnzhzk5+cjJiYGs2fPNuu8zMxM7N+/H8nJyTob44rFYsTExCAuLk7zWFRUlNXHTUREREREHRuDfCIiImq1NWvWoLy8HImJiTrhJNHDSF1Lv6ysDElJSSZX7WtTl+pJSkqCWCzWOz579mydCQH1ZAEREREREZEag3wiIiIyKCcnR2eVsFpISAhWrVplcEPQ5r799lu88MILmpIha9asQWpqaqvHZMkKaCJzaZfKMdfixYsN1tGPiopCYmKiTjsASE5ONhjiExERERERmYNBPhERERkkFotx6tQpncd27tyJbdu2tXiudjAqkUg04XvzlcdEtkAkEmHJkiVYsmSJ0Tbq97S3t7dF72FLVu4TEREREREZwyCfiIiIrEpdfgQAMjIyuIEnERERERER0X2ya+8BEBER0cNj586dmDx5Mjw9PZGWlsYQn4iIiIiIiMgKuCKfiIiIDFJvuJmfn6/zeEhIiMG28+fPR35+PuvY00NJKpWipKQE3t7eFp1nrJa+OQYNGtSq84iIiIiI6OHDIJ+IiIhM0q7xbaxGfmlpKTp37sxSOvRQab45c0hICKZMmWLRNVpTI189iUZERERERKTGIJ+IiIgMqqmpQXV1Nfz9/TWPRUdHGwwln3rqKaxevfpBDo+ozd3P5syBgYHYtWtXq851d3fHpk2bWnUuERERERE9nBjkExERkUUMldzZv3+/yXPUq5KlUimWLFnSYntDoqKikJiYCJFIZPG5RERERERERB0Zg3wiIiIyqKamBgDg4eGh87j2auE1a9agvLwciYmJOHfuHD744AOsXr3aaHkdkUiEJUuWYMmSJW07eCIiIiIiIqKHCIN8IiIiMqqsrAyTJ0/WeczYyvigoCB4enrijz/+YJ18IiIiIiIiIiuya+8BEBERkW0Si8U4deqUzn8xMTFG27u7u2PixInYtm0bamtrH+BIiYjIkJycHEyYMAFFRUUmj0mlUiQmJmLatGn8+U1ERB3GwQoFOu9sQEqxvMVjY3+TofPOBhysULT5uObmNcF3byMKJEqT7cb+JsPY32RtPh5Ljf1NBvHPjbiIFm8MAAAgAElEQVTZ2N4joeYY5BMREZFZpFIpysvL4e3tbbRO/YgRIwAAaWlpD3JoREQPrZ07d2Lw4MHIycmx6DypVIpt27YhNDQUPj4+BtuUlZVpyqi98847iI+Px6hRo7Bz5877Hjd1PLW1tZg2bRoSExMhlUpbdY01a9ZwQoiILJJSLIdwewPm5jVZfO4Xl+VwtRfgeS/j8WZ+nRI3G4G1ofbYOtQBr5y4v/BcPUEg3H7vv+bX+/OOEt1FgIeDoNX9PIwKJEr47m3Uee2E2xt0Jg1SiuVGvz7GJm7uZ+Jh7G8ysyZdbAVL6xDRQ8HQ5puW4CaaRNbh7u6O+Ph4xMXFISIiAmKxuL2HRB1QQ0MD9uzZg4yMDFy6dAmOjo4YMmQI4uLiEBwcDIHg3i9FjY2NOHDgADZu3IirV6+iZ8+eiI2NxZgxY+Do6Khz3cLCQqSkpOD48eOoq6uDr68vJk6ciFdffRWPPfZYq9uao66uDgkJCYiMjER0dLTecWv0p1Qqcf78eXz11Vc4deoUnJ2dMX78eEybNg1dunTRaXv37l1s2bIFmzdvRnV1NYKDgzFlyhSMHDkSQqHQ4uf3KFqzZg1SU1Nbda6Pj4/J/USsITMzE7m5uVi9enWLn29EIhFEIpHmTixqHwUFBZgzZw5mzpxp8OdEaz7vhoSEYNWqVXB3d7fmUA0qKipCZmYmIiMjH0h/RPRoSymWI7NcgeSB9ujtYjow7+IIdHEUoLeLAHXRTnrHbzYCo441IvdWy2FuqJsAxVFO6KL1MbNAopos6OKoula5VAlvkUCnTUqxHHFnDE9WCLc36Pw9eaA9pge0zeexAokSz/4qQ3lDy8/Va0+D0WMuQmDrUAcMcrcz+7XzdhLgP885mPx65dcpkVmuQEqxvM1eA7WbjcAkXztkVTVh8u8yHBruqPM1s0UM8onooaC9+WZzO3fuxPr169v8F2aih51UKkVJSQmGDBli8HhtbS3S0tIwc+ZMJCUlIS4uDsnJyQzzySL19fVYvnw5Dhw4gLFjx+LNN9/EnTt3kJ6ejhkzZiAxMRHjxo0DAMjlcmzcuBGpqal47bXXIBaLkZ2djaVLl6K0tBQzZszQhNInT57E/Pnz4ebmhrfeegs+Pj7Izs5GcnIycnJysGjRIk3YbUlbc8jlcmzevBknTpxAZGSk3nFr9ZednY358+ejf//++OSTT1BdXY3U1FT8+eef+Pjjj9G1a1cAQFVVFRISEpCXl4dXX30VYWFhmn6Kiop0Xjcybvbs2Zg9e7bF56k/l7SloqIirF+/HjNnzkRgYCBycnKQlZWlM14PDw/4+Phg06ZNiIuL07vGgwyASfWzLyUlBWVlZS22jYmJMeu9t3PnTmzbts0awzPL7t27UVZWhoiIiAfWJxE9mgokSiw8J0ektx2mBwhxsEKBj/6U46ehDpogNshFAFd7AXbfUGB1gX4grQ6iR3e7t5o/1E3QqjBXO5g+XavA5TtKPNdV/y6B5tdXrzzfN8wBwL0JhbbU20WA0nGGn2BKsRxz85rgYq96PpImJVb2b3lSIedFw9dTPx9vkUDzHFuysr89/ryj+vo+72XX4iRNSw5WKPDKCRkk+tWXdOTeUhqduDBnAuJBYZBPREREZiksLER+fj7i4+P1jq1atQpZWVmalZ/qlYRxcXFISkoyuLKQyJDff/8dBw4cwIIFCxAdHa1ZfT98+HAsWrQI6enpCAsLg5eXF06fPo0ffvgB7733nqZtREQEgoKCsGLFCoSHh6N///64c+cOvv/+ewQGBmLZsmXw8vICAISHh0MsFuOdd97B4cOHMXnyZIvamqOxsRHp6enYuHGjwePW6q+6uhobNmzA0KFDkZiYCGdnZwDAwIEDMWfOHOzcuROxsbEAVGFbXl4eEhISMGHCBM3rFhAQgE8//RS9e/fGqFGjzHp+ZHukUilSUlIQGhqKyMhITYmd/fv3G7yDoKysjJOu7UypVOLgwYPIzMxs76G0Wk5Ojub9ZWhiyBRzJyaIiNTeylWtbF8bqoo1v7gsR1a1wnAQ2wDE9xZiZf8HE4FerVdCIgdWF8ixukCVHoe6CfD3Hra9SGLsbzKUS5UojnLC306p/nxouOrPP5YqTAbxc/OaNM/VoFtKvbsOtDWf4Fgbao9nf5XhrdwmsycAWtKWdzk8SAzyieiR4OnpCQ8Pj/YeBlGHUlRUhPj4eJ3VgTExMZqwR10zf//+/UhKSsL8+fN1zo+Ojoa/vz/i4uIgk8lw5swZ7N+//77HxVWiD7fi4mL4+Pigf//+OiV0XF1dMWLECCxevBjXrl1Dly5dkJWVBX9/f4SHh2vaCgQChIeHw9/fH4cPH8bTTz+Nmpoa1NbWaiYAtIWEhODJJ59Ebm4uJkyYYFHblsqVXL9+HStXrsSxY8cwbNgwHD16VK+Ntfq7cOEC8vLy8Pnnn2tCfAAICAjAiBEjcOTIEUyYMAFOTk74z3/+g/DwcLzwwgs6r9sLL7yAAwcO4MiRIxg+fDjLzbVAKpViyZIlAGBT5fkyMzNRUlKCVatWQSQSIScnB7m5ucjIyNC5M1H9M/7DDz9kiN/OioqKkJqaiokTJyIrK6u9h2OxoqIifPDBBxb/+6wuFUREZImUYjmyqhTYOlS1QvpghQJZVQq9oFZdQuZVf7sHFuIDwI+lCkR622HfMAedFeluDsZXfZsKuduaOoQ3FnTvG+ag2cfAWJuV/e31XmP1SviIrnYWh/G9XQR41d8O16WqkkV/OyVDZvm9TYrjzjQZLFOkfm3Vr78x6jsPmt+RoT4Wd6bJZoN/BvlE9NC7cuVKew+BqEMKDAzErl27jB4vKyvDtWvX9MIhbdr1ll955RVN6EVkTGxsrGbluCn19fW4fPkyAgIC0KlTJ51jnTt3RlBQEC5fvoz6+nr06NED3333nVn9W9LWFKlUinXr1iEnJwcffPABvLy8DAb51urvzz//hKenJ3x9fXUeFwqFeOKJJ7Br1y6Ul5fDxcUFFRUVGDBggN7r5urqir59++L3339HXV2dzQTTZJkrV64gPz9f566KpKQkvZ/THh4e8PT0RElJCYP8dlRfX4/U1FQ8+eST+Mtf/oLjx4+395AsUltbiw8//BBlZWWYOXNmqybZe/Xq1QYjI6KHVX6dasV7VNa9DVHVJXa0eTgI0F2k2nj2QSmQKJFbq8RHT6nGcrpWgTIpsDxEiKv1SpsoraM29jdVOB7fWwj5y/r7BmibHiDE9AAhxv4mQ9yZphaDckB1lwQAzOvTujBce2JA3Zd6cqB5uR/13QSmyiL9WKrQC/+130PNaU8WtLbkUltgkE9EDzX1imF/f38GEkRWFhgY2OqNHoks1djYiLNnz8LHxwceHh64e/cuampq0LdvX72f705OTvDy8sKFCxdw+/ZtvcBa29WrV1FYWIiwsDA4OZn+JcaStgDQt29fzJo1C35+fsjJyTHvibaiP7lcjurqanh6ehoM0bp37476+nqUl5cjKCioxX5v374NiURi8XipbbVUrkRdHke7dv+aNWtQXl5ucG8Gsg2//PILTp06hRUrVpj1cwUAUlNTzf73NyQkxOIx7d+/3+QddFFRUUhMTAQAfP7555rNdxcvXozFixebvDbLOBGRMdqlaAxRl8fRXv09N68JW0oUmhI798tUnXRjtGvtry2Qo7sIeNlXFTLvvaGAjwgY5G6H0d3Q4grvLo7G681bi/YKfMD0627stcgsV0C4vQEveNnhZqPS5Ea3psLy5tpyFfwk33uTD1yRT0TUjnbu3NniLw0AzCrpwV8uiIhs0+nTp3Ho0CFERUXBz88P169fx+3bt2FnZ6dTggdQlYmxs7ODVCpFQ4PxX8bq6+uRnp4Oe3t7jBgxQu86rW0LACKRCFOnTrXsSbayP5lMhlu3bsHOzg52dvobq9nbqz7ySyQSuLm5wcPDA+Xl5ZBKpTqTIHfv3sXVq1dbPeZHVUuhpyE+Pj4W92PpZ5ScnBxkZmZq9i4xxlT4ys9Fbau4uBgpKSmYOnUqnnjiCRQXF5t1XltvdqsO6ltaBFNUVITc3FwkJyfDw8PDZKkmdSknIiJjLK1jf7BCgZRiOVb2tze5Cak6dDanz1A3ATKeccDk31Xhs6lV2OrSPYBqY11Atfr/ua522F56Lyhe2d++xRryhsbXVqvAtSdCfixVWNSPOSvf76ek0dy8Jp3XwlbD9PbEIJ+IOrzo6GijG2nm5OQgLi6Ov4gSEXVgly5dwmeffYbu3btj6tSpcHS8/99oGhsbkZqaiszMTLz11lsmV61a0tYa2rI/Nzc3DBw4ELt27UJeXh6GDBmiOZabm4vs7Gy4ublZrb9Hgbmhp9rOnTuxfv36Nh2TeoPbmTNnakrqqOuRq1dPa+PnpAevsbER//73v+Hr64uxY8e2ODloi7RL8BUVFbXzaIjoUfPFZTkiut4rqaMuS2Nodbi5kwTeIgF6uwjwZpAQc/OacLpWobdiW+1IpQLlDUrE9xZqJhK0V3xrM1RD/mGkDvHLG5Qt3mGhpj2RoH6d1Kvi21Lz8kwdxcP/LiKiR1pWVhZCQkIQFBSkWZXETTKJiDqO/Px8JCUlAQCWLVsGf3//+75mQ0MDvvnmG3z33XeYOXMmpkyZYjREs6StNbR1f0KhEFOmTMH58+cxZ84cvPbaaxCLxcjJycGePXsQGhpq9qpgah1TCxCsJTMzEwB0Suq4u7tj06ZNOu3WrFmD06dPm1Vyiazr6NGjOHLkCFasWIHOnTu393DaRU1NDaqrq9t7GETUAaUUy5Fbq8R/nrtXp91QWZq5eU1IKZZjXHfDYbwxz3vZwdVegPfymzDIwOrzAokSC8/JEeomwMInO3a0amk5oVA3w59LbzYCk39Xhfjm1NAH7q3wN8VQqN/SZrdAy5M32iWRWurPlnTsdxsRkQm1tbU4ffo0Bg0axOCeiKiDUSqVOHnyJJKSkuDm5oalS5fqhI0uLi7o1KkTFAoFlEqlTtitVCqhUCjQqVMnuLi46FxXIpFgxYoV2Lt3L+Li4jBt2jQIhYZv2TXVViqVYsmSJXolVZKSklod0rY0NkOl5KKiorBgwQK4ubnh6tWrUCgUetdtalL9MtKlSxcAQNeuXbFs2TJs2rQJP/30E9LT0/H888/j22+/xcmTJ5Gammr0NSHbV1RUhPXr16OsrEzn/WmoHEuvXr2QmZmJmpoazWeloqIirFq1Ch9++CE/P7WRkpISJCcnY/LkyXjqqafaezhW1dJeDkRE90sdopc3KNE3897GsIZKxIR0FkAiB67WK3XOH5slw5cD7I2utu/tIsBHTwkRd6YJH/3ZpBcIry1Q9f/RU/Zml76xJCA2Nwi3htaU1mlOvRL/nceFAOQmyxkZ6t8U9Ua7wL3NbqcH6Ib0LZX8cbEXoKfzvX60r2mqP1vEIJ+IHlpHjx5Ffn4+63ESEXUwSqUSBw8exLJlyxAYGIiPPvoIvr6+Om0ee+wxeHh4oLKyEg0NDTplTRoaGlBZWQkPDw889thjmsdv3ryJpUuXIisrC2+//TYmTpxoNLC2pK013E9/QqEQnp6eqKmpwa1btzSBvdqNGzfg7OysE8p26dIF8+bNw7x58zSPyeVyXL58GX5+fvDw8LDOE6MHrqamBmVlZQgJCWnxLsR+/fppzgkMDNSUJIyIiIBUKn1QQ37k5OTkoLCwEN988w2++eYbvePqfQuaTwyqV7C39Wa398NYmSbWyCciaymUKHGnSWl0RbW2573s4O0kQH6dKnxWB8HN1ciUuCEFnuuqG/b+WKrQrOhX95NSrCoZE9/b8sC3pTGrywN1JOrXdGV/e7zsK8T31+RWXZGvTT0hY8kdFlfrlZA0KXFLBoh/Nlx6yZgHOaFiLgb5RPRQqq2txbZt2xAVFfXQrXSitlFRUYHvvvsOBw8eRHV1NTw9PREVFYWYmBi9UOzu3bvYsmULNm/ejOrqagQHB2PWrFkYOnSo3kaThYWFSElJwfHjx1FXVwdfX19MnDgRr776qk7AKJfLcezYMaSmpuLcuXMAgKeeegozZswweF1zlJSUYN68eZg/f77BX6rNHZspjY2NOHDgADZu3IirV6+iZ8+eiI2NxZgxY/TqmN+8eRObNm3C7t27UV9fjwEDBuCNN95AWFiYxaVD6urqkJCQgMjISJ2Qw1QNaDUfHx+sXr1aUzfakIaGBuzZswcZGRm4dOkSHB0dMWTIEMTFxSE4OBgCgcBqfV24cAGzZ8/GzZs39Y4ZCuKuX7+OTZs24fDhw/f9OtoipVKJvXv3YunSpRCLxVi4cCG8vb312jk7O6NPnz7Izs5GXV2dTpBfV1eHwsJChIWFwdnZGQBQVVWFRYsWIScnBwkJCRg/frzR7ytz2opEIixZsgRLliy57+ds7thMlWR58sknUVlZievXr+u83+RyOS5cuICAgAB4e3ujsbERq1atQkVFBRYvXqx5fQDV9+gff/yBZ555Bq6urvf9vMi0nJwcrF692uol/8RiMU6dOmVWWw8PD3h6eiIzMxPbtm3D/v377+uuEjLP4MGD8dVXX+k9fuPGDaxduxYvvfQSwsPD9UqJqSdpzN3ToLWb3T5o1iiZRkSPjtHd7FAX7WRWWw8HAbqLgF+rFBhxVIasaoXBcFY9ORDSWfez9NpQezz7qwyvnJBh61AHXK1XIu5MEyK9Ld/I1RBzNo9ta/dTWkc7xJ8eIMTNNpyDuNkIfFkoRx9XAQa5m/+7cX6dEq72Agx0FyDnRUedyRJDr7v2JsZrQ20vNre9ERERWUFaWhqqq6vxwQcfmLX5nHqV0IcffsjN3h5BhYWFeOeddyCRSPDqq68iJCQE+fn52LJlC44fP47PP/8cPXv2BADU19dj+fLlOHHiBF599VX07dsXmZmZmDdvHhISEjBhwgRNmHry5EnMnz8fbm5ueOutt+Dj44Ps7GwkJycjJycHixYtQpcuXSCXy7FhwwasX78ew4cPxyeffAIA2LFjB+bNm4e4uDjExMRYtBq4vr4e69evR2FhocHj5o7NFLlcjo0bNyI1NVVTZzs7OxtLly5FaWkpZsyYoRmz+jWura3F3//+d/Tt2xeHDx/GvHnz8O677+q8bi2Ry+XYvHkzTpw4oVP/GQAcHR0RGRmJ8PBwvfOqq6uxd+9euLq6wsnJ+Id/9df4wIEDGDt2LN58803cuXMH6enpmDFjBhITEzFu3Dir9AUAlZWVqKurw1/+8hd069ZN51inTp10JkTUr6NIJMK7774LR0dHbN68GXPmzMFnn32GiIgIk311BBcuXMDatWsREhKCRYsWoWvXrgbbCYVCREREYPv27Th+/Diio6MhEAigVCrxyy+/oKSkBPPnz4dQKIRcLkdqaipOnTql933anCVtrcFa/T3xxBPo378/9u7dC7FYrAnoL126hJ9//hmTJ09G165dIRAI0LVrV+zfvx8FBQWaFdlyuRz79u1DZWUlRo4c+VBMCtm6kpISVFdX65S1aQvqzzienp56kwbu7u4YNGgQUlNTERISgkOHDsHd3V0zURkfH8/PRW3A19dX7y4jQPW1cnJyQmBgoM5G1GpZWVnw8fHhHTNERFrUweudJqXeavcujsBzXe2wukAOF6ES+yNUx9Vh7nNdVYG8eqW3dvkVQFVi5z/POeDZX2WajVFtcZX2/bif0jrGJlWsWVpH7aM/m5B7S7W5sCWTHn/eUaK7SDWpA9zbS2HsbzIE7G/Qec/MzWvC6gLz7yhoDwzyieihk5OTg9TUVCQlJZlcBUsEADKZDBkZGZDJZPjqq6/Qu3dvAMCQIUMwbNgwzJ07F1u3bkV8fDyEQiEOHTqEX375BcuXL9cEuOHh4fD29samTZsgFovh7++PO3fu4Pvvv0dgYCCWLVsGLy8vTVuxWIx33nkHhw8fxuTJk3HhwgVs2bIFsbGx+Oc//6kJv0eMGIFVq1YhIyMDzz77LB5//HGznpNEIsGXX36JPXv2GDxuydhMOX36NH744Qe89957mhA1IiICQUFBWLFiBcLDw9G/f380NjYiPT0dtbW1WLZsmSacCA8PR/fu3bFq1SoEBgZqAkVT1NfauHGjwePOzs7461//qve4XC7HqlWr4OjoiLlz5xoMUNR+//13HDhwAAsWLNA8LwAYPnw4Fi1ahPT0dISFhcHLy+u++wKAa9euoUePHpg+fbrJtnfu3MFXX32Frl274uOPP9YE3P369cP8+fPx/fffo1+/fh1600SZTIYdO3agsrISwcHB2Lp1q8F2UVFR6NWrFwYNGoS//e1v+OSTTzQr8LOzszXfT08//TQA1eTAnj174OHhgaKiIiQnJ+td09fXF1FRUbh06ZLZbR0c7v8DviVjM9Wfp6cnZsyYgfnz5+Pdd9/FK6+8oinB0aNHD533cnR0NE6cOIGkpCRMmTIF3bp1w+HDh3Hw4EG8++67eOKJJ+77eVHLrly5Ak9PzzYJZdXhfVlZGaKiopCRkaG3sEFdRkfN399f00ZdwqWkpIRBvo0oKipCZmYmIiMjbfrzLWvkE9GDoA7vyxuU8HZShe29XXQDYfVqcYlc9XdXewGC/ttGXUrnzzuqUPrHUoXRld7qVf3l/82lM8tV5XbMLatzsEKB9cVyjGlWTqdAokRurRKv+tu122p8S8Nqc9vfb2kddSkkNXXAbunmwqZe433DHJBSLNdM0ACAt5MAFyMd9d5LtoRBPhE9VNS/lMbExFh0W7j6VmV69Ny9exdlZWUIDQ2Fn5+fzrGAgAAMGjQIubm5uH37NhwdHXHs2DGEhYUhNDRU004oFGLUqFHYsWMHjh8/jsmTJ6Ompga1tbWawFdbSEgInnzySeTm5mLChAkoKSkBoAq2tVfdC4VCvPDCC9i8eTPOnz/fYpCvVCpx/vx5rFy5EgUFBQgPD8fx48f12lkyNmN3tMjlcmRlZcHf3x/h4eGagFAgEGjKARw+fBhPP/00bty4gZMnT2LMmDEYNGiQzvObMGECDh06hKNHjyIkJMTkKuDr169j5cqVOHbsGIYNG4ajR4+afD20HT9+HBkZGZg+fbrOGAwpLi6Gj48P+vfvrzMeV1dXjBgxAosXL8a1a9f0XrvW9CWTyVBYWIhu3bqhU6dOJttevHgRJ06cwKeffqqzSt3LywujRo3Cli1bUFVV1aGDfIlEgvPnzwNQ7XNi7GscFhaGXr16QSgUIjY2Fp6envj3v/+NH374AT179sT777+PMWPGaL6fLl++jLq6OgCqO7YMiYqKwujRoy1qa40g35r9hYWF4YsvvsDXX3+NBQsWwNnZGePHj8e0adN07rDp2rUrli5dig0bNmDt2rWaEk1ffPHFQ1Oi6UEQiUTw9vZGZmYmysrKLApXtUNZa6/GX7NmDU6fPo20tDS9azffpFldRkf9+Sk3NxerV6/G7t27AcCsCVZqe1KpFCkpKQCA8ePHt/NoTDO37A+g+jwCgHcYEJFF5uY1IaVYbrTW/NjfZMgsVwC4FyirQ/2+mY1IHmiP/DolyhuUmOQrxMEKBbKqFFjZX3/jWnWArA54PRwEGHWsEXFnmvBlobzFlezpJQpklNwbq3b4r94wd3WBHL9WKTTXynmxnVJ9G6H++gW5CPBloRzPe9lBIAAiPO3w01AHiyY9jlQqcKdJabCmvnrTZADo5iSApEn1nlhbILdK2aS2YrsjIyKykHaIP3v2bL3j/v7+yM/PR2Fhod4vGLxV+dHVuXNnrFq1yqy2tbW1KCoqwvDhw/VqyHt7e8PX1xcXL16ETCZDjx498N1335l13cjISL0SMa1x69YtfPrpp6iursbnn3+OkpISg0G+JWMzpr6+HpcvX0ZAQIBeAN25c2cEBQXh8uXLqK+vR1VVFUpKShAcHKxXHsjDwwOPP/44CgsLcffuXZ163dqkUinWrVuHnJwcfPDBB/Dy8jI7yK+rq0N6ejp69+6N6OjoFksUxcbGIjY21qxr329fUqkUpaWl8PX1bbEM2NmzZ9GzZ0/06dNH79jrr7+O119/vVVjtiXu7u7YtGmTRec4Ojpi0qRJmDRpktE2pmrL309bSxirW27N/gQCAQYMGICvv/66xbZeXl5YsGABFixYYJW+H1UzZ85EeXl5i3cwGRIVFYWZM2fqrJ43xZyVzlFRUUhMTNT7HKQd4MfExOi9F8ViMQ4dOoQ5c+ZongvvbHzwAgMDsWvXLr3H169fr/namfs1kUqlOHnypM6dFoBqoqeljXLz8/M1kz2maIf2xsZuTG1tLVavXo3Q0FD4+PiYfR4RdTzaq+dNWV2g2kTWFPXqe0NBqzoADnUToPIlJ53Ad3Q3OxRHOWlCeEAV8r/sK8SoY43o4yrAy76qz+3qsju5t5QGV2jnvOioeU5eexoMlqbJr1NCIgf23VDgzEj9Fd7qCYLkgfaaMXjtaUB8b2Gbh8jqvq3B2HhbW1pH/TXUfl3Uky9f9DP+uhha/a+uqR/R1U5nwkf7+Tcfv3rCR736vz33LjCGQT4RPRTUv5SY2qBNLBYjJibG6C/C/IWVmquqqsK5c+fw1FNPQSQSoby8HLdu3ULPnj31Vqw6OTnB19cXpaWlkEqlJlfOXr16VVMGxFT9dKVSibNnz8Le3t6sjeDs7Ozw/PPPIzo6Gl26dNGs9LeEuWO7e/cuampq0LdvX70A2snJCV5eXrhw4QJu375tVr/V1dVobGw0GuQDQN++fTFr1iz4+fkhJyfHvCcE4MiRI5oyIs03TW1pAlBbY2Mjzp49a3LSz1Rf6rAuNDQUiYmJEIlEuH37NioqKuDn54eUlBRs374dt27d0tvAViaToaysDAEBAZDL5fj66681bQcPHox//etfmk14iejBscamx5YGoK1hzjhbM5FGbU8qlSIiIgISiQQzZ8402U77bgvg3obr2v9Oz549u8V/70kQdooAABc7SURBVKzJ1Mbw6oknc/azIqKOq7eLAKXj2j4NbamUi6HV7gcrFCiTAt8NtkeNTImQQ6oJh/jeQuS8aDwy1X5Oc/Oa4LWnAS5CYOtQBwxyt8OvVQqDQXBKsRxxZ5r0JhtyXnTUhMim7jawhpX97dt8sqC1pXXm9RHiGQ+B5s6FnBcdNa+ZegLGXP/jY4cyKbA8RKhTZim+txDylw3/nqtd8/9ghQIB+xsgkcNo+ab2wCCfiDo89S3k6g3aTHnQv7xQxyWXy7Fjxw6UlpbiX//6F0QiESQSCW7evGlwlbVAIICdnR0kEgnkcuMrHOrr65Geng57e3uMGDHCZPBaWFiI7du3Y/DgwQZXYTfXuXNnTJs2zbwneJ9jk0gkuH37Nuzs7PTaqV8LqVSKhoYGuLu7w9vbG9euXYNSqdRpf/v2bRQXF+ts6GqISCTC1KlTLX5OdXV12LdvH8Ri8X1vBKv+ORMVFaVXhqm1fVVUVODatWu4du0axo4di4ULF6Kqqgo//fQT4uPjNZufyuVy3L17F1euXMG8efPg6emJ+fPno6GhAenp6XjrrbewYMECjB49+r6eIxER2RaRSASxWNxiuRprTCq1BU4QEZEtG93NDmVakwytmXAwFIw3nzBQrzSP9LZrMUROKZbjlROyNg3z24qlpYGah/2ju9npPefpAUKz9yMwxdCmvKYY28i3vTHIJ6IOj8E8WZtCocDu3buRlpaG6OhojBgxwirXbWxsRGpqKjIzM/HWW28hJCTEaNvy8nIsX74cEokE//jHP9q87rklY7NU9+7d8fTTT+Pw4cMYO3YsgoKCAKjuODh+/DguXrxo1f605efn48yZM3j77bfh6empd9xYuZPmLl26hM8++wzdu3fH1KlTDU48tNSXoVW3NTU18PDwwKxZszBhwgSdjXUTEhKwbt06BAcHo0ePHgBUG6O+9NJLeO+99zR3LwwePBgJCQlIS0vDgAEDjNbuJyIiIiKiB8+STWWtFVzTw6ljTe0QERG1Mblcjq1bt+KTTz7BmDFjMGfOnBZXi5ujoaEBX3/9NVJSUjBz5kxMmTLF6Ir30tJSJCQk4PLly1i2bFmbbzZoydhaw9nZGf/85z8BALNmzcK3336LY8eOYfHixUhLS0P//v2t1pc2mUyGX375BV5eXhg8eHCrr5Ofn4/33nsPALBs2TKDZY5a29cLL7yAffv2ITo6Wuc179q1K6ZOnYrKykqdcgTOzs545ZVXdEoQde3aFZMmTcK5c+dw4cKF1jxFIiIiIiIisnFckU9ERPRfjY2N2LRpE7799luMGzcOb7/9tk5g6uLigi5duhgsnaNUKqFQKODp6akX/EskEqxYsQJ79+5FXFwcpk2bZnQT1EuXLuH999/HrVu38MknnyAsLExzzFidWe3N5ixlamyG6u0Cqv0khg4dik6dOkGhUOiVy1G/Fp06dYKLiwsAICgoCGvWrMGXX36JDRs2QCQSYfz48fjmm2/w/fffIy8vD3Z21l1fUFlZibNnz7Z6Iz2lUomTJ08iKSkJbm5uWLp0qeZuAmv3ZYivry+8vb119jpwc3PT21wYUIX5AHDz5k2r9E1ERERERES2hUE+ERERVPXhv/rqK6Snp2Pq1Kn4xz/+obfZa6dOneDm5mZwE9mGhgaUlpbi8ccf19no9ubNm1i6dCmysrLw9ttvY+LEiUZD/DNnziApKQkODg5YsWJFm5Wbac3Ymnvsscfg4eGByspKNDQ06GxU19DQgMrKSnh4eOCxxx7TPO7n54ePP/5Y5zr19fW4evUqgoKCdNpaQ0lJCYqKijBlyhSLN9JTKpU4ePAgli1bhsDAQHz00Ufw9fVtk77u3r0LJycnvYkMmUwGmUwGe3t7zQbCRERERERE9GhikE9ERI+8+vp6rFixAnv27NGsSjdUTsfd3R2BgYEoLi5GfX29zmr98vJylJaW4qWXXtIE+VVVVVi0aBFycnKQkJCA8ePHG111fvLkSSxcuFCz8vvxxx832L+1NowzZ2ymNs6Ty+Xo06cPsrOzUVdXpxNe19XVobCwEGFhYXB2dkZdXR2SkpLg5+eHefPm6UwWXL9+HefOncOsWbN0JkCsIT8/H87OzkZX0RujVCqxd+9eLF26FGKxGAsXLoS3t7fV+5LJZPj0009x4sQJrF69GoGBgTrHr1y5gps3b6Jfv34QCAQICQlBWloarl///9u796Coq/+P4y+5qRu3dUMFMS8ZRlIaigJZahRgF7MZLbv8FJKYmtLCGjO0iV/N1zQVcXLS6YcjhRVEjhKWQhfNaVLzEjlWg5ZIkKJo8F0BQQb294cj08qiLLKywvMxwx9+zjmf99mFP5zX53zO+btF37KyMrm5udnc9gcAAAAAcP0jyAcAdGsWi0V5eXnKzc3Vs88+q9mzZ7e6Kt1gMGj8+PFavny5fvnlF0VEREi6EGpv2bJFnp6eVtc+/PBD7du3T8nJyVYHmV7q5MmTWrVqlW644QYtWbLE7uDZXvbMrTWurq666667tGnTJu3atat5j3eLxaLt27errKxMCxYskKurq3r37i0/Pz/t3btXJ06caA6b6+vrlZOToz59+mjcuHEd+hnPnz+vkpISBQYGqm/fvnaNLSoq0urVqxUSEqKUlJTmbWs6upa7u7vCwsK0adMmFRQUKCEhoflvr6KiQtnZ2QoNDVVwcLAkKSQkRMOHD9dHH32kW2+9tXlep0+f1pYtWzRmzBgNGzbMrs/aFZnNZiUnJys6OlpTpkxpvt7a1lT/5u/vb/Ohyr/V19fryy+/VE5Ojo4cOSIPDw+NHTtWiYmJCg4OVo8ePTqsVlFRkebMmWNzy6SQkBClpaXJ19dX0oVDun/66SdlZGSosLBQBoNBUVFReuaZZzpsuycAAAAAnYcgHwDQrZ04cUKbN2+WwWBQVVWV0tPTW/Tx8vLS1KlTZTAYdN9992n//v1auHChnn76aQUFBamgoEAFBQVKTk7WgAEDJF0I4L788ksZjUYVFxfrgw8+aHHfgIAAxcbGKj8/X0VFRbrjjjv09ddf25znuHHjNGrUqA75zPbM7XKr5EePHq2nnnpK77zzTvMK/L179yo7O1vx8fEaMWKEpAuB9RNPPKH9+/dr0aJFmjFjhnr27Knc3FwdPHhQS5YsueKKd3vV19fr9OnT8vf3l6enZ6v9Dhw4oMTERM2aNUtz5sxRQ0ODcnNzVVFRoeDgYG3cuNHmuNjYWA0aNMiuWsXFxZo7d65GjhypRYsWqVevXho/frwefPBBrV+/XuXl5YqKitKpU6eUmZmp2tpavf322zKZTJKkfv366aWXXtKCBQv06quvasaMGZKkrKws/fXXX1qyZIm8vb3b+5V1CY2Njfr000+1e/duRUdHW7V5eHgoOjq6+WHbv505c0ZfffWVPD09W2yp9W+1tbVaunSp8vPzNXnyZL3wwguqrq5WVlaWEhIStGjRIj3wwAMdUku68EDHbDbrkUceafGQyMvLq/nNIYvFoi1btmjx4sWKjo7W8uXLVVpaqoyMDB0+fFjLli2z+4EWAAAAAOdCkA8A6NbKy8t15MgRSVJOTo7NPiEhIXrggQdkMBhkMBg0f/58DRgwQNnZ2Tpz5oyCg4OVmpqq8PDw5pXtf/zxh8xmsyQpMzPT5n1jY2N199136/Dhw5KkgwcP6uDBgzb7+vv7d1iQ39a53X///ZcN8l1dXRUfHy+TyaRPPvlEH3/8sW666SYtXLhQMTExVm82DB06VKmpqXr//ff11ltvSZLGjx+vtWvXKigoqEM+1781NjaqpqZGRqPRrkN0a2pq9Pvvv0uSdu7cqZ07d9rsFxYW1hzkt7eWdOEtj4ULFyoyMlIbNmxQXl6evL29FRUVpbi4uOYHQxeNHTtWa9euVXp6utX3mJyc7JDv8Xpy/vx5ZWVlaf369TbbDQaDnnzyyRbXGxsblZaWJg8PDyUlJV32LIQ9e/YoPz9fr7/+evNbKNKF30FKSoqysrIUFhYmPz+/q64lSaWlpRo4cKBmz5592b5FRUVas2aN4uPjrd7sGDx4sF577TVt2bJF8fHxdr95AwAAAMB5EOQDALq10NBQ7du3z64xN9xwgxITE5WYmNhqnylTplht63E5re1Df7Vam4M9c7sSDw8PTZs2TdOmTbti38GDB+vdd9/tkLpX+r219TyBS+/TnnMI2jpmyJAhysvLa3Hdw8NDMTExiomJaVO9oKCgDvseu4q///5bK1eu1A8//KDIyMhWH8DYsmvXLuXk5Gj27NkaPXr0ZfseO3ZM/v7+uuOOO6xCcU9PT91zzz166623VFpa2urBxPbUamho0NGjR9W3b195eXm12s9isejbb7+Vn59fiwOrR44cqbCwMBUXF6uurq7DD5QGAAAAcO0Q5AMAAOC6VVdXpzVr1ujAgQN688035efn1+Yg32w2KysrSzfffLOmTJnS6vkYF8XHxys+Pr5d87S3Vl1dnY4fP66AgACrw6QvVV1drd9++0233367+vTpY9VmMBi0YsWKds0XAAAAgHOx7/1vAAAAwMkEBQUpMzNTkydPtmt7ox07dmj37t16/PHHW5zTcODAAY0ZM0bvvffeFe9z/vx5FRYWyt/fX0ajsUNqnT17VqdOnVKPHj20bt06xcTEKDw8XM8995x++uknWSwWq37Dhg3Tn3/+qfnz5ysyMlL33nuvUlNTbR6UCwAAAOD6Q5APAACA61avXr00c+bMFucJXInZbNbWrVsVGhqqu+6666rmsH//fn3zzTeKiIiwOY/21Dp16pRKS0v1xRdf6OTJk3rjjTe0YMEC1dXVae7cucrLy5PFYlF9fb3q6ur03Xff6cUXX5S/v79WrFihp59+Wvn5+UpKSlJpaelVfT44XvXmbapISlHZpOk63CPQ6qds0nRVJKWoOje/s6cJAACATsTWOgAAAOh2Dh06pJ9//lmvvPKKTCZTi/a2np9x5MgRLVu2TP3799fMmTPl4eHRIbUqKytlNBr1/PPP6+GHH7Y6WDc5OVlr1qxRcHCw3Nwu/Hd+7969Sk5Obu4bERGhkJAQLViwQJ9//rnmzp17xe18cG01VZlVuSpdlWnpaqoyt9qvdscu1e7Ypcq0dLn4esv4coKMLyXIxdf7Gs4WAAAAnY0V+QAAAOhWGhoatH37dvn5+WnMmDHtvs+hQ4f02muvSZKWLFmiwMDADqs1adIkbd26VVOmTLE6WPfGG2/UzJkzVVFRoUOHDjVfv/POOzVx4kSrvqNGjdLEiRO1d+9enTlzpj0fEQ5SvXmbjg4J15mU1MuG+JdqqjLrTEqqjg4JV/XmbQ6cIQAAAJwNQT4AAAC6lYqKChUWFmrkyJHy9/e3e7zFYtGePXv0yiuvyM3NTUuXLtXQoUMdUsuWgIAA9evXT2VlZc3XTCZTi7cBPDw8ZDQadfbsWdXU1HRIbVy98rgkHX80wa4A/1JNVWYdfzRB5fHzOnBmAAAAcGYE+QAAAOhWysrKVFxcrLFjx6pXr152jbVYLPr666/1+uuvKzAwUGlpabrlllscUuvcuXNqampqcb2hoUENDQ1yc3OTj49PqwfswvmUxyXJ/GFOh93PnPEZYT4AAEA3QZAPAACAbuXQoUMyGAytrqJvjcVi0VdffaWUlBTddtttWrx4sQICAjq8VkNDg/7zn//oscceU0lJSYv2kpIS/fPPP7r99tvl5eWl4cOH6+jRozKbrVd419XV6eTJk/Lz85Ovr2+b68MxrhTiuw8KlOnNeQrcnqNhlb8pyFKmIcW71H99qnpPCG91HGE+AABA90CQDwAAgG7j/PnzKikpUWBgoPr27WvX2KKiIq1evVohISFKSUlRv379HFLL3d1dYWFhOnHihAoKCtTY2NjcVlFRoezsbIWGhio4OFju7u6aMGGCjh49qk2bNln1PXjwoH788Ufdc889BPmdrHrztsuG+N6zpmvIsd0ypcyTYWJE80G27oMHyjvuMQ3c8bkCNqXLxcfL5nhzxmfsmQ8AANDFuXX2BAAAAIBrpb6+XqdPn5a/v788PT1b7XfgwAElJiZq1qxZmjNnjhoaGpSbm6uKigoFBwdr48aNNsfFxsZq0KBBV1VLksaPH68HH3xQ69evV3l5uaKionTq1CllZmaqtrZWb7/9tkwmkyQpIiJC8fHxVn0PHz6s7OxsDRs2TA899JDVIbi4tpqqzJddMd9/faq84x674n08p8Zq4I6BKp04TU3/PduivTx+noZOjGx+CAAAAICuhSAfAAAA3UZjY6NqampkNBrl4tL2l1Nramr0+++/S5J27typnTt32uwXFhbWHOS3t5YkGQwGLVy4UJGRkdqwYYPy8vLk7e2tqKgoxcXFacCAAc19XV1dlZCQoCFDhigzM1N5eXkymUx69NFH9cQTT8jHx8eu2uhYlWnprR5s6z1reptC/It6jhqhvmn/a/PBQFOVWZVp6TKlsM0OAABAV0SQDwAAgC4jNDRU+/bta7Xd19dXGRkZdt+nreM6otZFHh4eiomJUUxMzBXv4erqqujoaEVHR9s1RzheZdr/tdpmK3RvqjKrOjdfktR7QrjcBw+0aveOe0xnUlLVUFLWstYqgnwAAICuij3yAQAAAMABqjdvs7kNzkXHH01QfeGvzf+uL/xVR4eEqzwuSeVxSSq5M8aq/aLeEyNs3q+pysxe+QAAAF0UQT4AAAAAOMC5Hbsu215f+KtKJ02XOeMzNVWZVTpputU2PBeC+fwW4y5dpW9PTQAAAFyfCPIBAAAAwAHqbKymv9TFw3D/MN7WYi/9niNvk/HlhBZjbK3St6cmAAAArj8E+QAAAADgAOe+392ucS4+XvJbmaJBhQVy8fW2amuqMqv2+9ZX3be3JgAAAJwbh90CAAAAgJNwHxSogM3r1HPUCJvt5XFJLVbuAwAAoOsjyAcAAAAAJ9FaiN9wrLTF4bgAAADoPthaBwAAAACcgOcjMTZDfHPGZyoeEkGIDwAA0I0R5AMAAACAA/SeEG5Xf1shfu2OXSqPn+ewmgAAALg+sLUOAAAAADhAr1Ej7Dp8tv6X31r0r1q1zu6aAAAA6HoI8gEAAADAAXpPjFClHUF89eZtqt687aprAgAAoOthax0AAAAAcADPqbFy8fFqc3/jS7MVZCmz+jG+NLvN4118vOQ5NbY9UwUAAICTI8gHAAAAAAcxvvxsm/u6+Pq06VpH1AIAAMD1hSAfAAAAABzE+HKCXavy28vFx0vGlxMcXgcAAACdgyAfAAAAABzExddb/TNWOrxO/4yVcvH1dngdAAAAdA6CfAAAAABwIM+psfKeNf2K/Zqq/tuma5fynjWdvfEBAAC6OLfOngAAAAAAdHUXV+WbP8xptU/lqnWqXLXOrvt6z5p+TVb8AwAAoHOxIh8AAAAAroH+GSvbtDK/rQjxAQAAug+CfAAAAAC4RvpnrFTApvSrOgDXxcdLAZvSCfEBAAC6EYJ8AAAAALiGPKfGauixPTK9Oc+uQN/Fx0umN+dp6LE97IkPAADQzbBHPgAAAABcYy6+3jKlzJMpZZ6qN2/TuR27VFf4q859v9uqX+8J4eo1aoR6T4wgvAcAAOjGCPIBAAAAoBN5To0lpAcAAMBlsbUOAAAAAAAAAABOjCAfAAAAAAAAAAAnRpAPAAAAAAAAAIATI8gHAAAAAAAAAMCJEeQDAAAAAAAAAODE3Dp7AgAAAAC6t38G3tLZU0AX8qokZebon86eCAAAQAdiRT4AAAAAAAAAAE6MFfkAAAAAOsXy/5muqKgoRUVFdfZU0IUkJyfzdwUAALocVuQDAAAAAAAAAODECPIBAAAAAAAAAHBiBPkAAAAAAAAAADgxgnwAAAAAAAAAAJwYQT4AAAAAAAAAAE6MIB8AAAAAAAAAACdGkA8AAAAAAAAAgBP7f4GN55HrvmwgAAAAAElFTkSuQmCC;" vertex="1" parent="1">
          <mxGeometry x="40" y="850" width="1522" height="270" as="geometry" />
        </mxCell>
        <mxCell id="KDGDrF34WBt05ubvqvvm-20" value="&lt;font style=&quot;font-size: 24px;&quot;&gt;疑问： 数据状态什么时候通过什么操作，由“已排期” 变更到 “已上线”？&lt;/font&gt;" style="text;html=1;align=center;verticalAlign=middle;resizable=0;points=[];autosize=1;strokeColor=none;fillColor=none;" vertex="1" parent="1">
          <mxGeometry x="30" y="800" width="770" height="40" as="geometry" />
        </mxCell>
      </root>
    </mxGraphModel>
  </diagram>
</mxfile>
